roboto-mono_light.sfdir
StartChar: exclam
Encoding: 33 33 1040
Width: 1229
Flags: W
LayerCount: 2
Back
Fore
SplineSet
654 435 m 1,0,-1
 534 435 l 1,1,-1
 534 1456 l 1,2,-1
 654 1456 l 1,3,-1
 654 435 l 1,0,-1
514 72 m 0,4,5
 514 107 514 107 537 131.5 c 128,-1,6
 560 156 560 156 599 156 c 0,7,8
 639 156 639 156 662.5 131.5 c 128,-1,9
 686 107 686 107 686 72 c 0,10,11
 686 38 686 38 662 15 c 128,-1,12
 638 -8 638 -8 599 -8 c 256,13,14
 560 -8 560 -8 537 15 c 128,-1,15
 514 38 514 38 514 72 c 0,4,5
EndSplineSet
EndChar
StartChar: numbersign
Encoding: 35 35 5
Width: 1229
Flags: W
LayerCount: 2
Back
Fore
SplineSet
729 410 m 1,0,-1
 415 410 l 1,1,-1
 338 0 l 1,2,-1
 239 0 l 1,3,-1
 316 410 l 1,4,-1
 61 410 l 1,5,-1
 61 503 l 1,6,-1
 333 503 l 1,7,-1
 416 944 l 1,8,-1
 137 944 l 1,9,-1
 137 1040 l 1,10,-1
 434 1040 l 1,11,-1
 513 1456 l 1,12,-1
 612 1456 l 1,13,-1
 533 1040 l 1,14,-1
 848 1040 l 1,15,-1
 927 1456 l 1,16,-1
 1026 1456 l 1,17,-1
 947 1040 l 1,18,-1
 1177 1040 l 1,19,-1
 1177 944 l 1,20,-1
 929 944 l 1,21,-1
 846 503 l 1,22,-1
 1102 503 l 1,23,-1
 1102 410 l 1,24,-1
 828 410 l 1,25,-1
 751 0 l 1,26,-1
 652 0 l 1,27,-1
 729 410 l 1,0,-1
432 503 m 1,28,-1
 747 503 l 1,29,-1
 830 944 l 1,30,-1
 515 944 l 1,31,-1
 432 503 l 1,28,-1
EndSplineSet
EndChar
StartChar: dollar
Encoding: 36 36 6
Width: 1229
Flags: W
LayerCount: 2
Back
Fore
SplineSet
961 359 m 0,0,1
 961 423 961 423 936 471.5 c 128,-1,2
 911 520 911 520 867 557 c 128,-1,3
 823 594 823 594 763.5 622 c 128,-1,4
 704 650 704 650 636 674 c 0,5,6
 553 701 553 701 479.5 736 c 128,-1,7
 406 771 406 771 350.5 820 c 128,-1,8
 295 869 295 869 262.5 936 c 128,-1,9
 230 1003 230 1003 230 1095 c 0,10,11
 230 1180 230 1180 258 1247.5 c 128,-1,12
 286 1315 286 1315 335.5 1363 c 128,-1,13
 385 1411 385 1411 453 1439.5 c 128,-1,14
 521 1468 521 1468 600 1475 c 1,15,-1
 600 1677 l 1,16,-1
 702 1677 l 1,17,-1
 702 1474 l 1,18,19
 788 1466 788 1466 855.5 1432 c 128,-1,20
 923 1398 923 1398 970 1340.5 c 128,-1,21
 1017 1283 1017 1283 1042.5 1204 c 128,-1,22
 1068 1125 1068 1125 1070 1028 c 1,23,-1
 951 1028 l 1,24,25
 950 1103 950 1103 929 1166 c 128,-1,26
 908 1229 908 1229 869 1274 c 128,-1,27
 830 1319 830 1319 774.5 1344.5 c 128,-1,28
 719 1370 719 1370 649 1370 c 0,29,30
 586 1370 586 1370 531.5 1352 c 128,-1,31
 477 1334 477 1334 436.5 1299 c 128,-1,32
 396 1264 396 1264 373 1213.5 c 128,-1,33
 350 1163 350 1163 349 1097 c 0,34,35
 349 1030 349 1030 373.5 981.5 c 128,-1,36
 398 933 398 933 441.5 896.5 c 128,-1,37
 485 860 485 860 545.5 832.5 c 128,-1,38
 606 805 606 805 677 780 c 0,39,40
 761 752 761 752 834.5 717.5 c 128,-1,41
 908 683 908 683 962.5 634 c 128,-1,42
 1017 585 1017 585 1049 518.5 c 128,-1,43
 1081 452 1081 452 1081 361 c 0,44,45
 1081 275 1081 275 1051.5 207.5 c 128,-1,46
 1022 140 1022 140 971 92.5 c 128,-1,47
 920 45 920 45 850.5 17 c 128,-1,48
 781 -11 781 -11 700 -18 c 1,49,-1
 700 -208 l 1,50,-1
 597 -208 l 1,51,-1
 597 -19 l 1,52,53
 512 -13 512 -13 436.5 15.5 c 128,-1,54
 361 44 361 44 304 97.5 c 128,-1,55
 247 151 247 151 213 230.5 c 128,-1,56
 179 310 179 310 177 418 c 1,57,-1
 297 418 l 1,58,59
 298 330 298 330 327 267 c 128,-1,60
 356 204 356 204 403.5 163 c 128,-1,61
 451 122 451 122 512.5 103 c 128,-1,62
 574 84 574 84 642 85 c 0,63,64
 706 85 706 85 764 103 c 128,-1,65
 822 121 822 121 865.5 156 c 128,-1,66
 909 191 909 191 935 242 c 128,-1,67
 961 293 961 293 961 359 c 0,0,1
EndSplineSet
EndChar
StartChar: percent
Encoding: 37 37 7
Width: 1229
Flags: W
LayerCount: 2
Back
Fore
SplineSet
44 1184 m 2,0,1
 44 1239 44 1239 60.5 1291.5 c 128,-1,2
 77 1344 77 1344 108.5 1385.5 c 128,-1,3
 140 1427 140 1427 187.5 1452 c 128,-1,4
 235 1477 235 1477 297 1477 c 0,5,6
 360 1477 360 1477 407.5 1451.5 c 128,-1,7
 455 1426 455 1426 486.5 1385 c 128,-1,8
 518 1344 518 1344 534.5 1291.5 c 128,-1,9
 551 1239 551 1239 551 1184 c 2,10,-1
 551 1107 l 2,11,12
 551 1053 551 1053 534.5 1001 c 128,-1,13
 518 949 518 949 486.5 908 c 128,-1,14
 455 867 455 867 408 842 c 128,-1,15
 361 817 361 817 299 817 c 0,16,17
 236 817 236 817 188.5 842 c 128,-1,18
 141 867 141 867 109 907.5 c 128,-1,19
 77 948 77 948 60.5 1000.5 c 128,-1,20
 44 1053 44 1053 44 1107 c 2,21,-1
 44 1184 l 2,0,1
140 1107 m 2,22,23
 140 1071 140 1071 149 1034.5 c 128,-1,24
 158 998 158 998 177.5 969 c 128,-1,25
 197 940 197 940 227 922 c 128,-1,26
 257 904 257 904 299 904 c 256,27,28
 341 904 341 904 370 922.5 c 128,-1,29
 399 941 399 941 418 970 c 128,-1,30
 437 999 437 999 446 1035 c 128,-1,31
 455 1071 455 1071 455 1107 c 2,32,-1
 455 1184 l 2,33,34
 455 1221 455 1221 446 1257.5 c 128,-1,35
 437 1294 437 1294 418 1323.5 c 128,-1,36
 399 1353 399 1353 369 1371.5 c 128,-1,37
 339 1390 339 1390 297 1390 c 256,38,39
 255 1390 255 1390 225.5 1371.5 c 128,-1,40
 196 1353 196 1353 177 1323.5 c 128,-1,41
 158 1294 158 1294 149 1257 c 128,-1,42
 140 1220 140 1220 140 1184 c 2,43,-1
 140 1107 l 2,22,23
673 348 m 2,44,45
 674 402 674 402 690 454.5 c 128,-1,46
 706 507 706 507 738 548 c 128,-1,47
 770 589 770 589 817 614 c 128,-1,48
 864 639 864 639 927 639 c 256,49,50
 990 639 990 639 1037 614 c 128,-1,51
 1084 589 1084 589 1116 548 c 128,-1,52
 1148 507 1148 507 1164.5 454.5 c 128,-1,53
 1181 402 1181 402 1182 348 c 2,54,-1
 1182 270 l 2,55,56
 1181 215 1181 215 1165 163 c 128,-1,57
 1149 111 1149 111 1117 70 c 128,-1,58
 1085 29 1085 29 1038 4 c 128,-1,59
 991 -21 991 -21 929 -21 c 0,60,61
 866 -21 866 -21 818.5 4 c 128,-1,62
 771 29 771 29 739 70 c 128,-1,63
 707 111 707 111 690.5 163 c 128,-1,64
 674 215 674 215 673 270 c 2,65,-1
 673 348 l 2,44,45
770 270 m 2,66,67
 770 233 770 233 779 196.5 c 128,-1,68
 788 160 788 160 807 130.5 c 128,-1,69
 826 101 826 101 856 83 c 128,-1,70
 886 65 886 65 929 65 c 0,71,72
 971 65 971 65 1000.5 83 c 128,-1,73
 1030 101 1030 101 1048.5 130.5 c 128,-1,74
 1067 160 1067 160 1076 196.5 c 128,-1,75
 1085 233 1085 233 1085 270 c 2,76,-1
 1085 348 l 2,77,78
 1085 385 1085 385 1076 421.5 c 128,-1,79
 1067 458 1067 458 1048.5 487 c 128,-1,80
 1030 516 1030 516 1000 534 c 128,-1,81
 970 552 970 552 927 552 c 256,82,83
 884 552 884 552 854.5 534 c 128,-1,84
 825 516 825 516 806 487 c 128,-1,85
 787 458 787 458 778.5 421.5 c 128,-1,86
 770 385 770 385 770 348 c 2,87,-1
 770 270 l 2,66,67
357 159 m 1,88,-1
 280 205 l 1,89,-1
 874 1293 l 1,90,-1
 951 1247 l 1,91,-1
 357 159 l 1,88,-1
EndSplineSet
EndChar
StartChar: ampersand
Encoding: 38 38 8
Width: 1229
Flags: W
LayerCount: 2
Back
Fore
SplineSet
417 791 m 1,0,1
 384 834 384 834 356.5 877 c 128,-1,2
 329 920 329 920 308.5 964 c 128,-1,3
 288 1008 288 1008 276.5 1053.5 c 128,-1,4
 265 1099 265 1099 265 1147 c 0,5,6
 265 1220 265 1220 287.5 1281 c 128,-1,7
 310 1342 310 1342 352 1385.5 c 128,-1,8
 394 1429 394 1429 454 1453 c 128,-1,9
 514 1477 514 1477 588 1477 c 0,10,11
 652 1477 652 1477 704.5 1454.5 c 128,-1,12
 757 1432 757 1432 794.5 1393 c 128,-1,13
 832 1354 832 1354 852.5 1302 c 128,-1,14
 873 1250 873 1250 873 1191 c 0,15,16
 873 1142 873 1142 857 1099.5 c 128,-1,17
 841 1057 841 1057 814.5 1019.5 c 128,-1,18
 788 982 788 982 753 948.5 c 128,-1,19
 718 915 718 915 680 885 c 2,20,-1
 562 785 l 1,21,-1
 934 315 l 1,22,23
 978 387 978 387 1002 473 c 128,-1,24
 1026 559 1026 559 1028 651 c 1,25,-1
 1138 651 l 1,26,27
 1138 530 1138 530 1104 423.5 c 128,-1,28
 1070 317 1070 317 1004 227 c 1,29,-1
 1184 0 l 1,30,-1
 1041 0 l 1,31,-1
 928 142 l 1,32,33
 851 68 851 68 757.5 24 c 128,-1,34
 664 -20 664 -20 555 -20 c 0,35,36
 463 -20 463 -20 386 7 c 128,-1,37
 309 34 309 34 253.5 84 c 128,-1,38
 198 134 198 134 166.5 204.5 c 128,-1,39
 135 275 135 275 135 362 c 0,40,41
 135 429 135 429 157 487.5 c 128,-1,42
 179 546 179 546 216 597.5 c 128,-1,43
 253 649 253 649 302.5 695 c 128,-1,44
 352 741 352 741 408 784 c 2,45,-1
 417 791 l 1,0,1
555 81 m 0,46,47
 649 80 649 80 727 118 c 128,-1,48
 805 156 805 156 866 222 c 1,49,-1
 488 701 l 1,50,-1
 478 713 l 1,51,-1
 441 681 l 2,52,53
 351 604 351 604 302.5 521.5 c 128,-1,54
 254 439 254 439 255 362 c 0,55,56
 255 299 255 299 277.5 247 c 128,-1,57
 300 195 300 195 339.5 158.5 c 128,-1,58
 379 122 379 122 434 101.5 c 128,-1,59
 489 81 489 81 555 81 c 0,46,47
386 1149 m 0,60,61
 385 1075 385 1075 418 1003.5 c 128,-1,62
 451 932 451 932 502 862 c 1,63,-1
 634 971 l 2,64,65
 694 1017 694 1017 726.5 1072.5 c 128,-1,66
 759 1128 759 1128 760 1191 c 0,67,68
 760 1228 760 1228 747.5 1261 c 128,-1,69
 735 1294 735 1294 712.5 1319.5 c 128,-1,70
 690 1345 690 1345 658.5 1360 c 128,-1,71
 627 1375 627 1375 588 1375 c 0,72,73
 539 1375 539 1375 501.5 1356.5 c 128,-1,74
 464 1338 464 1338 438.5 1307 c 128,-1,75
 413 1276 413 1276 399.5 1235 c 128,-1,76
 386 1194 386 1194 386 1149 c 0,60,61
EndSplineSet
EndChar
StartChar: parenleft
Encoding: 40 40 10
Width: 1229
Flags: W
LayerCount: 2
Back
Fore
SplineSet
381 588 m 2,0,1
 381 760 381 760 416 922 c 128,-1,2
 451 1084 451 1084 511.5 1222 c 128,-1,3
 572 1360 572 1360 654.5 1466 c 128,-1,4
 737 1572 737 1572 833 1632 c 1,5,-1
 862 1551 l 1,6,7
 777 1490 777 1490 710 1390 c 128,-1,8
 643 1290 643 1290 596.5 1163.5 c 128,-1,9
 550 1037 550 1037 525.5 891 c 128,-1,10
 501 745 501 745 501 591 c 2,11,-1
 501 571 l 2,12,13
 501 418 501 418 525.5 271.5 c 128,-1,14
 550 125 550 125 596.5 -1.5 c 128,-1,15
 643 -128 643 -128 710 -229 c 128,-1,16
 777 -330 777 -330 862 -393 c 1,17,-1
 833 -470 l 1,18,19
 736 -409 736 -409 653.5 -303.5 c 128,-1,20
 571 -198 571 -198 510.5 -60.5 c 128,-1,21
 450 77 450 77 415.5 238.5 c 128,-1,22
 381 400 381 400 381 573 c 2,23,-1
 381 588 l 2,0,1
EndSplineSet
EndChar
StartChar: parenright
Encoding: 41 41 11
Width: 1229
Flags: W
LayerCount: 2
Back
Fore
SplineSet
823 573 m 2,0,1
 823 400 823 400 788.5 238.5 c 128,-1,2
 754 77 754 77 693.5 -60.5 c 128,-1,3
 633 -198 633 -198 550.5 -303.5 c 128,-1,4
 468 -409 468 -409 371 -470 c 1,5,-1
 342 -393 l 1,6,7
 427 -332 427 -332 494 -231 c 128,-1,8
 561 -130 561 -130 607.5 -3 c 128,-1,9
 654 124 654 124 678.5 271 c 128,-1,10
 703 418 703 418 703 571 c 2,11,-1
 703 591 l 2,12,13
 703 745 703 745 677.5 892 c 128,-1,14
 652 1039 652 1039 605 1166 c 128,-1,15
 558 1293 558 1293 491 1393.5 c 128,-1,16
 424 1494 424 1494 342 1555 c 1,17,-1
 371 1632 l 1,18,19
 467 1572 467 1572 549.5 1466 c 128,-1,20
 632 1360 632 1360 692.5 1222 c 128,-1,21
 753 1084 753 1084 788 922 c 128,-1,22
 823 760 823 760 823 588 c 2,23,-1
 823 573 l 2,0,1
EndSplineSet
EndChar
StartChar: asterisk
Encoding: 42 42 12
Width: 1229
Flags: W
LayerCount: 2
Back
Fore
SplineSet
570 853 m 1,0,-1
 184 964 l 1,1,-1
 220 1077 l 1,2,-1
 600 935 l 1,3,-1
 589 1342 l 1,4,-1
 707 1342 l 1,5,-1
 689 932 l 1,6,-1
 1062 1078 l 1,7,-1
 1100 964 l 1,8,-1
 713 848 l 1,9,-1
 981 528 l 1,10,-1
 883 457 l 1,11,-1
 639 799 l 1,12,-1
 404 460 l 1,13,-1
 308 528 l 1,14,-1
 570 853 l 1,0,-1
EndSplineSet
EndChar
StartChar: plus
Encoding: 43 43 13
Width: 1229
Flags: W
LayerCount: 2
Back
Fore
SplineSet
673 740 m 1,0,-1
 1117 740 l 1,1,-1
 1117 623 l 1,2,-1
 673 623 l 1,3,-1
 673 146 l 1,4,-1
 553 146 l 1,5,-1
 553 623 l 1,6,-1
 119 623 l 1,7,-1
 119 740 l 1,8,-1
 553 740 l 1,9,-1
 553 1206 l 1,10,-1
 673 1206 l 1,11,-1
 673 740 l 1,0,-1
EndSplineSet
EndChar
StartChar: comma
Encoding: 44 44 14
Width: 1229
Flags: W
LayerCount: 2
Back
Fore
SplineSet
601 35 m 2,0,1
 601 -9 601 -9 591.5 -53 c 128,-1,2
 582 -97 582 -97 564.5 -140 c 128,-1,3
 547 -183 547 -183 521 -222.5 c 128,-1,4
 495 -262 495 -262 461 -295 c 1,5,-1
 385 -247 l 1,6,7
 473 -122 473 -122 473 32 c 2,8,-1
 473 188 l 1,9,-1
 601 188 l 1,10,-1
 601 35 l 2,0,1
EndSplineSet
EndChar
StartChar: hyphen
Encoding: 45 45 15
Width: 1230
Flags: W
LayerCount: 2
Back
Fore
SplineSet
970 601 m 1,0,-1
 229 601 l 1,1,-1
 229 702 l 1,2,-1
 970 702 l 1,3,-1
 970 601 l 1,0,-1
EndSplineSet
EndChar
StartChar: period
Encoding: 46 46 16
Width: 1229
Flags: W
LayerCount: 2
Back
Fore
SplineSet
542 85 m 256,0,1
 542 127 542 127 569.5 156.5 c 128,-1,2
 597 186 597 186 644 186 c 0,3,4
 692 186 692 186 719.5 156.5 c 128,-1,5
 747 127 747 127 747 85 c 256,6,7
 747 43 747 43 719.5 15.5 c 128,-1,8
 692 -12 692 -12 644 -12 c 0,9,10
 597 -12 597 -12 569.5 15.5 c 128,-1,11
 542 43 542 43 542 85 c 256,0,1
EndSplineSet
EndChar
StartChar: zero
Encoding: 48 48 18
Width: 1229
Flags: W
LayerCount: 2
Back
Fore
SplineSet
1075 576 m 2,0,1
 1075 454 1075 454 1048 345.5 c 128,-1,2
 1021 237 1021 237 965 156 c 128,-1,3
 909 75 909 75 823 27.5 c 128,-1,4
 737 -20 737 -20 618 -20 c 0,5,6
 500 -20 500 -20 413.5 27.5 c 128,-1,7
 327 75 327 75 270.5 156 c 128,-1,8
 214 237 214 237 186.5 345.5 c 128,-1,9
 159 454 159 454 158 576 c 2,10,-1
 158 879 l 2,11,12
 159 1001 159 1001 186 1109.5 c 128,-1,13
 213 1218 213 1218 269.5 1300 c 128,-1,14
 326 1382 326 1382 412 1429.5 c 128,-1,15
 498 1477 498 1477 616 1477 c 0,16,17
 735 1477 735 1477 821.5 1429.5 c 128,-1,18
 908 1382 908 1382 964 1300.5 c 128,-1,19
 1020 1219 1020 1219 1047.5 1110 c 128,-1,20
 1075 1001 1075 1001 1075 879 c 2,21,-1
 1075 576 l 2,0,1
278 558 m 2,22,23
 278 517 278 517 281 480 c 1,24,-1
 938 1075 l 1,25,26
 924 1139 924 1139 899 1194 c 128,-1,27
 874 1249 874 1249 834.5 1289 c 128,-1,28
 795 1329 795 1329 741 1352 c 128,-1,29
 687 1375 687 1375 616 1375 c 0,30,31
 523 1375 523 1375 458.5 1336 c 128,-1,32
 394 1297 394 1297 354 1231 c 128,-1,33
 314 1165 314 1165 296 1079 c 128,-1,34
 278 993 278 993 278 899 c 2,35,-1
 278 558 l 2,22,23
955 899 m 2,36,37
 955 932 955 932 952 964 c 1,38,-1
 298 370 l 1,39,40
 313 308 313 308 339 255 c 128,-1,41
 365 202 365 202 404 163.5 c 128,-1,42
 443 125 443 125 496 103 c 128,-1,43
 549 81 549 81 618 81 c 0,44,45
 711 81 711 81 775.5 120.5 c 128,-1,46
 840 160 840 160 879.5 226 c 128,-1,47
 919 292 919 292 937 378 c 128,-1,48
 955 464 955 464 955 558 c 2,49,-1
 955 899 l 2,36,37
EndSplineSet
EndChar
StartChar: one
Encoding: 49 49 19
Width: 1229
Flags: W
LayerCount: 2
Back
Fore
SplineSet
742 0 m 1,0,-1
 622 0 l 1,1,-1
 622 1305 l 1,2,-1
 219 1132 l 1,3,-1
 219 1245 l 1,4,-1
 725 1456 l 1,5,-1
 742 1456 l 1,6,-1
 742 0 l 1,0,-1
EndSplineSet
EndChar
StartChar: two
Encoding: 50 50 20
Width: 1229
Flags: W
LayerCount: 2
Back
Fore
SplineSet
1043 0 m 1,0,-1
 130 0 l 1,1,-1
 130 92 l 1,2,-1
 607 633 l 2,3,4
 660 693 660 693 704.5 748 c 128,-1,5
 749 803 749 803 781.5 856.5 c 128,-1,6
 814 910 814 910 832 964 c 128,-1,7
 850 1018 850 1018 850 1075 c 0,8,9
 850 1141 850 1141 828 1196 c 128,-1,10
 806 1251 806 1251 765.5 1290.5 c 128,-1,11
 725 1330 725 1330 669 1352 c 128,-1,12
 613 1374 613 1374 544 1374 c 0,13,14
 467 1374 467 1374 407 1348 c 128,-1,15
 347 1322 347 1322 305.5 1277 c 128,-1,16
 264 1232 264 1232 241.5 1170.5 c 128,-1,17
 219 1109 219 1109 218 1036 c 1,18,-1
 98 1036 l 1,19,20
 99 1126 99 1126 131 1206 c 128,-1,21
 163 1286 163 1286 221 1346 c 128,-1,22
 279 1406 279 1406 360.5 1441 c 128,-1,23
 442 1476 442 1476 544 1476 c 0,24,25
 640 1476 640 1476 718.5 1447.5 c 128,-1,26
 797 1419 797 1419 853 1366.5 c 128,-1,27
 909 1314 909 1314 939.5 1240.5 c 128,-1,28
 970 1167 970 1167 970 1078 c 0,29,30
 970 1006 970 1006 944.5 938 c 128,-1,31
 919 870 919 870 878.5 805 c 128,-1,32
 838 740 838 740 786.5 679 c 128,-1,33
 735 618 735 618 684 560 c 2,34,-1
 277 101 l 1,35,-1
 1043 101 l 1,36,-1
 1043 0 l 1,0,-1
EndSplineSet
EndChar
StartChar: three
Encoding: 51 51 21
Width: 1229
Flags: W
LayerCount: 2
Back
Fore
SplineSet
402 793 m 1,0,-1
 523 793 l 2,1,2
 593 794 593 794 655 813 c 128,-1,3
 717 832 717 832 763.5 868 c 128,-1,4
 810 904 810 904 837 956 c 128,-1,5
 864 1008 864 1008 864 1076 c 0,6,7
 864 1147 864 1147 842 1202.5 c 128,-1,8
 820 1258 820 1258 780 1296 c 128,-1,9
 740 1334 740 1334 683.5 1354 c 128,-1,10
 627 1374 627 1374 558 1374 c 256,11,12
 489 1374 489 1374 431 1352.5 c 128,-1,13
 373 1331 373 1331 330.5 1292 c 128,-1,14
 288 1253 288 1253 263.5 1197.5 c 128,-1,15
 239 1142 239 1142 238 1074 c 1,16,-1
 118 1074 l 1,17,18
 120 1160 120 1160 153.5 1233.5 c 128,-1,19
 187 1307 187 1307 245 1361 c 128,-1,20
 303 1415 303 1415 383 1445.5 c 128,-1,21
 463 1476 463 1476 558 1476 c 0,22,23
 651 1476 651 1476 729 1448.5 c 128,-1,24
 807 1421 807 1421 863.5 1369.5 c 128,-1,25
 920 1318 920 1318 951.5 1243 c 128,-1,26
 983 1168 983 1168 983 1072 c 0,27,28
 983 1018 983 1018 965.5 968.5 c 128,-1,29
 948 919 948 919 915 876.5 c 128,-1,30
 882 834 882 834 835 800.5 c 128,-1,31
 788 767 788 767 730 746 c 1,32,33
 866 708 866 708 938 615.5 c 128,-1,34
 1010 523 1010 523 1010 395 c 0,35,36
 1010 297 1010 297 975.5 220 c 128,-1,37
 941 143 941 143 880.5 90 c 128,-1,38
 820 37 820 37 738.5 8.5 c 128,-1,39
 657 -20 657 -20 563 -20 c 0,40,41
 467 -20 467 -20 383 8.5 c 128,-1,42
 299 37 299 37 236 90.5 c 128,-1,43
 173 144 173 144 136 221 c 128,-1,44
 99 298 99 298 97 395 c 1,45,-1
 216 395 l 1,46,47
 218 323 218 323 245 265 c 128,-1,48
 272 207 272 207 318.5 166 c 128,-1,49
 365 125 365 125 427.5 103 c 128,-1,50
 490 81 490 81 563 81 c 0,51,52
 634 81 634 81 694.5 101 c 128,-1,53
 755 121 755 121 798.5 160 c 128,-1,54
 842 199 842 199 866.5 257 c 128,-1,55
 891 315 891 315 891 391 c 0,56,57
 891 471 891 471 861.5 527.5 c 128,-1,58
 832 584 832 584 782 620 c 128,-1,59
 732 656 732 656 665 673 c 128,-1,60
 598 690 598 690 523 691 c 2,61,-1
 402 691 l 1,62,-1
 402 793 l 1,0,-1
EndSplineSet
EndChar
StartChar: four
Encoding: 52 52 22
Width: 1229
Flags: W
LayerCount: 2
Back
Fore
SplineSet
888 469 m 1,0,-1
 1116 469 l 1,1,-1
 1116 368 l 1,2,-1
 888 368 l 1,3,-1
 888 0 l 1,4,-1
 769 0 l 1,5,-1
 769 368 l 1,6,-1
 84 368 l 1,7,-1
 84 436 l 1,8,-1
 757 1456 l 1,9,-1
 888 1456 l 1,10,-1
 888 469 l 1,0,-1
228 469 m 1,11,-1
 769 469 l 1,12,-1
 769 1305 l 1,13,-1
 712 1204 l 1,14,-1
 228 469 l 1,11,-1
EndSplineSet
EndChar
StartChar: five
Encoding: 53 53 23
Width: 1229
Flags: W
LayerCount: 2
Back
Fore
SplineSet
260 746 m 1,0,-1
 331 1456 l 1,1,-1
 1059 1456 l 1,2,-1
 1059 1340 l 1,3,-1
 433 1340 l 1,4,-1
 383 853 l 1,5,6
 437 890 437 890 507 911.5 c 128,-1,7
 577 933 577 933 657 933 c 0,8,9
 756 933 756 933 836 898.5 c 128,-1,10
 916 864 916 864 972 801.5 c 128,-1,11
 1028 739 1028 739 1058 652.5 c 128,-1,12
 1088 566 1088 566 1088 464 c 0,13,14
 1088 363 1088 363 1062 275 c 128,-1,15
 1036 187 1036 187 982.5 121.5 c 128,-1,16
 929 56 929 56 847.5 18 c 128,-1,17
 766 -20 766 -20 655 -20 c 0,18,19
 564 -20 564 -20 486.5 7 c 128,-1,20
 409 34 409 34 350.5 86 c 128,-1,21
 292 138 292 138 255.5 213 c 128,-1,22
 219 288 219 288 209 383 c 1,23,-1
 325 383 l 1,24,25
 334 312 334 312 360 256 c 128,-1,26
 386 200 386 200 428 161 c 128,-1,27
 470 122 470 122 527 101.5 c 128,-1,28
 584 81 584 81 655 81 c 0,29,30
 735 81 735 81 794 110 c 128,-1,31
 853 139 853 139 892 190.5 c 128,-1,32
 931 242 931 242 949.5 311.5 c 128,-1,33
 968 381 968 381 968 462 c 0,34,35
 968 538 968 538 945.5 604 c 128,-1,36
 923 670 923 670 880 719 c 128,-1,37
 837 768 837 768 775.5 796 c 128,-1,38
 714 824 714 824 636 824 c 0,39,40
 590 824 590 824 551.5 818 c 128,-1,41
 513 812 513 812 479.5 798.5 c 128,-1,42
 446 785 446 785 415.5 765.5 c 128,-1,43
 385 746 385 746 355 719 c 1,44,-1
 260 746 l 1,0,-1
EndSplineSet
EndChar
StartChar: six
Encoding: 54 54 24
Width: 1229
Flags: W
LayerCount: 2
Back
Fore
SplineSet
863 1467 m 1,0,-1
 863 1358 l 1,1,-1
 845 1358 l 2,2,3
 699 1357 699 1357 594 1309 c 128,-1,4
 489 1261 489 1261 420 1180.5 c 128,-1,5
 351 1100 351 1100 315 994 c 128,-1,6
 279 888 279 888 272 773 c 1,7,8
 300 813 300 813 339 847 c 128,-1,9
 378 881 378 881 424.5 905 c 128,-1,10
 471 929 471 929 524 942.5 c 128,-1,11
 577 956 577 956 633 956 c 0,12,13
 738 956 738 956 816.5 915.5 c 128,-1,14
 895 875 895 875 947.5 808.5 c 128,-1,15
 1000 742 1000 742 1026 655.5 c 128,-1,16
 1052 569 1052 569 1052 477 c 0,17,18
 1052 381 1052 381 1024.5 291.5 c 128,-1,19
 997 202 997 202 942.5 133 c 128,-1,20
 888 64 888 64 807.5 22 c 128,-1,21
 727 -20 727 -20 621 -20 c 0,22,23
 507 -20 507 -20 419.5 25.5 c 128,-1,24
 332 71 332 71 272 145.5 c 128,-1,25
 212 220 212 220 181 316 c 128,-1,26
 150 412 150 412 149 514 c 2,27,-1
 149 643 l 2,28,29
 149 747 149 747 165 848.5 c 128,-1,30
 181 950 181 950 215 1041 c 128,-1,31
 249 1132 249 1132 303 1210 c 128,-1,32
 357 1288 357 1288 434 1344.5 c 128,-1,33
 511 1401 511 1401 613 1433.5 c 128,-1,34
 715 1466 715 1466 845 1467 c 2,35,-1
 863 1467 l 1,0,-1
614 853 m 0,36,37
 557 853 557 853 502.5 835 c 128,-1,38
 448 817 448 817 402 785 c 128,-1,39
 356 753 356 753 321.5 707.5 c 128,-1,40
 287 662 287 662 270 607 c 1,41,-1
 270 512 l 2,42,43
 270 418 270 418 296 338.5 c 128,-1,44
 322 259 322 259 368.5 202 c 128,-1,45
 415 145 415 145 479.5 113 c 128,-1,46
 544 81 544 81 621 82 c 0,47,48
 697 82 697 82 755.5 115 c 128,-1,49
 814 148 814 148 853.5 202.5 c 128,-1,50
 893 257 893 257 913.5 327.5 c 128,-1,51
 934 398 934 398 934 473 c 256,52,53
 934 548 934 548 913.5 616.5 c 128,-1,54
 893 685 893 685 852.5 737.5 c 128,-1,55
 812 790 812 790 752.5 821.5 c 128,-1,56
 693 853 693 853 614 853 c 0,36,37
EndSplineSet
EndChar
StartChar: seven
Encoding: 55 55 25
Width: 1229
Flags: W
LayerCount: 2
Back
Fore
SplineSet
1082 1387 m 1,0,-1
 460 0 l 1,1,-1
 335 0 l 1,2,-1
 953 1349 l 1,3,-1
 125 1349 l 1,4,-1
 125 1456 l 1,5,-1
 1082 1456 l 1,6,-1
 1082 1387 l 1,0,-1
EndSplineSet
EndChar
StartChar: eight
Encoding: 56 56 26
Width: 1229
Flags: W
LayerCount: 2
Back
Fore
SplineSet
1066 1081 m 0,0,1
 1066 1022 1066 1022 1047.5 970 c 128,-1,2
 1029 918 1029 918 997 875.5 c 128,-1,3
 965 833 965 833 920.5 800.5 c 128,-1,4
 876 768 876 768 823 747 c 1,5,6
 883 726 883 726 934.5 692 c 128,-1,7
 986 658 986 658 1023.5 612 c 128,-1,8
 1061 566 1061 566 1082 509 c 128,-1,9
 1103 452 1103 452 1103 386 c 0,10,11
 1103 287 1103 287 1066 211 c 128,-1,12
 1029 135 1029 135 965.5 84 c 128,-1,13
 902 33 902 33 818 6.5 c 128,-1,14
 734 -20 734 -20 641 -20 c 0,15,16
 547 -20 547 -20 462.5 6 c 128,-1,17
 378 32 378 32 314.5 83.5 c 128,-1,18
 251 135 251 135 214 211 c 128,-1,19
 177 287 177 287 177 386 c 0,20,21
 177 452 177 452 197.5 509 c 128,-1,22
 218 566 218 566 255 611.5 c 128,-1,23
 292 657 292 657 342.5 691.5 c 128,-1,24
 393 726 393 726 453 747 c 1,25,26
 400 768 400 768 356.5 800.5 c 128,-1,27
 313 833 313 833 281 875.5 c 128,-1,28
 249 918 249 918 231.5 970 c 128,-1,29
 214 1022 214 1022 214 1081 c 0,30,31
 214 1174 214 1174 246.5 1247 c 128,-1,32
 279 1320 279 1320 336 1371 c 128,-1,33
 393 1422 393 1422 470 1449 c 128,-1,34
 547 1476 547 1476 637 1476 c 0,35,36
 726 1476 726 1476 804.5 1449 c 128,-1,37
 883 1422 883 1422 941 1371 c 128,-1,38
 999 1320 999 1320 1032.5 1247 c 128,-1,39
 1066 1174 1066 1174 1066 1081 c 0,0,1
983 385 m 0,40,41
 983 457 983 457 955 515 c 128,-1,42
 927 573 927 573 879.5 613 c 128,-1,43
 832 653 832 653 769.5 674.5 c 128,-1,44
 707 696 707 696 639 696 c 0,45,46
 570 696 570 696 507.5 674.5 c 128,-1,47
 445 653 445 653 398.5 613 c 128,-1,48
 352 573 352 573 324.5 515 c 128,-1,49
 297 457 297 457 297 385 c 0,50,51
 297 311 297 311 324.5 254 c 128,-1,52
 352 197 352 197 398.5 158.5 c 128,-1,53
 445 120 445 120 507.5 100.5 c 128,-1,54
 570 81 570 81 641 81 c 0,55,56
 710 81 710 81 772 101 c 128,-1,57
 834 121 834 121 881 159.5 c 128,-1,58
 928 198 928 198 955.5 254.5 c 128,-1,59
 983 311 983 311 983 385 c 0,40,41
946 1082 m 0,60,61
 946 1147 946 1147 921 1201 c 128,-1,62
 896 1255 896 1255 853.5 1293.5 c 128,-1,63
 811 1332 811 1332 755 1353 c 128,-1,64
 699 1374 699 1374 637 1374 c 0,65,66
 574 1374 574 1374 519 1353.5 c 128,-1,67
 464 1333 464 1333 422.5 1295.5 c 128,-1,68
 381 1258 381 1258 357.5 1203.5 c 128,-1,69
 334 1149 334 1149 334 1082 c 256,70,71
 334 1015 334 1015 358.5 962.5 c 128,-1,72
 383 910 383 910 424.5 873.5 c 128,-1,73
 466 837 466 837 521.5 817.5 c 128,-1,74
 577 798 577 798 639 798 c 256,75,76
 701 798 701 798 756.5 817.5 c 128,-1,77
 812 837 812 837 854 873.5 c 128,-1,78
 896 910 896 910 921 963 c 128,-1,79
 946 1016 946 1016 946 1082 c 0,60,61
EndSplineSet
EndChar
StartChar: nine
Encoding: 57 57 27
Width: 1229
Flags: W
LayerCount: 2
Back
Fore
SplineSet
382 97 m 2,0,1
 535 98 535 98 639.5 144.5 c 128,-1,2
 744 191 744 191 809.5 270 c 128,-1,3
 875 349 875 349 905 454 c 128,-1,4
 935 559 935 559 938 678 c 1,5,6
 912 634 912 634 875.5 597.5 c 128,-1,7
 839 561 839 561 793 534 c 128,-1,8
 747 507 747 507 692 492 c 128,-1,9
 637 477 637 477 573 477 c 0,10,11
 469 477 469 477 391 519.5 c 128,-1,12
 313 562 313 562 260.5 631 c 128,-1,13
 208 700 208 700 181.5 787.5 c 128,-1,14
 155 875 155 875 155 965 c 0,15,16
 155 1063 155 1063 183.5 1154.5 c 128,-1,17
 212 1246 212 1246 267.5 1317.5 c 128,-1,18
 323 1389 323 1389 405 1432 c 128,-1,19
 487 1475 487 1475 595 1476 c 0,20,21
 721 1476 721 1476 808.5 1426.5 c 128,-1,22
 896 1377 896 1377 951.5 1295 c 128,-1,23
 1007 1213 1007 1213 1032.5 1108.5 c 128,-1,24
 1058 1004 1058 1004 1058 895 c 2,25,-1
 1058 779 l 2,26,27
 1058 679 1058 679 1044.5 582 c 128,-1,28
 1031 485 1031 485 1000 397.5 c 128,-1,29
 969 310 969 310 918.5 235.5 c 128,-1,30
 868 161 868 161 793 106.5 c 128,-1,31
 718 52 718 52 616 21 c 128,-1,32
 514 -10 514 -10 382 -11 c 2,33,-1
 355 -11 l 1,34,-1
 356 97 l 1,35,-1
 382 97 l 2,0,1
588 580 m 0,36,37
 648 580 648 580 703.5 599.5 c 128,-1,38
 759 619 759 619 805.5 654.5 c 128,-1,39
 852 690 852 690 886.5 738.5 c 128,-1,40
 921 787 921 787 939 845 c 1,41,-1
 939 906 l 2,42,43
 939 1003 939 1003 917 1088 c 128,-1,44
 895 1173 895 1173 852 1236.5 c 128,-1,45
 809 1300 809 1300 745 1336.5 c 128,-1,46
 681 1373 681 1373 597 1373 c 0,47,48
 519 1373 519 1373 459 1338.5 c 128,-1,49
 399 1304 399 1304 357.5 1248 c 128,-1,50
 316 1192 316 1192 294.5 1119.5 c 128,-1,51
 273 1047 273 1047 273 970 c 0,52,53
 273 898 273 898 293 828 c 128,-1,54
 313 758 313 758 353 703 c 128,-1,55
 393 648 393 648 452 614 c 128,-1,56
 511 580 511 580 588 580 c 0,36,37
EndSplineSet
EndChar
StartChar: less
Encoding: 60 60 30
Width: 1229
Flags: W
LayerCount: 2
Back
Fore
SplineSet
302 656 m 1,0,-1
 1023 356 l 1,1,-1
 1023 230 l 1,2,-1
 166 609 l 1,3,-1
 166 705 l 1,4,-1
 1023 1083 l 1,5,-1
 1023 958 l 1,6,-1
 302 656 l 1,0,-1
EndSplineSet
EndChar
StartChar: equal
Encoding: 61 61 31
Width: 1229
Flags: W
LayerCount: 2
Back
Fore
SplineSet
1066 812 m 1,0,-1
 174 812 l 1,1,-1
 174 918 l 1,2,-1
 1066 918 l 1,3,-1
 1066 812 l 1,0,-1
1066 401 m 1,4,-1
 174 401 l 1,5,-1
 174 507 l 1,6,-1
 1066 507 l 1,7,-1
 1066 401 l 1,4,-1
EndSplineSet
EndChar
StartChar: greater
Encoding: 62 62 32
Width: 1229
Flags: W
LayerCount: 2
Back
Fore
SplineSet
918 660 m 1,0,-1
 183 962 l 1,1,-1
 183 1085 l 1,2,-1
 1057 707 l 1,3,-1
 1057 611 l 1,4,-1
 183 232 l 1,5,-1
 183 355 l 1,6,-1
 918 660 l 1,0,-1
EndSplineSet
EndChar
StartChar: question
Encoding: 63 63 33
Width: 1229
Flags: W
LayerCount: 2
Back
Fore
SplineSet
540 404 m 1,0,1
 541 467 541 467 549.5 513.5 c 128,-1,2
 558 560 558 560 576 599 c 128,-1,3
 594 638 594 638 624.5 673.5 c 128,-1,4
 655 709 655 709 700 750 c 0,5,6
 739 787 739 787 775.5 825.5 c 128,-1,7
 812 864 812 864 841 906.5 c 128,-1,8
 870 949 870 949 887 997 c 128,-1,9
 904 1045 904 1045 904 1102 c 0,10,11
 904 1163 904 1163 885 1213 c 128,-1,12
 866 1263 866 1263 830.5 1297.5 c 128,-1,13
 795 1332 795 1332 744 1351 c 128,-1,14
 693 1370 693 1370 629 1370 c 0,15,16
 570 1370 570 1370 518.5 1353 c 128,-1,17
 467 1336 467 1336 428 1304 c 128,-1,18
 389 1272 389 1272 365.5 1224.5 c 128,-1,19
 342 1177 342 1177 340 1116 c 1,20,-1
 220 1116 l 1,21,22
 223 1198 223 1198 255 1264.5 c 128,-1,23
 287 1331 287 1331 341.5 1378 c 128,-1,24
 396 1425 396 1425 469.5 1450.5 c 128,-1,25
 543 1476 543 1476 629 1476 c 0,26,27
 720 1476 720 1476 793 1449.5 c 128,-1,28
 866 1423 866 1423 917 1374 c 128,-1,29
 968 1325 968 1325 996 1256.5 c 128,-1,30
 1024 1188 1024 1188 1024 1103 c 0,31,32
 1024 1034 1024 1034 1002.5 973.5 c 128,-1,33
 981 913 981 913 946 859.5 c 128,-1,34
 911 806 911 806 865 759.5 c 128,-1,35
 819 713 819 713 771 672 c 0,36,37
 738 642 738 642 717 613 c 128,-1,38
 696 584 696 584 683 551.5 c 128,-1,39
 670 519 670 519 665 483 c 128,-1,40
 660 447 660 447 660 404 c 1,41,-1
 540 404 l 1,0,1
517 72 m 0,42,43
 517 107 517 107 540 131.5 c 128,-1,44
 563 156 563 156 602 156 c 256,45,46
 641 156 641 156 665 131.5 c 128,-1,47
 689 107 689 107 689 72 c 0,48,49
 689 38 689 38 665 15 c 128,-1,50
 641 -8 641 -8 602 -8 c 256,51,52
 563 -8 563 -8 540 15 c 128,-1,53
 517 38 517 38 517 72 c 0,42,43
EndSplineSet
EndChar
StartChar: at
Encoding: 64 64 34
Width: 1229
Flags: W
LayerCount: 2
Back
Fore
SplineSet
1165 775 m 0,0,1
 1163 730 1163 730 1157 677 c 128,-1,2
 1151 624 1151 624 1138.5 571 c 128,-1,3
 1126 518 1126 518 1106.5 469 c 128,-1,4
 1087 420 1087 420 1058 382 c 128,-1,5
 1029 344 1029 344 990 321.5 c 128,-1,6
 951 299 951 299 901 299 c 0,7,8
 864 299 864 299 836 312.5 c 128,-1,9
 808 326 808 326 788.5 348.5 c 128,-1,10
 769 371 769 371 756.5 401 c 128,-1,11
 744 431 744 431 738 464 c 1,12,13
 720 431 720 431 698 401 c 128,-1,14
 676 371 676 371 649.5 348.5 c 128,-1,15
 623 326 623 326 592 312.5 c 128,-1,16
 561 299 561 299 526 299 c 0,17,18
 485 299 485 299 455 316.5 c 128,-1,19
 425 334 425 334 404 363.5 c 128,-1,20
 383 393 383 393 370 432 c 128,-1,21
 357 471 357 471 350 514 c 128,-1,22
 343 557 343 557 342 601 c 128,-1,23
 341 645 341 645 344 685 c 0,24,25
 352 784 352 784 377.5 871 c 128,-1,26
 403 958 403 958 445.5 1022.5 c 128,-1,27
 488 1087 488 1087 548.5 1124.5 c 128,-1,28
 609 1162 609 1162 686 1162 c 0,29,30
 718 1162 718 1162 744 1154 c 128,-1,31
 770 1146 770 1146 791.5 1133.5 c 128,-1,32
 813 1121 813 1121 830.5 1105 c 128,-1,33
 848 1089 848 1089 865 1072 c 1,34,-1
 864 1071 l 1,35,-1
 816 567 l 2,36,37
 814 533 814 533 817 500 c 128,-1,38
 820 467 820 467 830.5 440.5 c 128,-1,39
 841 414 841 414 860 398 c 128,-1,40
 879 382 879 382 909 382 c 0,41,42
 942 382 942 382 967.5 400.5 c 128,-1,43
 993 419 993 419 1012.5 449.5 c 128,-1,44
 1032 480 1032 480 1045 520.5 c 128,-1,45
 1058 561 1058 561 1066 604.5 c 128,-1,46
 1074 648 1074 648 1078 692 c 128,-1,47
 1082 736 1082 736 1083 775 c 0,48,49
 1088 910 1088 910 1065 1020.5 c 128,-1,50
 1042 1131 1042 1131 991 1209.5 c 128,-1,51
 940 1288 940 1288 860.5 1330.5 c 128,-1,52
 781 1373 781 1373 673 1373 c 0,53,54
 570 1373 570 1373 477.5 1326.5 c 128,-1,55
 385 1280 385 1280 314 1192 c 128,-1,56
 243 1104 243 1104 199 975.5 c 128,-1,57
 155 847 155 847 150 684 c 0,58,59
 145 562 145 562 166 452 c 128,-1,60
 187 342 187 342 241.5 259 c 128,-1,61
 296 176 296 176 389 127.5 c 128,-1,62
 482 79 482 79 622 79 c 0,63,64
 653 79 653 79 687.5 84.5 c 128,-1,65
 722 90 722 90 755 99.5 c 128,-1,66
 788 109 788 109 818.5 122.5 c 128,-1,67
 849 136 849 136 873 152 c 1,68,-1
 900 71 l 1,69,70
 873 52 873 52 838.5 36.5 c 128,-1,71
 804 21 804 21 766.5 10.5 c 128,-1,72
 729 0 729 0 691 -5.5 c 128,-1,73
 653 -11 653 -11 619 -11 c 0,74,75
 509 -11 509 -11 423.5 15 c 128,-1,76
 338 41 338 41 275.5 87.5 c 128,-1,77
 213 134 213 134 170.5 198.5 c 128,-1,78
 128 263 128 263 103 340 c 128,-1,79
 78 417 78 417 68.5 504.5 c 128,-1,80
 59 592 59 592 62 684 c 0,81,82
 65 787 65 787 85 885 c 128,-1,83
 105 983 105 983 141 1069.5 c 128,-1,84
 177 1156 177 1156 229 1228.5 c 128,-1,85
 281 1301 281 1301 348.5 1353.5 c 128,-1,86
 416 1406 416 1406 498 1435 c 128,-1,87
 580 1464 580 1464 676 1464 c 0,88,89
 815 1464 815 1464 910 1409 c 128,-1,90
 1005 1354 1005 1354 1063 1260 c 128,-1,91
 1121 1166 1121 1166 1145 1040.5 c 128,-1,92
 1169 915 1169 915 1165 775 c 0,0,1
432 685 m 0,93,94
 430 658 430 658 430 626 c 128,-1,95
 430 594 430 594 433.5 561.5 c 128,-1,96
 437 529 437 529 444.5 499 c 128,-1,97
 452 469 452 469 464.5 445.5 c 128,-1,98
 477 422 477 422 496 408 c 128,-1,99
 515 394 515 394 541 394 c 0,100,101
 576 394 576 394 605 411.5 c 128,-1,102
 634 429 634 429 658 457.5 c 128,-1,103
 682 486 682 486 701.5 523.5 c 128,-1,104
 721 561 721 561 736 600 c 1,105,-1
 780 1040 l 1,106,107
 762 1054 762 1054 740 1063.5 c 128,-1,108
 718 1073 718 1073 688 1073 c 0,109,110
 622 1073 622 1073 576.5 1039 c 128,-1,111
 531 1005 531 1005 501 950 c 128,-1,112
 471 895 471 895 455 825.5 c 128,-1,113
 439 756 439 756 432 685 c 0,93,94
EndSplineSet
EndChar
StartChar: A
Encoding: 65 65 35
Width: 1229
Flags: W
LayerCount: 2
Back
Fore
SplineSet
905 406 m 1,0,-1
 351 406 l 1,1,-1
 222 0 l 1,2,-1
 101 0 l 1,3,-1
 575 1456 l 1,4,-1
 683 1456 l 1,5,-1
 1153 0 l 1,6,-1
 1033 0 l 1,7,-1
 905 406 l 1,0,-1
385 513 m 1,8,-1
 871 513 l 1,9,-1
 629 1279 l 1,10,-1
 385 513 l 1,8,-1
EndSplineSet
Substitution2: "'smcp' Lowercase to Small Capitals lookup 0 subtable" A.smcp
EndChar
StartChar: B
Encoding: 66 66 36
Width: 1229
Flags: W
LayerCount: 2
Back
Fore
SplineSet
194 0 m 1,0,-1
 194 1456 l 1,1,-1
 592 1456 l 2,2,3
 680 1455 680 1455 763.5 1432.5 c 128,-1,4
 847 1410 847 1410 912 1363.5 c 128,-1,5
 977 1317 977 1317 1016.5 1245.5 c 128,-1,6
 1056 1174 1056 1174 1055 1075 c 0,7,8
 1055 1013 1055 1013 1036 963.5 c 128,-1,9
 1017 914 1017 914 984.5 875.5 c 128,-1,10
 952 837 952 837 908 808.5 c 128,-1,11
 864 780 864 780 813 761 c 1,12,13
 876 746 876 746 929.5 715 c 128,-1,14
 983 684 983 684 1022 638.5 c 128,-1,15
 1061 593 1061 593 1083.5 535 c 128,-1,16
 1106 477 1106 477 1106 410 c 0,17,18
 1107 313 1107 313 1070 237.5 c 128,-1,19
 1033 162 1033 162 970 109.5 c 128,-1,20
 907 57 907 57 824.5 29 c 128,-1,21
 742 1 742 1 652 0 c 2,22,-1
 194 0 l 1,0,-1
314 700 m 1,23,-1
 314 104 l 1,24,-1
 655 104 l 2,25,26
 721 105 721 105 781 126.5 c 128,-1,27
 841 148 841 148 886.5 187 c 128,-1,28
 932 226 932 226 958.5 281.5 c 128,-1,29
 985 337 985 337 985 408 c 0,30,31
 985 477 985 477 959.5 530.5 c 128,-1,32
 934 584 934 584 889.5 621 c 128,-1,33
 845 658 845 658 786.5 678 c 128,-1,34
 728 698 728 698 664 700 c 2,35,-1
 314 700 l 1,23,-1
314 803 m 1,36,-1
 607 803 l 2,37,38
 670 804 670 804 729 821 c 128,-1,39
 788 838 788 838 833.5 872 c 128,-1,40
 879 906 879 906 907 957 c 128,-1,41
 935 1008 935 1008 935 1078 c 0,42,43
 935 1151 935 1151 906 1202.5 c 128,-1,44
 877 1254 877 1254 829 1286.5 c 128,-1,45
 781 1319 781 1319 720 1334.5 c 128,-1,46
 659 1350 659 1350 595 1351 c 2,47,-1
 314 1351 l 1,48,-1
 314 803 l 1,36,-1
EndSplineSet
Substitution2: "'smcp' Lowercase to Small Capitals lookup 0 subtable" B.smcp
EndChar
StartChar: C
Encoding: 67 67 37
Width: 1229
Flags: W
LayerCount: 2
Back
Fore
SplineSet
1099 442 m 1,0,1
 1087 344 1087 344 1050 259.5 c 128,-1,2
 1013 175 1013 175 952 112.5 c 128,-1,3
 891 50 891 50 807.5 15 c 128,-1,4
 724 -20 724 -20 620 -20 c 0,5,6
 533 -20 533 -20 462.5 6.5 c 128,-1,7
 392 33 392 33 337.5 79 c 128,-1,8
 283 125 283 125 243 187 c 128,-1,9
 203 249 203 249 177 320.5 c 128,-1,10
 151 392 151 392 138.5 469 c 128,-1,11
 126 546 126 546 125 622 c 2,12,-1
 125 833 l 2,13,14
 126 909 126 909 138.5 986 c 128,-1,15
 151 1063 151 1063 177 1134.5 c 128,-1,16
 203 1206 203 1206 243 1268 c 128,-1,17
 283 1330 283 1330 337.5 1376.5 c 128,-1,18
 392 1423 392 1423 462.5 1449.5 c 128,-1,19
 533 1476 533 1476 620 1476 c 0,20,21
 726 1476 726 1476 809.5 1441 c 128,-1,22
 893 1406 893 1406 954 1343.5 c 128,-1,23
 1015 1281 1015 1281 1051.5 1196 c 128,-1,24
 1088 1111 1088 1111 1099 1011 c 1,25,-1
 980 1011 l 1,26,27
 968 1086 968 1086 941.5 1152 c 128,-1,28
 915 1218 915 1218 871 1267.5 c 128,-1,29
 827 1317 827 1317 765 1345.5 c 128,-1,30
 703 1374 703 1374 620 1374 c 0,31,32
 549 1374 549 1374 494 1350 c 128,-1,33
 439 1326 439 1326 397.5 1286 c 128,-1,34
 356 1246 356 1246 327 1192.5 c 128,-1,35
 298 1139 298 1139 280 1079 c 128,-1,36
 262 1019 262 1019 253.5 956.5 c 128,-1,37
 245 894 245 894 245 835 c 2,38,-1
 245 622 l 2,39,40
 245 563 245 563 253.5 500 c 128,-1,41
 262 437 262 437 280 377 c 128,-1,42
 298 317 298 317 327 263.5 c 128,-1,43
 356 210 356 210 397.5 169.5 c 128,-1,44
 439 129 439 129 494 105 c 128,-1,45
 549 81 549 81 620 81 c 0,46,47
 704 81 704 81 766.5 108.5 c 128,-1,48
 829 136 829 136 872.5 185 c 128,-1,49
 916 234 916 234 942.5 300 c 128,-1,50
 969 366 969 366 980 442 c 1,51,-1
 1099 442 l 1,0,1
EndSplineSet
Substitution2: "'smcp' Lowercase to Small Capitals lookup 0 subtable" C.smcp
EndChar
StartChar: D
Encoding: 68 68 38
Width: 1229
Flags: W
LayerCount: 2
Back
Fore
SplineSet
177 0 m 1,0,-1
 177 1456 l 1,1,-1
 529 1456 l 2,2,3
 669 1454 669 1454 779 1401 c 128,-1,4
 889 1348 889 1348 965 1259 c 128,-1,5
 1041 1170 1041 1170 1081 1051.5 c 128,-1,6
 1121 933 1121 933 1123 799 c 2,7,-1
 1123 656 l 2,8,9
 1121 522 1121 522 1081 403.5 c 128,-1,10
 1041 285 1041 285 965 196 c 128,-1,11
 889 107 889 107 779 54.5 c 128,-1,12
 669 2 669 2 529 0 c 2,13,-1
 177 0 l 1,0,-1
297 1354 m 1,14,-1
 297 101 l 1,15,-1
 529 101 l 2,16,17
 646 103 646 103 734.5 149 c 128,-1,18
 823 195 823 195 882 271.5 c 128,-1,19
 941 348 941 348 971.5 447.5 c 128,-1,20
 1002 547 1002 547 1003 656 c 2,21,-1
 1003 802 l 2,22,23
 1002 910 1002 910 971.5 1009 c 128,-1,24
 941 1108 941 1108 882 1184 c 128,-1,25
 823 1260 823 1260 734.5 1306 c 128,-1,26
 646 1352 646 1352 529 1354 c 2,27,-1
 297 1354 l 1,14,-1
EndSplineSet
Substitution2: "'smcp' Lowercase to Small Capitals lookup 0 subtable" D.smcp
EndChar
StartChar: E
Encoding: 69 69 39
Width: 1229
Flags: W
LayerCount: 2
Back
Fore
SplineSet
962 698 m 1,0,-1
 320 698 l 1,1,-1
 320 104 l 1,2,-1
 1060 104 l 1,3,-1
 1060 0 l 1,4,-1
 201 0 l 1,5,-1
 201 1456 l 1,6,-1
 1056 1456 l 1,7,-1
 1056 1351 l 1,8,-1
 320 1351 l 1,9,-1
 320 802 l 1,10,-1
 962 802 l 1,11,-1
 962 698 l 1,0,-1
EndSplineSet
Substitution2: "'smcp' Lowercase to Small Capitals lookup 0 subtable" E.smcp
EndChar
StartChar: F
Encoding: 70 70 40
Width: 1229
Flags: W
LayerCount: 2
Back
Fore
SplineSet
974 680 m 1,0,-1
 330 680 l 1,1,-1
 330 0 l 1,2,-1
 210 0 l 1,3,-1
 210 1456 l 1,4,-1
 1071 1456 l 1,5,-1
 1071 1351 l 1,6,-1
 330 1351 l 1,7,-1
 330 785 l 1,8,-1
 974 785 l 1,9,-1
 974 680 l 1,0,-1
EndSplineSet
Substitution2: "'smcp' Lowercase to Small Capitals lookup 0 subtable" F.smcp
EndChar
StartChar: G
Encoding: 71 71 41
Width: 1229
Flags: W
LayerCount: 2
Back
Fore
SplineSet
1097 173 m 1,0,1
 1054 122 1054 122 1002 85 c 128,-1,2
 950 48 950 48 891.5 24.5 c 128,-1,3
 833 1 833 1 769 -9.5 c 128,-1,4
 705 -20 705 -20 639 -20 c 0,5,6
 552 -19 552 -19 479.5 7.5 c 128,-1,7
 407 34 407 34 349 80.5 c 128,-1,8
 291 127 291 127 248 189.5 c 128,-1,9
 205 252 205 252 176.5 324 c 128,-1,10
 148 396 148 396 133 474.5 c 128,-1,11
 118 553 118 553 117 631 c 2,12,-1
 117 835 l 2,13,14
 118 911 118 911 131.5 988 c 128,-1,15
 145 1065 145 1065 172.5 1136.5 c 128,-1,16
 200 1208 200 1208 241 1269.5 c 128,-1,17
 282 1331 282 1331 338 1377 c 128,-1,18
 394 1423 394 1423 464.5 1449.5 c 128,-1,19
 535 1476 535 1476 622 1476 c 0,20,21
 719 1476 719 1476 801.5 1444.5 c 128,-1,22
 884 1413 884 1413 946 1356.5 c 128,-1,23
 1008 1300 1008 1300 1046.5 1221 c 128,-1,24
 1085 1142 1085 1142 1095 1046 c 1,25,-1
 977 1046 l 1,26,27
 963 1116 963 1116 934.5 1176 c 128,-1,28
 906 1236 906 1236 862 1279 c 128,-1,29
 818 1322 818 1322 758.5 1346.5 c 128,-1,30
 699 1371 699 1371 623 1371 c 0,31,32
 553 1371 553 1371 497 1347.5 c 128,-1,33
 441 1324 441 1324 398.5 1284.5 c 128,-1,34
 356 1245 356 1245 325.5 1192.5 c 128,-1,35
 295 1140 295 1140 275.5 1080.5 c 128,-1,36
 256 1021 256 1021 247 958.5 c 128,-1,37
 238 896 238 896 237 837 c 2,38,-1
 237 631 l 2,39,40
 238 570 238 570 248.5 506 c 128,-1,41
 259 442 259 442 280 381.5 c 128,-1,42
 301 321 301 321 333 267 c 128,-1,43
 365 213 365 213 409.5 172.5 c 128,-1,44
 454 132 454 132 511 108.5 c 128,-1,45
 568 85 568 85 640 84 c 0,46,47
 685 83 685 83 733 88.5 c 128,-1,48
 781 94 781 94 826.5 108.5 c 128,-1,49
 872 123 872 123 911.5 148 c 128,-1,50
 951 173 951 173 980 211 c 1,51,-1
 981 587 l 1,52,-1
 636 587 l 1,53,-1
 636 691 l 1,54,-1
 1095 691 l 1,55,-1
 1097 173 l 1,0,1
EndSplineSet
Substitution2: "'smcp' Lowercase to Small Capitals lookup 0 subtable" G.smcp
EndChar
StartChar: H
Encoding: 72 72 42
Width: 1229
Flags: W
LayerCount: 2
Back
Fore
SplineSet
1069 0 m 1,0,-1
 956 0 l 1,1,-1
 956 698 l 1,2,-1
 272 698 l 1,3,-1
 272 0 l 1,4,-1
 159 0 l 1,5,-1
 159 1456 l 1,6,-1
 272 1456 l 1,7,-1
 272 802 l 1,8,-1
 956 802 l 1,9,-1
 956 1456 l 1,10,-1
 1069 1456 l 1,11,-1
 1069 0 l 1,0,-1
EndSplineSet
Substitution2: "'smcp' Lowercase to Small Capitals lookup 0 subtable" H.smcp
EndChar
StartChar: I
Encoding: 73 73 43
Width: 1229
Flags: W
LayerCount: 2
Back
Fore
SplineSet
193 1456 m 1,0,-1
 1036 1456 l 1,1,-1
 1036 1348 l 1,2,-1
 671 1348 l 1,3,-1
 671 106 l 1,4,-1
 1036 106 l 1,5,-1
 1036 0 l 1,6,-1
 193 0 l 1,7,-1
 193 106 l 1,8,-1
 547 106 l 1,9,-1
 547 1348 l 1,10,-1
 193 1348 l 1,11,-1
 193 1456 l 1,0,-1
EndSplineSet
Substitution2: "'smcp' Lowercase to Small Capitals lookup 0 subtable" I.smcp
EndChar
StartChar: J
Encoding: 74 74 44
Width: 1229
Flags: W
LayerCount: 2
Back
Fore
SplineSet
902 1456 m 1,0,-1
 1024 1456 l 1,1,-1
 1024 442 l 2,2,3
 1022 344 1022 344 988 260 c 128,-1,4
 954 176 954 176 893.5 114 c 128,-1,5
 833 52 833 52 750 16 c 128,-1,6
 667 -20 667 -20 568 -20 c 256,7,8
 469 -20 469 -20 387.5 10.5 c 128,-1,9
 306 41 306 41 247 97.5 c 128,-1,10
 188 154 188 154 153 233 c 128,-1,11
 118 312 118 312 111 410 c 1,12,-1
 233 410 l 1,13,14
 236 338 236 338 261 277.5 c 128,-1,15
 286 217 286 217 329.5 174 c 128,-1,16
 373 131 373 131 433 107.5 c 128,-1,17
 493 84 493 84 568 84 c 0,18,19
 644 84 644 84 705 113 c 128,-1,20
 766 142 766 142 809.5 191 c 128,-1,21
 853 240 853 240 876.5 305 c 128,-1,22
 900 370 900 370 902 442 c 2,23,-1
 902 1456 l 1,0,-1
EndSplineSet
Substitution2: "'smcp' Lowercase to Small Capitals lookup 0 subtable" J.smcp
EndChar
StartChar: K
Encoding: 75 75 45
Width: 1229
Flags: W
LayerCount: 2
Back
Fore
SplineSet
508 721 m 1,0,-1
 321 522 l 1,1,-1
 321 0 l 1,2,-1
 200 0 l 1,3,-1
 200 1456 l 1,4,-1
 321 1456 l 1,5,-1
 321 677 l 1,6,-1
 500 883 l 1,7,-1
 992 1456 l 1,8,-1
 1141 1456 l 1,9,-1
 589 809 l 1,10,-1
 1181 0 l 1,11,-1
 1035 0 l 1,12,-1
 508 721 l 1,0,-1
EndSplineSet
Substitution2: "'smcp' Lowercase to Small Capitals lookup 0 subtable" K.smcp
EndChar
StartChar: L
Encoding: 76 76 46
Width: 1229
Flags: W
LayerCount: 2
Back
Fore
SplineSet
340 104 m 1,0,-1
 1081 104 l 1,1,-1
 1081 0 l 1,2,-1
 220 0 l 1,3,-1
 220 1456 l 1,4,-1
 340 1456 l 1,5,-1
 340 104 l 1,0,-1
EndSplineSet
Substitution2: "'smcp' Lowercase to Small Capitals lookup 0 subtable" L.smcp
EndChar
StartChar: M
Encoding: 77 77 47
Width: 1229
Flags: W
LayerCount: 2
Back
Fore
SplineSet
321 1456 m 1,0,-1
 614 632 l 1,1,-1
 926 1456 l 1,2,-1
 1083 1456 l 1,3,-1
 1083 0 l 1,4,-1
 966 0 l 1,5,-1
 966 645 l 1,6,-1
 975 1296 l 1,7,-1
 652 438 l 1,8,-1
 574 438 l 1,9,-1
 274 1282 l 1,10,-1
 284 645 l 1,11,-1
 284 0 l 1,12,-1
 167 0 l 1,13,-1
 167 1456 l 1,14,-1
 321 1456 l 1,0,-1
EndSplineSet
Substitution2: "'smcp' Lowercase to Small Capitals lookup 0 subtable" M.smcp
EndChar
StartChar: N
Encoding: 78 78 48
Width: 1229
Flags: W
LayerCount: 2
Back
Fore
SplineSet
1068 0 m 1,0,-1
 949 0 l 1,1,-1
 281 1229 l 1,2,-1
 280 0 l 1,3,-1
 161 0 l 1,4,-1
 161 1456 l 1,5,-1
 280 1456 l 1,6,-1
 948 229 l 1,7,-1
 949 1456 l 1,8,-1
 1068 1456 l 1,9,-1
 1068 0 l 1,0,-1
EndSplineSet
Substitution2: "'smcp' Lowercase to Small Capitals lookup 0 subtable" N.smcp
EndChar
StartChar: O
Encoding: 79 79 49
Width: 1229
Flags: W
LayerCount: 2
Back
Fore
SplineSet
1103 631 m 2,0,1
 1102 557 1102 557 1090 479.5 c 128,-1,2
 1078 402 1078 402 1052.5 329.5 c 128,-1,3
 1027 257 1027 257 988 193.5 c 128,-1,4
 949 130 949 130 895.5 82.5 c 128,-1,5
 842 35 842 35 772 7.5 c 128,-1,6
 702 -20 702 -20 615 -20 c 0,7,8
 529 -20 529 -20 459 7.5 c 128,-1,9
 389 35 389 35 334.5 82.5 c 128,-1,10
 280 130 280 130 240.5 194 c 128,-1,11
 201 258 201 258 175.5 330.5 c 128,-1,12
 150 403 150 403 137.5 480 c 128,-1,13
 125 557 125 557 124 631 c 2,14,-1
 124 823 l 2,15,16
 125 897 125 897 137.5 974.5 c 128,-1,17
 150 1052 150 1052 175 1124.5 c 128,-1,18
 200 1197 200 1197 239.5 1261 c 128,-1,19
 279 1325 279 1325 333 1373 c 128,-1,20
 387 1421 387 1421 456.5 1448.5 c 128,-1,21
 526 1476 526 1476 613 1476 c 256,22,23
 700 1476 700 1476 770 1448.5 c 128,-1,24
 840 1421 840 1421 894.5 1373.5 c 128,-1,25
 949 1326 949 1326 988 1262 c 128,-1,26
 1027 1198 1027 1198 1052.5 1125.5 c 128,-1,27
 1078 1053 1078 1053 1090 975.5 c 128,-1,28
 1102 898 1102 898 1103 823 c 2,29,-1
 1103 631 l 2,0,1
985 825 m 2,30,31
 984 883 984 883 976 946 c 128,-1,32
 968 1009 968 1009 950 1069 c 128,-1,33
 932 1129 932 1129 903.5 1183.5 c 128,-1,34
 875 1238 875 1238 834 1279 c 128,-1,35
 793 1320 793 1320 738 1344 c 128,-1,36
 683 1368 683 1368 613 1368 c 256,37,38
 543 1368 543 1368 488.5 1343.5 c 128,-1,39
 434 1319 434 1319 393 1278 c 128,-1,40
 352 1237 352 1237 323.5 1182.5 c 128,-1,41
 295 1128 295 1128 277 1068 c 128,-1,42
 259 1008 259 1008 251 945 c 128,-1,43
 243 882 243 882 242 825 c 2,44,-1
 242 631 l 2,45,46
 243 573 243 573 251.5 510.5 c 128,-1,47
 260 448 260 448 278 387.5 c 128,-1,48
 296 327 296 327 324.5 272.5 c 128,-1,49
 353 218 353 218 394 177 c 128,-1,50
 435 136 435 136 490 111.5 c 128,-1,51
 545 87 545 87 615 87 c 0,52,53
 686 87 686 87 740.5 111.5 c 128,-1,54
 795 136 795 136 836 177 c 128,-1,55
 877 218 877 218 905.5 272.5 c 128,-1,56
 934 327 934 327 951.5 387.5 c 128,-1,57
 969 448 969 448 976.5 510.5 c 128,-1,58
 984 573 984 573 985 631 c 2,59,-1
 985 825 l 2,30,31
EndSplineSet
Substitution2: "'smcp' Lowercase to Small Capitals lookup 0 subtable" O.smcp
EndChar
StartChar: P
Encoding: 80 80 50
Width: 1229
Flags: W
LayerCount: 2
Back
Fore
SplineSet
336 600 m 1,0,-1
 336 0 l 1,1,-1
 216 0 l 1,2,-1
 216 1456 l 1,3,-1
 674 1456 l 2,4,5
 770 1454 770 1454 853.5 1424 c 128,-1,6
 937 1394 937 1394 999.5 1338.5 c 128,-1,7
 1062 1283 1062 1283 1098 1204 c 128,-1,8
 1134 1125 1134 1125 1134 1025 c 256,9,10
 1134 925 1134 925 1098 846.5 c 128,-1,11
 1062 768 1062 768 999.5 713.5 c 128,-1,12
 937 659 937 659 853 630 c 128,-1,13
 769 601 769 601 674 600 c 2,14,-1
 336 600 l 1,0,-1
336 701 m 1,15,-1
 674 701 l 2,16,17
 746 702 746 702 808 725 c 128,-1,18
 870 748 870 748 916 789 c 128,-1,19
 962 830 962 830 988.5 889 c 128,-1,20
 1015 948 1015 948 1015 1023 c 256,21,22
 1015 1098 1015 1098 989 1159 c 128,-1,23
 963 1220 963 1220 917 1262.5 c 128,-1,24
 871 1305 871 1305 809 1328.5 c 128,-1,25
 747 1352 747 1352 674 1354 c 2,26,-1
 336 1354 l 1,27,-1
 336 701 l 1,15,-1
EndSplineSet
Substitution2: "'smcp' Lowercase to Small Capitals lookup 0 subtable" P.smcp
EndChar
StartChar: Q
Encoding: 81 81 51
Width: 1229
Flags: W
LayerCount: 2
Back
Fore
SplineSet
1127 640 m 2,0,1
 1126 557 1126 557 1111 472.5 c 128,-1,2
 1096 388 1096 388 1065 310.5 c 128,-1,3
 1034 233 1034 233 986.5 167.5 c 128,-1,4
 939 102 939 102 874 57 c 1,5,-1
 1124 -178 l 1,6,-1
 1041 -254 l 1,7,-1
 765 3 l 1,8,9
 732 -8 732 -8 695.5 -14 c 128,-1,10
 659 -20 659 -20 618 -20 c 0,11,12
 529 -20 529 -20 456.5 7.5 c 128,-1,13
 384 35 384 35 327.5 82.5 c 128,-1,14
 271 130 271 130 229.5 194.5 c 128,-1,15
 188 259 188 259 161 332 c 128,-1,16
 134 405 134 405 120.5 484 c 128,-1,17
 107 563 107 563 106 640 c 2,18,-1
 106 814 l 2,19,20
 107 891 107 891 120 970 c 128,-1,21
 133 1049 133 1049 160 1123 c 128,-1,22
 187 1197 187 1197 228.5 1261 c 128,-1,23
 270 1325 270 1325 326.5 1373 c 128,-1,24
 383 1421 383 1421 455 1448.5 c 128,-1,25
 527 1476 527 1476 616 1476 c 256,26,27
 705 1476 705 1476 777.5 1448.5 c 128,-1,28
 850 1421 850 1421 906.5 1373.5 c 128,-1,29
 963 1326 963 1326 1004 1261.5 c 128,-1,30
 1045 1197 1045 1197 1072.5 1123.5 c 128,-1,31
 1100 1050 1100 1050 1113 970.5 c 128,-1,32
 1126 891 1126 891 1127 814 c 2,33,-1
 1127 640 l 2,0,1
1008 816 m 2,34,35
 1007 877 1007 877 998.5 942 c 128,-1,36
 990 1007 990 1007 970.5 1068 c 128,-1,37
 951 1129 951 1129 921 1183.5 c 128,-1,38
 891 1238 891 1238 847.5 1279 c 128,-1,39
 804 1320 804 1320 746.5 1344 c 128,-1,40
 689 1368 689 1368 616 1368 c 256,41,42
 543 1368 543 1368 486.5 1344 c 128,-1,43
 430 1320 430 1320 386.5 1279 c 128,-1,44
 343 1238 343 1238 313 1183 c 128,-1,45
 283 1128 283 1128 263.5 1067 c 128,-1,46
 244 1006 244 1006 235 941.5 c 128,-1,47
 226 877 226 877 225 816 c 2,48,-1
 225 640 l 2,49,50
 226 579 226 579 235 514.5 c 128,-1,51
 244 450 244 450 263.5 388.5 c 128,-1,52
 283 327 283 327 313.5 272.5 c 128,-1,53
 344 218 344 218 387 176.5 c 128,-1,54
 430 135 430 135 487.5 111 c 128,-1,55
 545 87 545 87 618 87 c 256,56,57
 691 87 691 87 748.5 111 c 128,-1,58
 806 135 806 135 849.5 176 c 128,-1,59
 893 217 893 217 922.5 272 c 128,-1,60
 952 327 952 327 971 388.5 c 128,-1,61
 990 450 990 450 998.5 514.5 c 128,-1,62
 1007 579 1007 579 1008 640 c 2,63,-1
 1008 816 l 2,34,35
EndSplineSet
Substitution2: "'smcp' Lowercase to Small Capitals lookup 0 subtable" Q.smcp
EndChar
StartChar: R
Encoding: 82 82 52
Width: 1229
Flags: W
LayerCount: 2
Back
Fore
SplineSet
682 609 m 1,0,-1
 322 609 l 1,1,-1
 322 0 l 1,2,-1
 204 0 l 1,3,-1
 204 1456 l 1,4,-1
 615 1456 l 2,5,6
 711 1454 711 1454 796 1425 c 128,-1,7
 881 1396 881 1396 944.5 1341.5 c 128,-1,8
 1008 1287 1008 1287 1044.5 1208 c 128,-1,9
 1081 1129 1081 1129 1081 1027 c 0,10,11
 1081 954 1081 954 1059.5 894 c 128,-1,12
 1038 834 1038 834 1000 785.5 c 128,-1,13
 962 737 962 737 909.5 700 c 128,-1,14
 857 663 857 663 794 637 c 1,15,-1
 1126 13 l 1,16,-1
 1126 0 l 1,17,-1
 1001 0 l 1,18,-1
 682 609 l 1,0,-1
322 710 m 1,19,-1
 639 710 l 2,20,21
 707 712 707 712 766 736 c 128,-1,22
 825 760 825 760 868.5 801.5 c 128,-1,23
 912 843 912 843 936.5 901 c 128,-1,24
 961 959 961 959 961 1028 c 0,25,26
 961 1105 961 1105 934 1165 c 128,-1,27
 907 1225 907 1225 860.5 1266.5 c 128,-1,28
 814 1308 814 1308 750.5 1330 c 128,-1,29
 687 1352 687 1352 614 1354 c 2,30,-1
 322 1354 l 1,31,-1
 322 710 l 1,19,-1
EndSplineSet
Substitution2: "'smcp' Lowercase to Small Capitals lookup 0 subtable" R.smcp
EndChar
StartChar: S
Encoding: 83 83 53
Width: 1229
Flags: W
LayerCount: 2
Back
Fore
SplineSet
990 358 m 0,0,1
 990 409 990 409 974.5 449.5 c 128,-1,2
 959 490 959 490 931.5 522 c 128,-1,3
 904 554 904 554 868 578.5 c 128,-1,4
 832 603 832 603 791 622 c 128,-1,5
 750 641 750 641 707 656 c 128,-1,6
 664 671 664 671 624 684 c 0,7,8
 573 700 573 700 520.5 719.5 c 128,-1,9
 468 739 468 739 418.5 764.5 c 128,-1,10
 369 790 369 790 325.5 822.5 c 128,-1,11
 282 855 282 855 249.5 896 c 128,-1,12
 217 937 217 937 198.5 987.5 c 128,-1,13
 180 1038 180 1038 180 1100 c 0,14,15
 180 1191 180 1191 220.5 1261 c 128,-1,16
 261 1331 261 1331 326 1379 c 128,-1,17
 391 1427 391 1427 472.5 1451.5 c 128,-1,18
 554 1476 554 1476 637 1476 c 0,19,20
 730 1476 730 1476 814 1445.5 c 128,-1,21
 898 1415 898 1415 961.5 1360 c 128,-1,22
 1025 1305 1025 1305 1063 1226.5 c 128,-1,23
 1101 1148 1101 1148 1104 1052 c 1,24,-1
 983 1052 l 1,25,26
 975 1123 975 1123 948 1181.5 c 128,-1,27
 921 1240 921 1240 876 1282 c 128,-1,28
 831 1324 831 1324 770.5 1347.5 c 128,-1,29
 710 1371 710 1371 637 1371 c 0,30,31
 576 1371 576 1371 516.5 1354.5 c 128,-1,32
 457 1338 457 1338 409.5 1304.5 c 128,-1,33
 362 1271 362 1271 332.5 1220.5 c 128,-1,34
 303 1170 303 1170 303 1102 c 0,35,36
 303 1029 303 1029 337.5 978 c 128,-1,37
 372 927 372 927 425 892 c 128,-1,38
 478 857 478 857 541.5 833.5 c 128,-1,39
 605 810 605 810 662 793 c 0,40,41
 715 777 715 777 769 756.5 c 128,-1,42
 823 736 823 736 873.5 709 c 128,-1,43
 924 682 924 682 968 648.5 c 128,-1,44
 1012 615 1012 615 1044.5 572 c 128,-1,45
 1077 529 1077 529 1095.5 476.5 c 128,-1,46
 1114 424 1114 424 1114 360 c 0,47,48
 1114 264 1114 264 1072.5 193 c 128,-1,49
 1031 122 1031 122 965 74.5 c 128,-1,50
 899 27 899 27 815 3.5 c 128,-1,51
 731 -20 731 -20 645 -20 c 0,52,53
 549 -20 549 -20 459 8 c 128,-1,54
 369 36 369 36 298.5 90 c 128,-1,55
 228 144 228 144 184 223.5 c 128,-1,56
 140 303 140 303 137 405 c 1,57,-1
 258 405 l 1,58,59
 267 327 267 327 299.5 266.5 c 128,-1,60
 332 206 332 206 383 165.5 c 128,-1,61
 434 125 434 125 501 104.5 c 128,-1,62
 568 84 568 84 645 84 c 0,63,64
 709 84 709 84 770.5 100 c 128,-1,65
 832 116 832 116 881 149.5 c 128,-1,66
 930 183 930 183 960 234.5 c 128,-1,67
 990 286 990 286 990 358 c 0,0,1
EndSplineSet
Substitution2: "'smcp' Lowercase to Small Capitals lookup 0 subtable" S.smcp
EndChar
StartChar: T
Encoding: 84 84 54
Width: 1229
Flags: W
LayerCount: 2
Back
Fore
SplineSet
1139 1351 m 1,0,-1
 675 1351 l 1,1,-1
 675 0 l 1,2,-1
 558 0 l 1,3,-1
 559 1351 l 1,4,-1
 94 1351 l 1,5,-1
 94 1456 l 1,6,-1
 1139 1456 l 1,7,-1
 1139 1351 l 1,0,-1
EndSplineSet
Substitution2: "'smcp' Lowercase to Small Capitals lookup 0 subtable" T.smcp
EndChar
StartChar: U
Encoding: 85 85 55
Width: 1229
Flags: W
LayerCount: 2
Back
Fore
SplineSet
1071 1456 m 1,0,-1
 1072 469 l 2,1,2
 1070 370 1070 370 1037.5 281 c 128,-1,3
 1005 192 1005 192 946 125.5 c 128,-1,4
 887 59 887 59 803 19.5 c 128,-1,5
 719 -20 719 -20 615 -20 c 0,6,7
 510 -20 510 -20 426 19 c 128,-1,8
 342 58 342 58 283 125 c 128,-1,9
 224 192 224 192 191 281 c 128,-1,10
 158 370 158 370 157 469 c 2,11,-1
 159 1456 l 1,12,-1
 272 1456 l 1,13,-1
 275 469 l 2,14,15
 276 394 276 394 299 324.5 c 128,-1,16
 322 255 322 255 365 201.5 c 128,-1,17
 408 148 408 148 471 116 c 128,-1,18
 534 84 534 84 615 84 c 256,19,20
 696 84 696 84 758.5 116 c 128,-1,21
 821 148 821 148 863.5 201.5 c 128,-1,22
 906 255 906 255 928.5 324.5 c 128,-1,23
 951 394 951 394 953 469 c 2,24,-1
 955 1456 l 1,25,-1
 1071 1456 l 1,0,-1
EndSplineSet
Substitution2: "'smcp' Lowercase to Small Capitals lookup 0 subtable" U.smcp
EndChar
StartChar: W
Encoding: 87 87 57
Width: 1229
Flags: W
LayerCount: 2
Back
Fore
SplineSet
348 330 m 1,0,-1
 356 228 l 1,1,-1
 368 330 l 1,2,-1
 580 1456 l 1,3,-1
 684 1456 l 1,4,-1
 896 330 l 1,5,-1
 908 225 l 1,6,-1
 917 330 l 1,7,-1
 1066 1456 l 1,8,-1
 1178 1456 l 1,9,-1
 973 0 l 1,10,-1
 854 0 l 1,11,-1
 632 1214 l 1,12,-1
 409 0 l 1,13,-1
 290 0 l 1,14,-1
 85 1456 l 1,15,-1
 198 1456 l 1,16,-1
 348 330 l 1,0,-1
EndSplineSet
Substitution2: "'smcp' Lowercase to Small Capitals lookup 0 subtable" W.smcp
EndChar
StartChar: X
Encoding: 88 88 58
Width: 1229
Flags: W
LayerCount: 2
Back
Fore
SplineSet
629 834 m 1,0,-1
 998 1456 l 1,1,-1
 1139 1456 l 1,2,-1
 700 738 l 1,3,-1
 1153 0 l 1,4,-1
 1013 0 l 1,5,-1
 631 642 l 1,6,-1
 248 0 l 1,7,-1
 107 0 l 1,8,-1
 560 738 l 1,9,-1
 121 1456 l 1,10,-1
 262 1456 l 1,11,-1
 629 834 l 1,0,-1
EndSplineSet
Substitution2: "'smcp' Lowercase to Small Capitals lookup 0 subtable" X.smcp
EndChar
StartChar: Y
Encoding: 89 89 59
Width: 1229
Flags: W
LayerCount: 2
Back
Fore
SplineSet
600 662 m 1,0,-1
 989 1456 l 1,1,-1
 1125 1456 l 1,2,-1
 658 548 l 1,3,-1
 656 0 l 1,4,-1
 544 0 l 1,5,-1
 542 548 l 1,6,-1
 75 1456 l 1,7,-1
 214 1456 l 1,8,-1
 600 662 l 1,0,-1
EndSplineSet
Substitution2: "'smcp' Lowercase to Small Capitals lookup 0 subtable" Y.smcp
EndChar
StartChar: backslash
Encoding: 92 92 62
Width: 1229
Flags: W
LayerCount: 2
Back
Fore
SplineSet
256 1456 m 1,0,-1
 369 1456 l 1,1,-1
 977 -125 l 1,2,-1
 864 -125 l 1,3,-1
 256 1456 l 1,0,-1
EndSplineSet
EndChar
StartChar: bracketright
Encoding: 93 93 63
Width: 1229
Flags: W
LayerCount: 2
Back
Fore
SplineSet
430 1664 m 1,0,-1
 776 1664 l 1,1,-1
 776 -312 l 1,2,-1
 430 -312 l 1,3,-1
 430 -210 l 1,4,-1
 660 -210 l 1,5,-1
 660 1562 l 1,6,-1
 430 1562 l 1,7,-1
 430 1664 l 1,0,-1
EndSplineSet
EndChar
StartChar: asciicircum
Encoding: 94 94 64
Width: 1229
Flags: W
LayerCount: 2
Back
Fore
SplineSet
361 667 m 1,0,-1
 245 667 l 1,1,-1
 570 1456 l 1,2,-1
 659 1456 l 1,3,-1
 983 667 l 1,4,-1
 867 667 l 1,5,-1
 614 1293 l 1,6,-1
 613 1295 l 1,7,-1
 613 1293 l 1,8,-1
 361 667 l 1,0,-1
EndSplineSet
EndChar
StartChar: underscore
Encoding: 95 95 65
Width: 1229
Flags: W
LayerCount: 2
Back
Fore
SplineSet
1054 -101 m 1,0,-1
 173 -101 l 1,1,-1
 173 0 l 1,2,-1
 1054 0 l 1,3,-1
 1054 -101 l 1,0,-1
EndSplineSet
EndChar
StartChar: grave
Encoding: 96 96 66
Width: 1229
Flags: W
LayerCount: 2
Back
Fore
SplineSet
775 1232 m 1,0,-1
 671 1232 l 1,1,-1
 453 1498 l 1,2,-1
 597 1498 l 1,3,-1
 775 1232 l 1,0,-1
EndSplineSet
EndChar
StartChar: a
Encoding: 97 97 67
Width: 1229
Flags: W
LayerCount: 2
Back
Fore
SplineSet
937 0 m 1,0,1
 926 33 926 33 920 73.5 c 128,-1,2
 914 114 914 114 912 156 c 1,3,4
 881 118 881 118 840 86 c 128,-1,5
 799 54 799 54 750.5 30.5 c 128,-1,6
 702 7 702 7 646 -6.5 c 128,-1,7
 590 -20 590 -20 529 -20 c 0,8,9
 453 -20 453 -20 387.5 2 c 128,-1,10
 322 24 322 24 273.5 64 c 128,-1,11
 225 104 225 104 197.5 160.5 c 128,-1,12
 170 217 170 217 170 287 c 0,13,14
 170 380 170 380 211 445 c 128,-1,15
 252 510 252 510 322 550.5 c 128,-1,16
 392 591 392 591 484 610 c 128,-1,17
 576 629 576 629 677 629 c 2,18,-1
 911 629 l 1,19,-1
 911 752 l 2,20,21
 910 813 910 813 887 859.5 c 128,-1,22
 864 906 864 906 824.5 937.5 c 128,-1,23
 785 969 785 969 730.5 985 c 128,-1,24
 676 1001 676 1001 612 1001 c 0,25,26
 554 1001 554 1001 501.5 986 c 128,-1,27
 449 971 449 971 408.5 943 c 128,-1,28
 368 915 368 915 343 874.5 c 128,-1,29
 318 834 318 834 316 783 c 1,30,-1
 196 784 l 1,31,32
 199 853 199 853 232.5 911 c 128,-1,33
 266 969 266 969 323 1011.5 c 128,-1,34
 380 1054 380 1054 455.5 1078 c 128,-1,35
 531 1102 531 1102 617 1102 c 256,36,37
 703 1102 703 1102 778.5 1080 c 128,-1,38
 854 1058 854 1058 909.5 1014 c 128,-1,39
 965 970 965 970 997.5 904 c 128,-1,40
 1030 838 1030 838 1031 750 c 2,41,-1
 1031 226 l 2,42,43
 1031 172 1031 172 1040.5 117 c 128,-1,44
 1050 62 1050 62 1064 12 c 1,45,-1
 1065 0 l 1,46,-1
 937 0 l 1,0,1
542 86 m 0,47,48
 605 85 605 85 662.5 101 c 128,-1,49
 720 117 720 117 768 145.5 c 128,-1,50
 816 174 816 174 853 213.5 c 128,-1,51
 890 253 890 253 911 300 c 1,52,-1
 911 537 l 1,53,-1
 693 537 l 2,54,55
 614 537 614 537 541 525 c 128,-1,56
 468 513 468 513 412 485.5 c 128,-1,57
 356 458 356 458 322.5 412 c 128,-1,58
 289 366 289 366 289 297 c 0,59,60
 289 248 289 248 309 209 c 128,-1,61
 329 170 329 170 363 142.5 c 128,-1,62
 397 115 397 115 443 100.5 c 128,-1,63
 489 86 489 86 542 86 c 0,47,48
EndSplineSet
Substitution2: "'smcp' Lowercase to Small Capitals lookup 0 subtable" A.smcp
EndChar
StartChar: b
Encoding: 98 98 68
Width: 1229
Flags: W
LayerCount: 2
Back
Fore
SplineSet
1072 530 m 2,0,1
 1072 425 1072 425 1046.5 325.5 c 128,-1,2
 1021 226 1021 226 968.5 149.5 c 128,-1,3
 916 73 916 73 836 26.5 c 128,-1,4
 756 -20 756 -20 646 -20 c 0,5,6
 542 -20 542 -20 457.5 22.5 c 128,-1,7
 373 65 373 65 316 145 c 1,8,-1
 311 0 l 1,9,-1
 199 0 l 1,10,-1
 199 1536 l 1,11,-1
 319 1536 l 1,12,-1
 319 931 l 1,13,14
 374 1012 374 1012 456.5 1057 c 128,-1,15
 539 1102 539 1102 644 1102 c 0,16,17
 755 1102 755 1102 836 1056.5 c 128,-1,18
 917 1011 917 1011 969 934.5 c 128,-1,19
 1021 858 1021 858 1046.5 758.5 c 128,-1,20
 1072 659 1072 659 1072 551 c 2,21,-1
 1072 530 l 2,0,1
951 551 m 2,22,23
 951 632 951 632 934 712 c 128,-1,24
 917 792 917 792 879 855.5 c 128,-1,25
 841 919 841 919 777.5 958.5 c 128,-1,26
 714 998 714 998 621 998 c 0,27,28
 567 998 567 998 520 982 c 128,-1,29
 473 966 473 966 434.5 938 c 128,-1,30
 396 910 396 910 367 870.5 c 128,-1,31
 338 831 338 831 319 785 c 1,32,-1
 319 280 l 1,33,34
 339 236 339 236 369.5 199.5 c 128,-1,35
 400 163 400 163 439.5 137.5 c 128,-1,36
 479 112 479 112 525.5 98 c 128,-1,37
 572 84 572 84 623 84 c 0,38,39
 714 84 714 84 776.5 123 c 128,-1,40
 839 162 839 162 877.5 225.5 c 128,-1,41
 916 289 916 289 933.5 369 c 128,-1,42
 951 449 951 449 951 530 c 2,43,-1
 951 551 l 2,22,23
EndSplineSet
Substitution2: "'smcp' Lowercase to Small Capitals lookup 0 subtable" B.smcp
EndChar
StartChar: c
Encoding: 99 99 69
Width: 1229
Flags: W
LayerCount: 2
Back
Fore
SplineSet
632 81 m 0,0,1
 692 81 692 81 746.5 98.5 c 128,-1,2
 801 116 801 116 843 149 c 128,-1,3
 885 182 885 182 911.5 228.5 c 128,-1,4
 938 275 938 275 942 334 c 1,5,-1
 1057 334 l 1,6,7
 1053 257 1053 257 1017 192 c 128,-1,8
 981 127 981 127 923 80 c 128,-1,9
 865 33 865 33 790 6.5 c 128,-1,10
 715 -20 715 -20 632 -20 c 0,11,12
 513 -20 513 -20 425 25 c 128,-1,13
 337 70 337 70 278.5 145 c 128,-1,14
 220 220 220 220 190.5 317.5 c 128,-1,15
 161 415 161 415 161 520 c 2,16,-1
 161 562 l 2,17,18
 161 667 161 667 190.5 764.5 c 128,-1,19
 220 862 220 862 278.5 937 c 128,-1,20
 337 1012 337 1012 425 1057 c 128,-1,21
 513 1102 513 1102 631 1102 c 0,22,23
 721 1102 721 1102 797.5 1073.5 c 128,-1,24
 874 1045 874 1045 930.5 993.5 c 128,-1,25
 987 942 987 942 1020 871.5 c 128,-1,26
 1053 801 1053 801 1057 717 c 1,27,-1
 942 717 l 1,28,29
 939 778 939 778 914 830 c 128,-1,30
 889 882 889 882 848 920 c 128,-1,31
 807 958 807 958 751.5 979 c 128,-1,32
 696 1000 696 1000 631 1000 c 0,33,34
 537 1000 537 1000 470.5 962 c 128,-1,35
 404 924 404 924 362 862 c 128,-1,36
 320 800 320 800 300.5 721.5 c 128,-1,37
 281 643 281 643 281 562 c 2,38,-1
 281 520 l 2,39,40
 281 438 281 438 300.5 359 c 128,-1,41
 320 280 320 280 362 218.5 c 128,-1,42
 404 157 404 157 470.5 119 c 128,-1,43
 537 81 537 81 632 81 c 0,0,1
EndSplineSet
Substitution2: "'smcp' Lowercase to Small Capitals lookup 0 subtable" C.smcp
EndChar
StartChar: d
Encoding: 100 100 70
Width: 1229
Flags: W
LayerCount: 2
Back
Fore
SplineSet
157 551 m 2,0,1
 157 659 157 659 184 758.5 c 128,-1,2
 211 858 211 858 264.5 934.5 c 128,-1,3
 318 1011 318 1011 398.5 1056.5 c 128,-1,4
 479 1102 479 1102 588 1102 c 0,5,6
 691 1102 691 1102 772.5 1058 c 128,-1,7
 854 1014 854 1014 909 935 c 1,8,-1
 909 1536 l 1,9,-1
 1028 1536 l 1,10,-1
 1028 0 l 1,11,-1
 916 0 l 1,12,-1
 911 141 l 1,13,14
 854 63 854 63 771 21.5 c 128,-1,15
 688 -20 688 -20 586 -20 c 0,16,17
 479 -20 479 -20 398.5 26.5 c 128,-1,18
 318 73 318 73 264.5 149.5 c 128,-1,19
 211 226 211 226 184 325.5 c 128,-1,20
 157 425 157 425 157 530 c 2,21,-1
 157 551 l 2,0,1
278 530 m 2,22,23
 278 449 278 449 295.5 369 c 128,-1,24
 313 289 313 289 352 225.5 c 128,-1,25
 391 162 391 162 454 123 c 128,-1,26
 517 84 517 84 608 84 c 0,27,28
 659 84 659 84 704.5 97 c 128,-1,29
 750 110 750 110 788.5 134.5 c 128,-1,30
 827 159 827 159 857.5 193.5 c 128,-1,31
 888 228 888 228 909 271 c 1,32,-1
 909 795 l 1,33,34
 889 840 889 840 859.5 877 c 128,-1,35
 830 914 830 914 792 941 c 128,-1,36
 754 968 754 968 708 983 c 128,-1,37
 662 998 662 998 610 998 c 0,38,39
 518 998 518 998 455 958.5 c 128,-1,40
 392 919 392 919 352.5 855.5 c 128,-1,41
 313 792 313 792 295.5 712 c 128,-1,42
 278 632 278 632 278 551 c 2,43,-1
 278 530 l 2,22,23
EndSplineSet
Substitution2: "'smcp' Lowercase to Small Capitals lookup 0 subtable" D.smcp
EndChar
StartChar: e
Encoding: 101 101 71
Width: 1229
Flags: W
LayerCount: 2
Back
Fore
SplineSet
655 -20 m 0,0,1
 542 -20 542 -20 449 22 c 128,-1,2
 356 64 356 64 289.5 136 c 128,-1,3
 223 208 223 208 186.5 304.5 c 128,-1,4
 150 401 150 401 149 510 c 2,5,-1
 149 553 l 2,6,7
 150 669 150 669 187.5 769 c 128,-1,8
 225 869 225 869 290 943 c 128,-1,9
 355 1017 355 1017 443 1059.5 c 128,-1,10
 531 1102 531 1102 632 1102 c 0,11,12
 740 1102 740 1102 823 1063 c 128,-1,13
 906 1024 906 1024 962.5 956.5 c 128,-1,14
 1019 889 1019 889 1048.5 799 c 128,-1,15
 1078 709 1078 709 1079 606 c 2,16,-1
 1079 533 l 1,17,-1
 269 533 l 1,18,-1
 269 510 l 2,19,20
 270 425 270 425 298 347.5 c 128,-1,21
 326 270 326 270 377 211 c 128,-1,22
 428 152 428 152 500 116.5 c 128,-1,23
 572 81 572 81 660 81 c 0,24,25
 760 80 760 80 841 118 c 128,-1,26
 922 156 922 156 979 228 c 1,27,-1
 1055 171 l 1,28,29
 1025 129 1025 129 984 93.5 c 128,-1,30
 943 58 943 58 892.5 33 c 128,-1,31
 842 8 842 8 782 -6 c 128,-1,32
 722 -20 722 -20 655 -20 c 0,0,1
632 1000 m 0,33,34
 559 1000 559 1000 498 972.5 c 128,-1,35
 437 945 437 945 391 896 c 128,-1,36
 345 847 345 847 315 780.5 c 128,-1,37
 285 714 285 714 274 635 c 1,38,-1
 959 635 l 1,39,-1
 959 648 l 2,40,41
 957 715 957 715 934.5 778.5 c 128,-1,42
 912 842 912 842 870.5 891 c 128,-1,43
 829 940 829 940 769 970 c 128,-1,44
 709 1000 709 1000 632 1000 c 0,33,34
EndSplineSet
Substitution2: "'smcp' Lowercase to Small Capitals lookup 0 subtable" E.smcp
EndChar
StartChar: f
Encoding: 102 102 72
Width: 1230
Flags: W
LayerCount: 2
Back
Fore
SplineSet
1028 984 m 1,0,-1
 597 984 l 1,1,-1
 599 0 l 1,2,-1
 475 0 l 1,3,-1
 476 984 l 1,4,-1
 181 984 l 1,5,-1
 181 1082 l 1,6,-1
 477 1082 l 1,7,-1
 477 1168 l 2,8,9
 478 1279 478 1279 511.5 1355 c 128,-1,10
 545 1431 545 1431 602.5 1478.5 c 128,-1,11
 660 1526 660 1526 736.5 1546.5 c 128,-1,12
 813 1567 813 1567 900 1567 c 0,13,14
 957 1567 957 1567 1011 1560 c 128,-1,15
 1065 1553 1065 1553 1121 1540 c 1,16,-1
 1106 1438 l 1,17,18
 1064 1449 1064 1449 1015 1456 c 128,-1,19
 966 1463 966 1463 912 1463 c 0,20,21
 847 1463 847 1463 790.5 1449 c 128,-1,22
 734 1435 734 1435 691 1401.5 c 128,-1,23
 648 1368 648 1368 623 1311 c 128,-1,24
 598 1254 598 1254 597 1168 c 2,25,-1
 597 1082 l 1,26,-1
 1028 1082 l 1,27,-1
 1028 984 l 1,0,-1
EndSplineSet
Substitution2: "'smcp' Lowercase to Small Capitals lookup 0 subtable" F.smcp
EndChar
StartChar: g
Encoding: 103 103 73
Width: 1229
Flags: W
LayerCount: 2
Back
Fore
SplineSet
159 551 m 2,0,1
 159 659 159 659 185 758.5 c 128,-1,2
 211 858 211 858 264.5 934.5 c 128,-1,3
 318 1011 318 1011 398.5 1056.5 c 128,-1,4
 479 1102 479 1102 589 1102 c 0,5,6
 693 1102 693 1102 775.5 1057.5 c 128,-1,7
 858 1013 858 1013 913 932 c 1,8,-1
 918 1082 l 1,9,-1
 1030 1082 l 1,10,-1
 1030 19 l 2,11,12
 1029 -80 1029 -80 999 -163 c 128,-1,13
 969 -246 969 -246 912.5 -305.5 c 128,-1,14
 856 -365 856 -365 776 -398 c 128,-1,15
 696 -431 696 -431 596 -431 c 0,16,17
 548 -431 548 -431 496 -420 c 128,-1,18
 444 -409 444 -409 394 -386 c 128,-1,19
 344 -363 344 -363 298.5 -328.5 c 128,-1,20
 253 -294 253 -294 219 -246 c 1,21,-1
 286 -174 l 1,22,23
 415 -330 415 -330 588 -330 c 0,24,25
 665 -330 665 -330 725 -305 c 128,-1,26
 785 -280 785 -280 825.5 -234.5 c 128,-1,27
 866 -189 866 -189 887.5 -125.5 c 128,-1,28
 909 -62 909 -62 910 14 c 2,29,-1
 910 137 l 1,30,31
 853 61 853 61 770.5 20.5 c 128,-1,32
 688 -20 688 -20 587 -20 c 0,33,34
 479 -20 479 -20 398.5 26.5 c 128,-1,35
 318 73 318 73 265 149.5 c 128,-1,36
 212 226 212 226 185.5 325.5 c 128,-1,37
 159 425 159 425 159 530 c 2,38,-1
 159 551 l 2,0,1
279 530 m 2,39,40
 279 449 279 449 296.5 369 c 128,-1,41
 314 289 314 289 353 225.5 c 128,-1,42
 392 162 392 162 455 123 c 128,-1,43
 518 84 518 84 609 84 c 0,44,45
 660 84 660 84 706 97.5 c 128,-1,46
 752 111 752 111 790.5 136 c 128,-1,47
 829 161 829 161 859.5 196.5 c 128,-1,48
 890 232 890 232 910 276 c 1,49,-1
 910 791 l 1,50,51
 890 836 890 836 861 874 c 128,-1,52
 832 912 832 912 794 939.5 c 128,-1,53
 756 967 756 967 710 982.5 c 128,-1,54
 664 998 664 998 611 998 c 0,55,56
 519 998 519 998 456 958.5 c 128,-1,57
 393 919 393 919 353.5 855.5 c 128,-1,58
 314 792 314 792 296.5 712 c 128,-1,59
 279 632 279 632 279 551 c 2,60,-1
 279 530 l 2,39,40
EndSplineSet
Substitution2: "'smcp' Lowercase to Small Capitals lookup 0 subtable" G.smcp
EndChar
StartChar: h
Encoding: 104 104 74
Width: 1229
Flags: W
LayerCount: 2
Back
Fore
SplineSet
313 873 m 1,0,1
 370 977 370 977 465 1039 c 128,-1,2
 560 1101 560 1101 682 1102 c 0,3,4
 771 1102 771 1102 839.5 1074.5 c 128,-1,5
 908 1047 908 1047 954.5 994.5 c 128,-1,6
 1001 942 1001 942 1025.5 865.5 c 128,-1,7
 1050 789 1050 789 1050 691 c 2,8,-1
 1050 0 l 1,9,-1
 930 0 l 1,10,-1
 930 691 l 2,11,12
 930 763 930 763 913 820 c 128,-1,13
 896 877 896 877 861.5 916.5 c 128,-1,14
 827 956 827 956 775 977 c 128,-1,15
 723 998 723 998 653 998 c 0,16,17
 596 998 596 998 544 980 c 128,-1,18
 492 962 492 962 448 930 c 128,-1,19
 404 898 404 898 369.5 854.5 c 128,-1,20
 335 811 335 811 313 759 c 1,21,-1
 313 0 l 1,22,-1
 193 0 l 1,23,-1
 193 1536 l 1,24,-1
 313 1536 l 1,25,-1
 313 873 l 1,0,1
EndSplineSet
Substitution2: "'smcp' Lowercase to Small Capitals lookup 0 subtable" H.smcp
EndChar
StartChar: i
Encoding: 105 105 75
Width: 1229
Flags: W
LayerCount: 2
Back
Fore
SplineSet
221 1082 m 1,0,-1
 723 1082 l 1,1,-1
 723 106 l 1,2,-1
 1091 106 l 1,3,-1
 1091 0 l 1,4,-1
 221 0 l 1,5,-1
 221 106 l 1,6,-1
 603 106 l 1,7,-1
 603 975 l 1,8,-1
 221 975 l 1,9,-1
 221 1082 l 1,0,-1
568 1378 m 0,10,11
 568 1415 568 1415 589 1442 c 128,-1,12
 610 1469 610 1469 659 1469 c 0,13,14
 707 1469 707 1469 728.5 1442 c 128,-1,15
 750 1415 750 1415 750 1378 c 0,16,17
 750 1343 750 1343 728.5 1316.5 c 128,-1,18
 707 1290 707 1290 659 1290 c 0,19,20
 610 1290 610 1290 589 1316.5 c 128,-1,21
 568 1343 568 1343 568 1378 c 0,10,11
EndSplineSet
Substitution2: "'smcp' Lowercase to Small Capitals lookup 0 subtable" I.smcp
EndChar
StartChar: j
Encoding: 106 106 76
Width: 1229
Flags: W
LayerCount: 2
Back
Fore
SplineSet
301 1082 m 1,0,-1
 811 1082 l 1,1,-1
 811 0 l 2,2,3
 811 -102 811 -102 783.5 -183 c 128,-1,4
 756 -264 756 -264 703.5 -320.5 c 128,-1,5
 651 -377 651 -377 575 -407 c 128,-1,6
 499 -437 499 -437 402 -437 c 0,7,8
 345 -437 345 -437 297.5 -433.5 c 128,-1,9
 250 -430 250 -430 195 -420 c 1,10,-1
 203 -321 l 1,11,12
 221 -324 221 -324 247.5 -326.5 c 128,-1,13
 274 -329 274 -329 301.5 -330.5 c 128,-1,14
 329 -332 329 -332 354 -332.5 c 128,-1,15
 379 -333 379 -333 394 -333 c 0,16,17
 454 -333 454 -333 508 -316 c 128,-1,18
 562 -299 562 -299 602.5 -259.5 c 128,-1,19
 643 -220 643 -220 667 -156.5 c 128,-1,20
 691 -93 691 -93 691 0 c 2,21,-1
 691 975 l 1,22,-1
 301 975 l 1,23,-1
 301 1082 l 1,0,-1
652 1379 m 0,24,25
 652 1416 652 1416 672.5 1442.5 c 128,-1,26
 693 1469 693 1469 742 1469 c 0,27,28
 790 1469 790 1469 812 1442.5 c 128,-1,29
 834 1416 834 1416 834 1379 c 0,30,31
 834 1344 834 1344 812 1317.5 c 128,-1,32
 790 1291 790 1291 742 1291 c 0,33,34
 693 1291 693 1291 672.5 1317.5 c 128,-1,35
 652 1344 652 1344 652 1379 c 0,24,25
EndSplineSet
Substitution2: "'smcp' Lowercase to Small Capitals lookup 0 subtable" J.smcp
EndChar
StartChar: k
Encoding: 107 107 77
Width: 1229
Flags: W
LayerCount: 2
Back
Fore
SplineSet
490 547 m 1,0,-1
 337 410 l 1,1,-1
 337 0 l 1,2,-1
 216 0 l 1,3,-1
 216 1536 l 1,4,-1
 337 1536 l 1,5,-1
 337 548 l 1,6,-1
 466 675 l 1,7,-1
 905 1082 l 1,8,-1
 1058 1082 l 1,9,-1
 575 626 l 1,10,-1
 1108 0 l 1,11,-1
 954 0 l 1,12,-1
 490 547 l 1,0,-1
EndSplineSet
Substitution2: "'smcp' Lowercase to Small Capitals lookup 0 subtable" K.smcp
EndChar
StartChar: m
Encoding: 109 109 79
Width: 1229
Flags: W
LayerCount: 2
Back
Fore
SplineSet
197 1082 m 1,0,-1
 200 961 l 1,1,2
 233 1024 233 1024 290.5 1062.5 c 128,-1,3
 348 1101 348 1101 436 1102 c 0,4,5
 482 1102 482 1102 517.5 1091.5 c 128,-1,6
 553 1081 553 1081 579 1062 c 128,-1,7
 605 1043 605 1043 623 1016.5 c 128,-1,8
 641 990 641 990 652 959 c 1,9,10
 686 1020 686 1020 745.5 1060.5 c 128,-1,11
 805 1101 805 1101 894 1102 c 0,12,13
 964 1102 964 1102 1011 1078 c 128,-1,14
 1058 1054 1058 1054 1087 1013 c 128,-1,15
 1116 972 1116 972 1128.5 918 c 128,-1,16
 1141 864 1141 864 1141 804 c 2,17,-1
 1140 0 l 1,18,-1
 1028 0 l 1,19,-1
 1027 804 l 2,20,21
 1027 839 1027 839 1020 874 c 128,-1,22
 1013 909 1013 909 995.5 937 c 128,-1,23
 978 965 978 965 946.5 982 c 128,-1,24
 915 999 915 999 866 998 c 0,25,26
 816 997 816 997 781.5 982 c 128,-1,27
 747 967 747 967 724.5 943 c 128,-1,28
 702 919 702 919 689.5 889.5 c 128,-1,29
 677 860 677 860 671 830 c 1,30,-1
 670 0 l 1,31,-1
 558 0 l 1,32,-1
 557 815 l 2,33,34
 557 849 557 849 550 882 c 128,-1,35
 543 915 543 915 525.5 941 c 128,-1,36
 508 967 508 967 477 983 c 128,-1,37
 446 999 446 999 398 998 c 256,38,39
 350 997 350 997 316.5 983 c 128,-1,40
 283 969 283 969 260.5 945.5 c 128,-1,41
 238 922 238 922 224.5 891.5 c 128,-1,42
 211 861 211 861 203 828 c 1,43,-1
 202 0 l 1,44,-1
 89 0 l 1,45,-1
 89 1082 l 1,46,-1
 197 1082 l 1,0,-1
EndSplineSet
Substitution2: "'smcp' Lowercase to Small Capitals lookup 0 subtable" M.smcp
EndChar
StartChar: n
Encoding: 110 110 80
Width: 1229
Flags: W
LayerCount: 2
Back
Fore
SplineSet
303 1082 m 1,0,-1
 312 879 l 1,1,2
 369 980 369 980 464 1040.5 c 128,-1,3
 559 1101 559 1101 680 1102 c 0,4,5
 858 1102 858 1102 952 995.5 c 128,-1,6
 1046 889 1046 889 1047 693 c 2,7,-1
 1047 0 l 1,8,-1
 927 0 l 1,9,-1
 927 691 l 2,10,11
 926 840 926 840 859 919.5 c 128,-1,12
 792 999 792 999 651 998 c 0,13,14
 593 998 593 998 540.5 979 c 128,-1,15
 488 960 488 960 444.5 927 c 128,-1,16
 401 894 401 894 367.5 849 c 128,-1,17
 334 804 334 804 313 751 c 1,18,-1
 313 0 l 1,19,-1
 193 0 l 1,20,-1
 193 1082 l 1,21,-1
 303 1082 l 1,0,-1
EndSplineSet
Substitution2: "'smcp' Lowercase to Small Capitals lookup 0 subtable" N.smcp
EndChar
StartChar: o
Encoding: 111 111 81
Width: 1229
Flags: W
LayerCount: 2
Back
Fore
SplineSet
131 557 m 2,0,1
 132 667 132 667 165 766 c 128,-1,2
 198 865 198 865 259.5 939.5 c 128,-1,3
 321 1014 321 1014 410.5 1058 c 128,-1,4
 500 1102 500 1102 613 1102 c 0,5,6
 727 1102 727 1102 816.5 1058 c 128,-1,7
 906 1014 906 1014 968 939.5 c 128,-1,8
 1030 865 1030 865 1063 766 c 128,-1,9
 1096 667 1096 667 1097 557 c 2,10,-1
 1097 524 l 2,11,12
 1096 414 1096 414 1063.5 315 c 128,-1,13
 1031 216 1031 216 969 141.5 c 128,-1,14
 907 67 907 67 818 23.5 c 128,-1,15
 729 -20 729 -20 615 -20 c 256,16,17
 501 -20 501 -20 411.5 23.5 c 128,-1,18
 322 67 322 67 260 141.5 c 128,-1,19
 198 216 198 216 165 315 c 128,-1,20
 132 414 132 414 131 524 c 2,21,-1
 131 557 l 2,0,1
251 524 m 2,22,23
 251 438 251 438 275 358 c 128,-1,24
 299 278 299 278 345 216.5 c 128,-1,25
 391 155 391 155 458.5 118 c 128,-1,26
 526 81 526 81 615 81 c 0,27,28
 703 81 703 81 770.5 118 c 128,-1,29
 838 155 838 155 883.5 216.5 c 128,-1,30
 929 278 929 278 953 358 c 128,-1,31
 977 438 977 438 977 524 c 2,32,-1
 977 557 l 2,33,34
 977 642 977 642 953 722 c 128,-1,35
 929 802 929 802 883 863.5 c 128,-1,36
 837 925 837 925 769 962.5 c 128,-1,37
 701 1000 701 1000 613 1000 c 256,38,39
 525 1000 525 1000 457.5 962.5 c 128,-1,40
 390 925 390 925 344.5 863.5 c 128,-1,41
 299 802 299 802 275 722 c 128,-1,42
 251 642 251 642 251 557 c 2,43,-1
 251 524 l 2,22,23
EndSplineSet
Substitution2: "'smcp' Lowercase to Small Capitals lookup 0 subtable" O.smcp
EndChar
StartChar: p
Encoding: 112 112 82
Width: 1229
Flags: W
LayerCount: 2
Back
Fore
SplineSet
1068 530 m 2,0,1
 1068 425 1068 425 1042.5 325.5 c 128,-1,2
 1017 226 1017 226 964.5 149.5 c 128,-1,3
 912 73 912 73 832 26.5 c 128,-1,4
 752 -20 752 -20 642 -20 c 0,5,6
 541 -20 541 -20 457 19 c 128,-1,7
 373 58 373 58 316 132 c 1,8,-1
 316 -416 l 1,9,-1
 196 -416 l 1,10,-1
 196 1082 l 1,11,-1
 308 1082 l 1,12,-1
 313 934 l 1,13,14
 370 1014 370 1014 453 1058 c 128,-1,15
 536 1102 536 1102 640 1102 c 0,16,17
 751 1102 751 1102 832 1056.5 c 128,-1,18
 913 1011 913 1011 965 934.5 c 128,-1,19
 1017 858 1017 858 1042.5 758.5 c 128,-1,20
 1068 659 1068 659 1068 551 c 2,21,-1
 1068 530 l 2,0,1
948 551 m 2,22,23
 948 632 948 632 930 712 c 128,-1,24
 912 792 912 792 872 855.5 c 128,-1,25
 832 919 832 919 768.5 958.5 c 128,-1,26
 705 998 705 998 613 998 c 0,27,28
 561 998 561 998 515.5 983.5 c 128,-1,29
 470 969 470 969 432.5 942.5 c 128,-1,30
 395 916 395 916 365.5 879.5 c 128,-1,31
 336 843 336 843 316 799 c 1,32,-1
 316 263 l 1,33,34
 358 179 358 179 436 130 c 128,-1,35
 514 81 514 81 615 81 c 0,36,37
 706 81 706 81 769.5 121 c 128,-1,38
 833 161 833 161 872.5 224.5 c 128,-1,39
 912 288 912 288 930 368.5 c 128,-1,40
 948 449 948 449 948 530 c 2,41,-1
 948 551 l 2,22,23
EndSplineSet
Substitution2: "'smcp' Lowercase to Small Capitals lookup 0 subtable" P.smcp
EndChar
StartChar: q
Encoding: 113 113 83
Width: 1229
Flags: W
LayerCount: 2
Back
Fore
SplineSet
158 551 m 2,0,1
 158 659 158 659 184 758.5 c 128,-1,2
 210 858 210 858 263.5 934.5 c 128,-1,3
 317 1011 317 1011 398.5 1056.5 c 128,-1,4
 480 1102 480 1102 591 1102 c 0,5,6
 692 1102 692 1102 773.5 1059.5 c 128,-1,7
 855 1017 855 1017 911 939 c 1,8,-1
 917 1082 l 1,9,-1
 1029 1082 l 1,10,-1
 1029 -416 l 1,11,-1
 909 -416 l 1,12,-1
 909 130 l 1,13,14
 851 57 851 57 769 18.5 c 128,-1,15
 687 -20 687 -20 589 -20 c 0,16,17
 479 -20 479 -20 398 26.5 c 128,-1,18
 317 73 317 73 264 149.5 c 128,-1,19
 211 226 211 226 184.5 325.5 c 128,-1,20
 158 425 158 425 158 530 c 2,21,-1
 158 551 l 2,0,1
279 530 m 2,22,23
 279 449 279 449 297 368.5 c 128,-1,24
 315 288 315 288 354.5 224.5 c 128,-1,25
 394 161 394 161 457 121 c 128,-1,26
 520 81 520 81 611 81 c 0,27,28
 710 81 710 81 787.5 130 c 128,-1,29
 865 179 865 179 909 261 c 1,30,-1
 909 807 l 1,31,32
 888 849 888 849 858 884.5 c 128,-1,33
 828 920 828 920 790.5 945.5 c 128,-1,34
 753 971 753 971 708 985.5 c 128,-1,35
 663 1000 663 1000 613 1000 c 0,36,37
 521 1000 521 1000 457.5 960 c 128,-1,38
 394 920 394 920 354.5 856.5 c 128,-1,39
 315 793 315 793 297 712.5 c 128,-1,40
 279 632 279 632 279 551 c 2,41,-1
 279 530 l 2,22,23
EndSplineSet
Substitution2: "'smcp' Lowercase to Small Capitals lookup 0 subtable" Q.smcp
EndChar
StartChar: r
Encoding: 114 114 84
Width: 1229
Flags: W
LayerCount: 2
Back
Fore
SplineSet
909 1102 m 0,0,1
 954 1102 954 1102 999 1096.5 c 128,-1,2
 1044 1091 1044 1091 1074 1081 c 1,3,-1
 1059 966 l 1,4,5
 1017 975 1017 975 975 980 c 128,-1,6
 933 985 933 985 889 985 c 0,7,8
 737 985 737 985 631 913 c 128,-1,9
 525 841 525 841 482 692 c 1,10,-1
 483 0 l 1,11,-1
 359 0 l 1,12,-1
 359 1082 l 1,13,-1
 474 1082 l 1,14,-1
 482 894 l 1,15,-1
 482 872 l 1,16,17
 548 979 548 979 657 1040.5 c 128,-1,18
 766 1102 766 1102 909 1102 c 0,0,1
EndSplineSet
Substitution2: "'smcp' Lowercase to Small Capitals lookup 0 subtable" R.smcp
EndChar
StartChar: s
Encoding: 115 115 85
Width: 1229
Flags: W
LayerCount: 2
Back
Fore
SplineSet
948 275 m 0,0,1
 948 325 948 325 923 362 c 128,-1,2
 898 399 898 399 854.5 425.5 c 128,-1,3
 811 452 811 452 754 470 c 128,-1,4
 697 488 697 488 633 501 c 0,5,6
 555 517 555 517 482 539.5 c 128,-1,7
 409 562 409 562 352 597 c 128,-1,8
 295 632 295 632 261 682.5 c 128,-1,9
 227 733 227 733 227 807 c 0,10,11
 227 877 227 877 262 932 c 128,-1,12
 297 987 297 987 354 1025 c 128,-1,13
 411 1063 411 1063 484 1082.5 c 128,-1,14
 557 1102 557 1102 634 1102 c 0,15,16
 722 1102 722 1102 798.5 1080.5 c 128,-1,17
 875 1059 875 1059 932.5 1017.5 c 128,-1,18
 990 976 990 976 1024 916 c 128,-1,19
 1058 856 1058 856 1061 779 c 1,20,-1
 941 779 l 1,21,22
 939 831 939 831 913 872.5 c 128,-1,23
 887 914 887 914 844 942 c 128,-1,24
 801 970 801 970 746.5 985 c 128,-1,25
 692 1000 692 1000 634 1000 c 0,26,27
 580 1000 580 1000 528.5 988.5 c 128,-1,28
 477 977 477 977 436.5 953.5 c 128,-1,29
 396 930 396 930 371.5 894.5 c 128,-1,30
 347 859 347 859 347 811 c 0,31,32
 346 760 346 760 370.5 725.5 c 128,-1,33
 395 691 395 691 437 667.5 c 128,-1,34
 479 644 479 644 535.5 628.5 c 128,-1,35
 592 613 592 613 656 600 c 0,36,37
 738 583 738 583 812.5 558.5 c 128,-1,38
 887 534 887 534 944 497.5 c 128,-1,39
 1001 461 1001 461 1034 408 c 128,-1,40
 1067 355 1067 355 1067 281 c 0,41,42
 1067 205 1067 205 1030.5 148.5 c 128,-1,43
 994 92 994 92 934.5 54.5 c 128,-1,44
 875 17 875 17 798.5 -1.5 c 128,-1,45
 722 -20 722 -20 641 -20 c 0,46,47
 550 -20 550 -20 469.5 2 c 128,-1,48
 389 24 389 24 327.5 65.5 c 128,-1,49
 266 107 266 107 229 167 c 128,-1,50
 192 227 192 227 189 303 c 1,51,-1
 309 303 l 1,52,53
 315 239 315 239 347.5 196 c 128,-1,54
 380 153 380 153 427.5 127.5 c 128,-1,55
 475 102 475 102 531 91.5 c 128,-1,56
 587 81 587 81 641 81 c 0,57,58
 696 81 696 81 750.5 92.5 c 128,-1,59
 805 104 805 104 848.5 127.5 c 128,-1,60
 892 151 892 151 919.5 187.5 c 128,-1,61
 947 224 947 224 948 275 c 0,0,1
EndSplineSet
Substitution2: "'smcp' Lowercase to Small Capitals lookup 0 subtable" S.smcp
EndChar
StartChar: t
Encoding: 116 116 86
Width: 1229
Flags: W
LayerCount: 2
Back
Fore
SplineSet
592 1359 m 1,0,-1
 592 1082 l 1,1,-1
 993 1082 l 1,2,-1
 993 984 l 1,3,-1
 592 984 l 1,4,-1
 592 303 l 2,5,6
 593 240 593 240 611.5 198.5 c 128,-1,7
 630 157 630 157 661.5 131.5 c 128,-1,8
 693 106 693 106 735.5 95 c 128,-1,9
 778 84 778 84 828 84 c 256,10,11
 878 84 878 84 930.5 91 c 128,-1,12
 983 98 983 98 1020 105 c 1,13,-1
 1038 14 l 1,14,15
 995 -3 995 -3 933 -11.5 c 128,-1,16
 871 -20 871 -20 807 -20 c 0,17,18
 735 -20 735 -20 674 -2.5 c 128,-1,19
 613 15 613 15 568 53.5 c 128,-1,20
 523 92 523 92 497 153.5 c 128,-1,21
 471 215 471 215 470 304 c 2,22,-1
 470 984 l 1,23,-1
 169 984 l 1,24,-1
 169 1082 l 1,25,-1
 470 1082 l 1,26,-1
 470 1359 l 1,27,-1
 592 1359 l 1,0,-1
EndSplineSet
Substitution2: "'smcp' Lowercase to Small Capitals lookup 0 subtable" T.smcp
EndChar
StartChar: u
Encoding: 117 117 87
Width: 1229
Flags: W
LayerCount: 2
Back
Fore
SplineSet
919 169 m 1,0,1
 865 80 865 80 776.5 30 c 128,-1,2
 688 -20 688 -20 567 -20 c 0,3,4
 477 -20 477 -20 408.5 9 c 128,-1,5
 340 38 340 38 293.5 94 c 128,-1,6
 247 150 247 150 222.5 231 c 128,-1,7
 198 312 198 312 198 416 c 2,8,-1
 198 1082 l 1,9,-1
 317 1082 l 1,10,-1
 317 414 l 2,11,12
 319 251 319 251 383 167 c 128,-1,13
 447 83 447 83 581 83 c 0,14,15
 716 83 716 83 800 145 c 128,-1,16
 884 207 884 207 917 313 c 1,17,-1
 916 1082 l 1,18,-1
 1037 1082 l 1,19,-1
 1037 0 l 1,20,-1
 925 0 l 1,21,-1
 919 169 l 1,0,1
EndSplineSet
Substitution2: "'smcp' Lowercase to Small Capitals lookup 0 subtable" U.smcp
EndChar
StartChar: v
Encoding: 118 118 88
Width: 1229
Flags: W
LayerCount: 2
Back
Fore
SplineSet
608 162 m 1,0,-1
 613 141 l 1,1,-1
 619 162 l 1,2,-1
 991 1082 l 1,3,-1
 1116 1082 l 1,4,-1
 661 0 l 1,5,-1
 563 0 l 1,6,-1
 107 1082 l 1,7,-1
 232 1082 l 1,8,-1
 608 162 l 1,0,-1
EndSplineSet
Substitution2: "'smcp' Lowercase to Small Capitals lookup 0 subtable" V.smcp
EndChar
StartChar: w
Encoding: 119 119 89
Width: 1229
Flags: W
LayerCount: 2
Back
Fore
SplineSet
324 351 m 1,0,-1
 356 159 l 1,1,-1
 396 351 l 1,2,-1
 579 1082 l 1,3,-1
 663 1082 l 1,4,-1
 846 351 l 1,5,-1
 886 154 l 1,6,-1
 921 351 l 1,7,-1
 1069 1082 l 1,8,-1
 1180 1082 l 1,9,-1
 940 0 l 1,10,-1
 843 0 l 1,11,-1
 652 740 l 1,12,-1
 620 913 l 1,13,-1
 588 740 l 1,14,-1
 399 0 l 1,15,-1
 302 0 l 1,16,-1
 62 1082 l 1,17,-1
 173 1082 l 1,18,-1
 324 351 l 1,0,-1
EndSplineSet
Substitution2: "'smcp' Lowercase to Small Capitals lookup 0 subtable" W.smcp
EndChar
StartChar: x
Encoding: 120 120 90
Width: 1229
Flags: W
LayerCount: 2
Back
Fore
SplineSet
624 640 m 1,0,-1
 960 1082 l 1,1,-1
 1105 1082 l 1,2,-1
 693 551 l 1,3,-1
 1121 0 l 1,4,-1
 979 0 l 1,5,-1
 626 461 l 1,6,-1
 273 0 l 1,7,-1
 130 0 l 1,8,-1
 558 551 l 1,9,-1
 146 1082 l 1,10,-1
 289 1082 l 1,11,-1
 624 640 l 1,0,-1
EndSplineSet
Substitution2: "'smcp' Lowercase to Small Capitals lookup 0 subtable" X.smcp
EndChar
StartChar: y
Encoding: 121 121 91
Width: 1229
Flags: W
LayerCount: 2
Back
Fore
SplineSet
600 220 m 1,0,-1
 622 161 l 1,1,-1
 1013 1082 l 1,2,-1
 1149 1082 l 1,3,-1
 590 -173 l 2,4,5
 568 -222 568 -222 538 -269 c 128,-1,6
 508 -316 508 -316 467 -353.5 c 128,-1,7
 426 -391 426 -391 372.5 -414 c 128,-1,8
 319 -437 319 -437 250 -437 c 0,9,10
 226 -437 226 -437 197 -432.5 c 128,-1,11
 168 -428 168 -428 148 -423 c 1,12,-1
 162 -323 l 1,13,14
 179 -325 179 -325 204.5 -327.5 c 128,-1,15
 230 -330 230 -330 247 -330 c 0,16,17
 293 -330 293 -330 331 -312 c 128,-1,18
 369 -294 369 -294 398.5 -265.5 c 128,-1,19
 428 -237 428 -237 450.5 -201.5 c 128,-1,20
 473 -166 473 -166 488 -132 c 2,21,-1
 562 28 l 1,22,-1
 76 1082 l 1,23,-1
 211 1082 l 1,24,-1
 600 220 l 1,0,-1
EndSplineSet
Substitution2: "'smcp' Lowercase to Small Capitals lookup 0 subtable" Y.smcp
EndChar
StartChar: z
Encoding: 122 122 92
Width: 1229
Flags: W
LayerCount: 2
Back
Fore
SplineSet
305 101 m 1,0,-1
 1098 101 l 1,1,-1
 1098 0 l 1,2,-1
 148 0 l 1,3,-1
 149 88 l 1,4,-1
 885 979 l 1,5,-1
 171 979 l 1,6,-1
 171 1082 l 1,7,-1
 1046 1082 l 1,8,-1
 1045 993 l 1,9,-1
 305 101 l 1,0,-1
EndSplineSet
Substitution2: "'smcp' Lowercase to Small Capitals lookup 0 subtable" Z.smcp
EndChar
StartChar: braceleft
Encoding: 123 123 93
Width: 1229
Flags: W
LayerCount: 2
Back
Fore
SplineSet
974 -404 m 1,0,1
 883 -389 883 -389 815 -346.5 c 128,-1,2
 747 -304 747 -304 701.5 -242.5 c 128,-1,3
 656 -181 656 -181 633 -103.5 c 128,-1,4
 610 -26 610 -26 609 58 c 2,5,-1
 609 266 l 2,6,7
 608 406 608 406 538 473 c 128,-1,8
 468 540 468 540 331 543 c 1,9,-1
 331 570 l 1,10,-1
 330 570 l 1,11,-1
 330 597 l 1,12,-1
 330 619 l 1,13,-1
 331 647 l 1,14,15
 467 650 467 650 537.5 716.5 c 128,-1,16
 608 783 608 783 609 922 c 2,17,-1
 609 1132 l 2,18,19
 610 1216 610 1216 632 1293.5 c 128,-1,20
 654 1371 654 1371 698.5 1433.5 c 128,-1,21
 743 1496 743 1496 811.5 1539 c 128,-1,22
 880 1582 880 1582 973 1597 c 1,23,-1
 992 1518 l 1,24,25
 918 1504 918 1504 868 1468.5 c 128,-1,26
 818 1433 818 1433 787.5 1381.5 c 128,-1,27
 757 1330 757 1330 743.5 1266 c 128,-1,28
 730 1202 730 1202 729 1132 c 2,29,-1
 729 922 l 2,30,31
 727 798 727 798 668.5 714 c 128,-1,32
 610 630 610 630 495 594 c 1,33,34
 610 558 610 558 668.5 473.5 c 128,-1,35
 727 389 727 389 729 266 c 2,36,-1
 729 58 l 2,37,38
 730 -13 730 -13 746 -76 c 128,-1,39
 762 -139 762 -139 795 -189.5 c 128,-1,40
 828 -240 828 -240 877.5 -275 c 128,-1,41
 927 -310 927 -310 994 -324 c 1,42,-1
 974 -404 l 1,0,1
EndSplineSet
EndChar
StartChar: bar
Encoding: 124 124 94
Width: 1229
Flags: W
LayerCount: 2
Back
Fore
SplineSet
665 -332 m 1,0,-1
 564 -332 l 1,1,-1
 564 1456 l 1,2,-1
 665 1456 l 1,3,-1
 665 -332 l 1,0,-1
EndSplineSet
EndChar
StartChar: braceright
Encoding: 125 125 95
Width: 1229
Flags: W
LayerCount: 2
Back
Fore
SplineSet
330 -324 m 1,0,1
 397 -310 397 -310 446.5 -275 c 128,-1,2
 496 -240 496 -240 529 -189.5 c 128,-1,3
 562 -139 562 -139 578 -75.5 c 128,-1,4
 594 -12 594 -12 595 58 c 2,5,-1
 595 266 l 2,6,7
 596 389 596 389 655 473.5 c 128,-1,8
 714 558 714 558 829 594 c 1,9,10
 714 630 714 630 655 714 c 128,-1,11
 596 798 596 798 595 922 c 2,12,-1
 595 1132 l 2,13,14
 594 1202 594 1202 580.5 1266 c 128,-1,15
 567 1330 567 1330 536.5 1381.5 c 128,-1,16
 506 1433 506 1433 456 1468.5 c 128,-1,17
 406 1504 406 1504 333 1518 c 1,18,-1
 351 1597 l 1,19,20
 444 1582 444 1582 512.5 1539 c 128,-1,21
 581 1496 581 1496 626 1433.5 c 128,-1,22
 671 1371 671 1371 693 1293.5 c 128,-1,23
 715 1216 715 1216 715 1132 c 2,24,-1
 715 922 l 2,25,26
 716 783 716 783 786.5 716.5 c 128,-1,27
 857 650 857 650 993 647 c 1,28,-1
 993 619 l 1,29,-1
 994 619 l 1,30,-1
 993 594 l 1,31,-1
 994 570 l 1,32,-1
 993 570 l 1,33,-1
 993 543 l 1,34,35
 857 540 857 540 786.5 472.5 c 128,-1,36
 716 405 716 405 715 266 c 2,37,-1
 715 58 l 2,38,39
 715 -26 715 -26 692 -103.5 c 128,-1,40
 669 -181 669 -181 623.5 -242.5 c 128,-1,41
 578 -304 578 -304 509.5 -346.5 c 128,-1,42
 441 -389 441 -389 350 -404 c 1,43,-1
 330 -324 l 1,0,1
EndSplineSet
EndChar
StartChar: asciitilde
Encoding: 126 126 96
Width: 1229
Flags: W
LayerCount: 2
Back
Fore
SplineSet
1168 746 m 1,0,1
 1167 683 1167 683 1147.5 624.5 c 128,-1,2
 1128 566 1128 566 1091.5 521 c 128,-1,3
 1055 476 1055 476 1002.5 449.5 c 128,-1,4
 950 423 950 423 883 423 c 0,5,6
 837 423 837 423 796.5 433.5 c 128,-1,7
 756 444 756 444 718.5 463.5 c 128,-1,8
 681 483 681 483 645.5 509.5 c 128,-1,9
 610 536 610 536 574 568 c 0,10,11
 547 591 547 591 520 611.5 c 128,-1,12
 493 632 493 632 464.5 647.5 c 128,-1,13
 436 663 436 663 406 671.5 c 128,-1,14
 376 680 376 680 343 680 c 0,15,16
 297 680 297 680 262 662 c 128,-1,17
 227 644 227 644 203.5 613.5 c 128,-1,18
 180 583 180 583 167.5 543 c 128,-1,19
 155 503 155 503 154 459 c 1,20,-1
 59 467 l 1,21,22
 60 531 60 531 79.5 589 c 128,-1,23
 99 647 99 647 135 691 c 128,-1,24
 171 735 171 735 223 761 c 128,-1,25
 275 787 275 787 343 787 c 0,26,27
 389 787 389 787 430 776 c 128,-1,28
 471 765 471 765 509 745.5 c 128,-1,29
 547 726 547 726 582.5 699.5 c 128,-1,30
 618 673 618 673 654 643 c 0,31,32
 682 619 682 619 708.5 598 c 128,-1,33
 735 577 735 577 763 562 c 128,-1,34
 791 547 791 547 820.5 538 c 128,-1,35
 850 529 850 529 883 529 c 0,36,37
 929 529 929 529 964 548 c 128,-1,38
 999 567 999 567 1023 598 c 128,-1,39
 1047 629 1047 629 1059.5 670 c 128,-1,40
 1072 711 1072 711 1073 755 c 1,41,-1
 1168 746 l 1,0,1
EndSplineSet
EndChar
StartChar: exclamdown
Encoding: 161 161 97
Width: 1229
Flags: W
LayerCount: 2
Back
Fore
SplineSet
558 654 m 1,0,-1
 678 654 l 1,1,-1
 678 -365 l 1,2,-1
 558 -365 l 1,3,-1
 558 654 l 1,0,-1
699 1020 m 0,4,5
 699 986 699 986 675.5 962 c 128,-1,6
 652 938 652 938 613 938 c 256,7,8
 574 938 574 938 550.5 961.5 c 128,-1,9
 527 985 527 985 527 1020 c 256,10,11
 527 1055 527 1055 550.5 1079 c 128,-1,12
 574 1103 574 1103 613 1103 c 0,13,14
 651 1103 651 1103 675 1079 c 128,-1,15
 699 1055 699 1055 699 1020 c 0,4,5
EndSplineSet
EndChar
StartChar: cent
Encoding: 162 162 98
Width: 1229
Flags: W
LayerCount: 2
Back
Fore
SplineSet
637 81 m 0,0,1
 697 81 697 81 751.5 98.5 c 128,-1,2
 806 116 806 116 848 149 c 128,-1,3
 890 182 890 182 916.5 228.5 c 128,-1,4
 943 275 943 275 947 334 c 1,5,-1
 1062 334 l 1,6,7
 1058 264 1058 264 1028 204 c 128,-1,8
 998 144 998 144 949 98 c 128,-1,9
 900 52 900 52 835 22.5 c 128,-1,10
 770 -7 770 -7 697 -16 c 1,11,-1
 697 -245 l 1,12,-1
 576 -245 l 1,13,-1
 576 -16 l 1,14,15
 473 -5 473 -5 396 43.5 c 128,-1,16
 319 92 319 92 268 165 c 128,-1,17
 217 238 217 238 191.5 329.5 c 128,-1,18
 166 421 166 421 166 520 c 2,19,-1
 166 562 l 2,20,21
 166 659 166 659 191.5 751 c 128,-1,22
 217 843 217 843 268 916 c 128,-1,23
 319 989 319 989 396 1037.5 c 128,-1,24
 473 1086 473 1086 576 1098 c 1,25,-1
 576 1318 l 1,26,-1
 697 1318 l 1,27,-1
 697 1098 l 1,28,29
 775 1089 775 1089 840.5 1057 c 128,-1,30
 906 1025 906 1025 954 975 c 128,-1,31
 1002 925 1002 925 1030.5 859 c 128,-1,32
 1059 793 1059 793 1062 717 c 1,33,-1
 947 717 l 1,34,35
 944 778 944 778 919 830 c 128,-1,36
 894 882 894 882 853 920 c 128,-1,37
 812 958 812 958 756.5 979 c 128,-1,38
 701 1000 701 1000 636 1000 c 0,39,40
 542 1000 542 1000 475.5 962 c 128,-1,41
 409 924 409 924 367 862 c 128,-1,42
 325 800 325 800 305.5 721.5 c 128,-1,43
 286 643 286 643 286 562 c 2,44,-1
 286 520 l 2,45,46
 286 438 286 438 305.5 359 c 128,-1,47
 325 280 325 280 367 218.5 c 128,-1,48
 409 157 409 157 475.5 119 c 128,-1,49
 542 81 542 81 637 81 c 0,0,1
EndSplineSet
EndChar
StartChar: sterling
Encoding: 163 163 99
Width: 1229
Flags: W
LayerCount: 2
Back
Fore
SplineSet
441 647 m 1,0,-1
 450 367 l 2,1,2
 451 295 451 295 437 224.5 c 128,-1,3
 423 154 423 154 385 101 c 1,4,-1
 1133 101 l 1,5,-1
 1133 0 l 1,6,-1
 138 0 l 1,7,-1
 138 101 l 1,8,-1
 235 101 l 1,9,10
 266 113 266 113 285.5 143.5 c 128,-1,11
 305 174 305 174 315 213 c 128,-1,12
 325 252 325 252 328 293 c 128,-1,13
 331 334 331 334 330 367 c 2,14,-1
 321 647 l 1,15,-1
 134 647 l 1,16,-1
 134 748 l 1,17,-1
 318 748 l 1,18,-1
 309 1039 l 2,19,20
 309 1132 309 1132 337 1211.5 c 128,-1,21
 365 1291 365 1291 417.5 1350 c 128,-1,22
 470 1409 470 1409 545 1442.5 c 128,-1,23
 620 1476 620 1476 714 1476 c 0,24,25
 805 1476 805 1476 877.5 1447.5 c 128,-1,26
 950 1419 950 1419 1000 1367.5 c 128,-1,27
 1050 1316 1050 1316 1077 1245 c 128,-1,28
 1104 1174 1104 1174 1105 1089 c 1,29,-1
 985 1089 l 1,30,31
 984 1156 984 1156 963 1209.5 c 128,-1,32
 942 1263 942 1263 905.5 1299.5 c 128,-1,33
 869 1336 869 1336 818 1355 c 128,-1,34
 767 1374 767 1374 705 1374 c 0,35,36
 639 1374 639 1374 587.5 1348 c 128,-1,37
 536 1322 536 1322 500.5 1276.5 c 128,-1,38
 465 1231 465 1231 447 1170 c 128,-1,39
 429 1109 429 1109 429 1039 c 2,40,-1
 438 748 l 1,41,-1
 782 748 l 1,42,-1
 782 647 l 1,43,-1
 441 647 l 1,0,-1
EndSplineSet
EndChar
StartChar: currency
Encoding: 164 164 100
Width: 1229
Flags: W
LayerCount: 2
Back
Fore
SplineSet
956 116 m 1,0,1
 893 53 893 53 812 16.5 c 128,-1,2
 731 -20 731 -20 634 -20 c 256,3,4
 537 -20 537 -20 456 16 c 128,-1,5
 375 52 375 52 312 114 c 1,6,-1
 185 -26 l 1,7,-1
 101 60 l 1,8,-1
 236 208 l 1,9,10
 185 285 185 285 158.5 376 c 128,-1,11
 132 467 132 467 132 563 c 0,12,13
 132 662 132 662 161 756 c 128,-1,14
 190 850 190 850 244 928 c 1,15,-1
 101 1087 l 1,16,-1
 185 1174 l 1,17,-1
 324 1021 l 1,18,19
 386 1078 386 1078 463.5 1111 c 128,-1,20
 541 1144 541 1144 634 1144 c 256,21,22
 727 1144 727 1144 805 1110.5 c 128,-1,23
 883 1077 883 1077 945 1019 c 1,24,-1
 1086 1175 l 1,25,-1
 1171 1087 l 1,26,-1
 1025 925 l 1,27,28
 1078 847 1078 847 1106 754 c 128,-1,29
 1134 661 1134 661 1134 563 c 0,30,31
 1134 469 1134 469 1108 378.5 c 128,-1,32
 1082 288 1082 288 1033 212 c 1,33,-1
 1171 60 l 1,34,-1
 1086 -27 l 1,35,-1
 956 116 l 1,0,1
246 563 m 256,36,37
 246 478 246 478 273 393.5 c 128,-1,38
 300 309 300 309 350.5 242 c 128,-1,39
 401 175 401 175 473 133 c 128,-1,40
 545 91 545 91 634 91 c 256,41,42
 723 91 723 91 794.5 133 c 128,-1,43
 866 175 866 175 916.5 242 c 128,-1,44
 967 309 967 309 994 393.5 c 128,-1,45
 1021 478 1021 478 1021 563 c 0,46,47
 1021 647 1021 647 994 731 c 128,-1,48
 967 815 967 815 916.5 882 c 128,-1,49
 866 949 866 949 794.5 990.5 c 128,-1,50
 723 1032 723 1032 634 1032 c 256,51,52
 545 1032 545 1032 473.5 990.5 c 128,-1,53
 402 949 402 949 351.5 882 c 128,-1,54
 301 815 301 815 273.5 731.5 c 128,-1,55
 246 648 246 648 246 563 c 256,36,37
EndSplineSet
EndChar
StartChar: yen
Encoding: 165 165 101
Width: 1229
Flags: W
LayerCount: 2
Back
Fore
SplineSet
614 733 m 1,0,-1
 1037 1456 l 1,1,-1
 1176 1456 l 1,2,-1
 722 705 l 1,3,-1
 1092 705 l 1,4,-1
 1092 618 l 1,5,-1
 672 618 l 1,6,-1
 672 412 l 1,7,-1
 1092 412 l 1,8,-1
 1092 326 l 1,9,-1
 672 326 l 1,10,-1
 672 0 l 1,11,-1
 552 0 l 1,12,-1
 552 326 l 1,13,-1
 138 326 l 1,14,-1
 138 412 l 1,15,-1
 552 412 l 1,16,-1
 552 618 l 1,17,-1
 138 618 l 1,18,-1
 138 705 l 1,19,-1
 506 705 l 1,20,-1
 53 1456 l 1,21,-1
 191 1456 l 1,22,-1
 614 733 l 1,0,-1
EndSplineSet
EndChar
StartChar: section
Encoding: 167 167 103
Width: 1229
Flags: W
LayerCount: 2
Back
Fore
SplineSet
1121 431 m 0,0,1
 1121 376 1121 376 1103 332 c 128,-1,2
 1085 288 1085 288 1054 254 c 128,-1,3
 1023 220 1023 220 980.5 196.5 c 128,-1,4
 938 173 938 173 888 158 c 1,5,6
 930 135 930 135 965 106.5 c 128,-1,7
 1000 78 1000 78 1025 42 c 128,-1,8
 1050 6 1050 6 1063.5 -38.5 c 128,-1,9
 1077 -83 1077 -83 1077 -139 c 0,10,11
 1077 -229 1077 -229 1039 -296 c 128,-1,12
 1001 -363 1001 -363 937 -407 c 128,-1,13
 873 -451 873 -451 787.5 -473 c 128,-1,14
 702 -495 702 -495 608 -495 c 0,15,16
 509 -495 509 -495 418.5 -470 c 128,-1,17
 328 -445 328 -445 259 -392 c 128,-1,18
 190 -339 190 -339 148 -258 c 128,-1,19
 106 -177 106 -177 105 -64 c 1,20,-1
 225 -62 l 1,21,22
 227 -148 227 -148 259 -210 c 128,-1,23
 291 -272 291 -272 343.5 -313 c 128,-1,24
 396 -354 396 -354 464.5 -373.5 c 128,-1,25
 533 -393 533 -393 608 -393 c 0,26,27
 677 -393 677 -393 740 -377 c 128,-1,28
 803 -361 803 -361 851 -329.5 c 128,-1,29
 899 -298 899 -298 928 -251 c 128,-1,30
 957 -204 957 -204 957 -141 c 0,31,32
 957 -77 957 -77 929.5 -33 c 128,-1,33
 902 11 902 11 852.5 43.5 c 128,-1,34
 803 76 803 76 735 99.5 c 128,-1,35
 667 123 667 123 587 146 c 0,36,37
 496 170 496 170 410.5 200.5 c 128,-1,38
 325 231 325 231 258 277 c 128,-1,39
 191 323 191 323 151 389 c 128,-1,40
 111 455 111 455 111 551 c 0,41,42
 111 605 111 605 127.5 649 c 128,-1,43
 144 693 144 693 173.5 727.5 c 128,-1,44
 203 762 203 762 244 787 c 128,-1,45
 285 812 285 812 334 827 c 1,46,47
 294 850 294 850 261 878 c 128,-1,48
 228 906 228 906 205 942 c 128,-1,49
 182 978 182 978 169 1022 c 128,-1,50
 156 1066 156 1066 156 1120 c 0,51,52
 156 1208 156 1208 194 1274.5 c 128,-1,53
 232 1341 232 1341 296.5 1386 c 128,-1,54
 361 1431 361 1431 446 1453.5 c 128,-1,55
 531 1476 531 1476 626 1476 c 0,56,57
 733 1476 733 1476 820 1447 c 128,-1,58
 907 1418 907 1418 968.5 1363 c 128,-1,59
 1030 1308 1030 1308 1063.5 1228 c 128,-1,60
 1097 1148 1097 1148 1099 1045 c 1,61,-1
 979 1045 l 1,62,63
 977 1117 977 1117 951.5 1177.5 c 128,-1,64
 926 1238 926 1238 880 1281.5 c 128,-1,65
 834 1325 834 1325 769.5 1349.5 c 128,-1,66
 705 1374 705 1374 626 1374 c 0,67,68
 554 1374 554 1374 490.5 1358.5 c 128,-1,69
 427 1343 427 1343 379.5 1311.5 c 128,-1,70
 332 1280 332 1280 304 1232.5 c 128,-1,71
 276 1185 276 1185 276 1122 c 0,72,73
 276 1055 276 1055 303 1009.5 c 128,-1,74
 330 964 330 964 379 931 c 128,-1,75
 428 898 428 898 496.5 874.5 c 128,-1,76
 565 851 565 851 648 828 c 0,77,78
 739 803 739 803 824.5 773.5 c 128,-1,79
 910 744 910 744 976 699.5 c 128,-1,80
 1042 655 1042 655 1081.5 590.5 c 128,-1,81
 1121 526 1121 526 1121 431 c 0,0,1
598 729 m 0,82,83
 562 739 562 739 527.5 749 c 128,-1,84
 493 759 493 759 461 770 c 1,85,86
 413 764 413 764 371 747.5 c 128,-1,87
 329 731 329 731 298 704.5 c 128,-1,88
 267 678 267 678 249 640 c 128,-1,89
 231 602 231 602 231 553 c 0,90,91
 230 482 230 482 261.5 435 c 128,-1,92
 293 388 293 388 347.5 355 c 128,-1,93
 402 322 402 322 475 298 c 128,-1,94
 548 274 548 274 632 251 c 0,95,96
 663 242 663 242 693.5 233 c 128,-1,97
 724 224 724 224 753 214 c 1,98,99
 802 220 802 220 846.5 236 c 128,-1,100
 891 252 891 252 925.5 278 c 128,-1,101
 960 304 960 304 980.5 341 c 128,-1,102
 1001 378 1001 378 1002 428 c 0,103,104
 1003 495 1003 495 970 542 c 128,-1,105
 937 589 937 589 881 622.5 c 128,-1,106
 825 656 825 656 751.5 681 c 128,-1,107
 678 706 678 706 598 729 c 0,82,83
EndSplineSet
EndChar
StartChar: dieresis
Encoding: 168 168 104
Width: 1229
Flags: W
LayerCount: 2
Back
Fore
SplineSet
310 1396 m 0,0,1
 310 1429 310 1429 332 1453 c 128,-1,2
 354 1477 354 1477 392 1477 c 256,3,4
 430 1477 430 1477 452.5 1453 c 128,-1,5
 475 1429 475 1429 475 1396 c 0,6,7
 475 1364 475 1364 452.5 1340.5 c 128,-1,8
 430 1317 430 1317 392 1317 c 256,9,10
 354 1317 354 1317 332 1340.5 c 128,-1,11
 310 1364 310 1364 310 1396 c 0,0,1
748 1395 m 0,12,13
 748 1428 748 1428 770 1452 c 128,-1,14
 792 1476 792 1476 830 1476 c 256,15,16
 868 1476 868 1476 890.5 1452 c 128,-1,17
 913 1428 913 1428 913 1395 c 0,18,19
 913 1363 913 1363 890.5 1339.5 c 128,-1,20
 868 1316 868 1316 830 1316 c 256,21,22
 792 1316 792 1316 770 1339.5 c 128,-1,23
 748 1363 748 1363 748 1395 c 0,12,13
EndSplineSet
EndChar
StartChar: copyright
Encoding: 169 169 105
Width: 1229
Flags: W
LayerCount: 2
Back
Fore
SplineSet
853 449 m 1,0,1
 854 402 854 402 840 359.5 c 128,-1,2
 826 317 826 317 796.5 284.5 c 128,-1,3
 767 252 767 252 721.5 233.5 c 128,-1,4
 676 215 676 215 615 215 c 0,5,6
 548 215 548 215 500.5 242 c 128,-1,7
 453 269 453 269 422 312 c 128,-1,8
 391 355 391 355 376.5 408.5 c 128,-1,9
 362 462 362 462 362 514 c 2,10,-1
 362 581 l 2,11,12
 362 633 362 633 376.5 685.5 c 128,-1,13
 391 738 391 738 422 780 c 128,-1,14
 453 822 453 822 500.5 848.5 c 128,-1,15
 548 875 548 875 615 875 c 0,16,17
 676 875 676 875 721.5 857 c 128,-1,18
 767 839 767 839 796.5 808 c 128,-1,19
 826 777 826 777 840.5 735 c 128,-1,20
 855 693 855 693 854 646 c 1,21,-1
 775 646 l 1,22,23
 773 677 773 677 765 705 c 128,-1,24
 757 733 757 733 738.5 754 c 128,-1,25
 720 775 720 775 690 787.5 c 128,-1,26
 660 800 660 800 615 800 c 0,27,28
 566 800 566 800 533.5 779.5 c 128,-1,29
 501 759 501 759 481 727 c 128,-1,30
 461 695 461 695 452 656.5 c 128,-1,31
 443 618 443 618 443 582 c 2,32,-1
 443 514 l 2,33,34
 443 478 443 478 452 438.5 c 128,-1,35
 461 399 461 399 481 366.5 c 128,-1,36
 501 334 501 334 533.5 312.5 c 128,-1,37
 566 291 566 291 615 290 c 0,38,39
 660 290 660 290 690 303 c 128,-1,40
 720 316 720 316 738 338 c 128,-1,41
 756 360 756 360 764 389 c 128,-1,42
 772 418 772 418 774 449 c 1,43,-1
 853 449 l 1,0,1
158 546 m 0,44,45
 158 455 158 455 189 366.5 c 128,-1,46
 220 278 220 278 279.5 208 c 128,-1,47
 339 138 339 138 425.5 94.5 c 128,-1,48
 512 51 512 51 623 51 c 256,49,50
 734 51 734 51 820 94.5 c 128,-1,51
 906 138 906 138 965.5 208 c 128,-1,52
 1025 278 1025 278 1056 367 c 128,-1,53
 1087 456 1087 456 1087 546 c 0,54,55
 1087 635 1087 635 1056 722 c 128,-1,56
 1025 809 1025 809 965.5 877.5 c 128,-1,57
 906 946 906 946 819.5 988.5 c 128,-1,58
 733 1031 733 1031 623 1031 c 0,59,60
 512 1031 512 1031 425.5 988.5 c 128,-1,61
 339 946 339 946 279.5 877.5 c 128,-1,62
 220 809 220 809 189 722 c 128,-1,63
 158 635 158 635 158 546 c 0,44,45
87 546 m 0,64,65
 87 651 87 651 123.5 751 c 128,-1,66
 160 851 160 851 229 929.5 c 128,-1,67
 298 1008 298 1008 397.5 1056 c 128,-1,68
 497 1104 497 1104 623 1104 c 256,69,70
 749 1104 749 1104 848.5 1056 c 128,-1,71
 948 1008 948 1008 1016.5 929.5 c 128,-1,72
 1085 851 1085 851 1121.5 751 c 128,-1,73
 1158 651 1158 651 1158 546 c 0,74,75
 1158 439 1158 439 1121.5 337.5 c 128,-1,76
 1085 236 1085 236 1016.5 156 c 128,-1,77
 948 76 948 76 848.5 27.5 c 128,-1,78
 749 -21 749 -21 623 -21 c 0,79,80
 539 -21 539 -21 466.5 1.5 c 128,-1,81
 394 24 394 24 334.5 63.5 c 128,-1,82
 275 103 275 103 229 156.5 c 128,-1,83
 183 210 183 210 151.5 273 c 128,-1,84
 120 336 120 336 103.5 405.5 c 128,-1,85
 87 475 87 475 87 546 c 0,64,65
EndSplineSet
EndChar
StartChar: ordfeminine
Encoding: 170 170 106
Width: 1229
Flags: W
LayerCount: 2
Back
Fore
SplineSet
816 705 m 1,0,1
 808 731 808 731 802 758.5 c 128,-1,2
 796 786 796 786 794 815 c 1,3,4
 758 762 758 762 697 727 c 128,-1,5
 636 692 636 692 555 691 c 0,6,7
 502 691 502 691 455.5 705 c 128,-1,8
 409 719 409 719 375 746.5 c 128,-1,9
 341 774 341 774 321.5 814.5 c 128,-1,10
 302 855 302 855 302 908 c 0,11,12
 302 970 302 970 328.5 1014 c 128,-1,13
 355 1058 355 1058 400.5 1085.5 c 128,-1,14
 446 1113 446 1113 506 1126.5 c 128,-1,15
 566 1140 566 1140 633 1140 c 2,16,-1
 792 1140 l 1,17,-1
 792 1201 l 2,18,19
 790 1282 790 1282 749 1330.5 c 128,-1,20
 708 1379 708 1379 625 1380 c 0,21,22
 586 1380 586 1380 550.5 1372 c 128,-1,23
 515 1364 515 1364 488.5 1346.5 c 128,-1,24
 462 1329 462 1329 445.5 1302 c 128,-1,25
 429 1275 429 1275 427 1237 c 1,26,-1
 319 1243 l 1,27,28
 322 1298 322 1298 346.5 1341.5 c 128,-1,29
 371 1385 371 1385 412.5 1415 c 128,-1,30
 454 1445 454 1445 508.5 1460.5 c 128,-1,31
 563 1476 563 1476 625 1476 c 0,32,33
 689 1476 689 1476 739.5 1457 c 128,-1,34
 790 1438 790 1438 826 1402 c 128,-1,35
 862 1366 862 1366 881 1315 c 128,-1,36
 900 1264 900 1264 901 1200 c 2,37,-1
 901 886 l 2,38,39
 901 793 901 793 928 705 c 1,40,-1
 816 705 l 1,0,1
575 786 m 0,41,42
 606 786 606 786 640 796 c 128,-1,43
 674 806 674 806 704.5 823 c 128,-1,44
 735 840 735 840 758.5 863 c 128,-1,45
 782 886 782 886 792 913 c 1,46,-1
 792 1058 l 1,47,-1
 634 1058 l 2,48,49
 592 1058 592 1058 552 1050 c 128,-1,50
 512 1042 512 1042 480.5 1024.5 c 128,-1,51
 449 1007 449 1007 429.5 979.5 c 128,-1,52
 410 952 410 952 410 912 c 0,53,54
 410 879 410 879 423 855 c 128,-1,55
 436 831 436 831 458 815.5 c 128,-1,56
 480 800 480 800 510 793 c 128,-1,57
 540 786 540 786 575 786 c 0,41,42
EndSplineSet
EndChar
StartChar: registered
Encoding: 174 174 109
Width: 1229
Flags: W
LayerCount: 2
Back
Fore
SplineSet
84 539 m 256,0,1
 84 646 84 646 120.5 746.5 c 128,-1,2
 157 847 157 847 226 925 c 128,-1,3
 295 1003 295 1003 394.5 1050.5 c 128,-1,4
 494 1098 494 1098 620 1098 c 0,5,6
 704 1098 704 1098 776.5 1076.5 c 128,-1,7
 849 1055 849 1055 908 1016.5 c 128,-1,8
 967 978 967 978 1013.5 925.5 c 128,-1,9
 1060 873 1060 873 1091 810.5 c 128,-1,10
 1122 748 1122 748 1138.5 679 c 128,-1,11
 1155 610 1155 610 1155 539 c 0,12,13
 1155 432 1155 432 1118.5 331.5 c 128,-1,14
 1082 231 1082 231 1013.5 152.5 c 128,-1,15
 945 74 945 74 845.5 26.5 c 128,-1,16
 746 -21 746 -21 620 -21 c 256,17,18
 494 -21 494 -21 394.5 26.5 c 128,-1,19
 295 74 295 74 226 152.5 c 128,-1,20
 157 231 157 231 120.5 331.5 c 128,-1,21
 84 432 84 432 84 539 c 256,0,1
154 539 m 256,22,23
 154 448 154 448 185 360.5 c 128,-1,24
 216 273 216 273 276 204 c 128,-1,25
 336 135 336 135 422.5 93 c 128,-1,26
 509 51 509 51 620 51 c 256,27,28
 731 51 731 51 817 93.5 c 128,-1,29
 903 136 903 136 962.5 205 c 128,-1,30
 1022 274 1022 274 1053 361.5 c 128,-1,31
 1084 449 1084 449 1084 539 c 0,32,33
 1084 630 1084 630 1053 717.5 c 128,-1,34
 1022 805 1022 805 962.5 873.5 c 128,-1,35
 903 942 903 942 816.5 984 c 128,-1,36
 730 1026 730 1026 620 1026 c 0,37,38
 509 1026 509 1026 422.5 984 c 128,-1,39
 336 942 336 942 276 873.5 c 128,-1,40
 216 805 216 805 185 717.5 c 128,-1,41
 154 630 154 630 154 539 c 256,22,23
494 491 m 1,42,-1
 494 234 l 1,43,-1
 414 234 l 1,44,-1
 414 856 l 1,45,-1
 621 856 l 2,46,47
 726 854 726 854 785.5 806.5 c 128,-1,48
 845 759 845 759 845 671 c 0,49,50
 844 613 844 613 808.5 574 c 128,-1,51
 773 535 773 535 708 516 c 1,52,-1
 860 234 l 1,53,-1
 776 234 l 1,54,-1
 642 491 l 1,55,-1
 494 491 l 1,42,-1
494 565 m 1,56,-1
 633 565 l 2,57,58
 696 567 696 567 730 596 c 128,-1,59
 764 625 764 625 764 670 c 0,60,61
 765 725 765 725 730.5 752 c 128,-1,62
 696 779 696 779 621 781 c 2,63,-1
 494 781 l 1,64,-1
 494 565 l 1,56,-1
EndSplineSet
EndChar
StartChar: macron
Encoding: 175 175 110
AltUni2: 0002c9.ffffffff.0
Width: 1229
Flags: W
LayerCount: 2
Back
Fore
SplineSet
949 1359 m 1,0,-1
 279 1359 l 1,1,-1
 279 1456 l 1,2,-1
 949 1456 l 1,3,-1
 949 1359 l 1,0,-1
EndSplineSet
EndChar
StartChar: degree
Encoding: 176 176 111
Width: 1229
Flags: W
LayerCount: 2
Back
Fore
SplineSet
370 1226 m 256,0,1
 370 1277 370 1277 389.5 1322 c 128,-1,2
 409 1367 409 1367 442.5 1401.5 c 128,-1,3
 476 1436 476 1436 521 1456 c 128,-1,4
 566 1476 566 1476 616 1476 c 0,5,6
 665 1476 665 1476 709 1456 c 128,-1,7
 753 1436 753 1436 786 1401.5 c 128,-1,8
 819 1367 819 1367 838 1321.5 c 128,-1,9
 857 1276 857 1276 857 1226 c 0,10,11
 857 1175 857 1175 838 1130.5 c 128,-1,12
 819 1086 819 1086 786.5 1052.5 c 128,-1,13
 754 1019 754 1019 710 999.5 c 128,-1,14
 666 980 666 980 616 980 c 256,15,16
 566 980 566 980 521 999.5 c 128,-1,17
 476 1019 476 1019 442.5 1052 c 128,-1,18
 409 1085 409 1085 389.5 1130 c 128,-1,19
 370 1175 370 1175 370 1226 c 256,0,1
460 1226 m 256,20,21
 460 1193 460 1193 472 1165 c 128,-1,22
 484 1137 484 1137 505 1116 c 128,-1,23
 526 1095 526 1095 554.5 1083 c 128,-1,24
 583 1071 583 1071 616 1071 c 0,25,26
 648 1071 648 1071 675.5 1083 c 128,-1,27
 703 1095 703 1095 723.5 1116 c 128,-1,28
 744 1137 744 1137 755.5 1165 c 128,-1,29
 767 1193 767 1193 767 1226 c 256,30,31
 767 1259 767 1259 755.5 1288 c 128,-1,32
 744 1317 744 1317 724 1338.5 c 128,-1,33
 704 1360 704 1360 676.5 1372.5 c 128,-1,34
 649 1385 649 1385 616 1385 c 256,35,36
 583 1385 583 1385 554.5 1372.5 c 128,-1,37
 526 1360 526 1360 505 1338.5 c 128,-1,38
 484 1317 484 1317 472 1288 c 128,-1,39
 460 1259 460 1259 460 1226 c 256,20,21
EndSplineSet
EndChar
StartChar: plusminus
Encoding: 177 177 112
Width: 1229
Flags: W
LayerCount: 2
Back
Fore
SplineSet
681 829 m 1,0,-1
 1072 829 l 1,1,-1
 1072 728 l 1,2,-1
 681 728 l 1,3,-1
 681 289 l 1,4,-1
 570 289 l 1,5,-1
 570 728 l 1,6,-1
 156 728 l 1,7,-1
 156 829 l 1,8,-1
 570 829 l 1,9,-1
 570 1267 l 1,10,-1
 681 1267 l 1,11,-1
 681 829 l 1,0,-1
1038 -1 m 1,12,-1
 203 -1 l 1,13,-1
 203 101 l 1,14,-1
 1038 101 l 1,15,-1
 1038 -1 l 1,12,-1
EndSplineSet
EndChar
StartChar: twosuperior
Encoding: 178 178 113
Width: 1229
Flags: W
LayerCount: 2
Back
Fore
SplineSet
922 667 m 1,0,-1
 351 667 l 1,1,-1
 351 742 l 1,2,-1
 640 1025 l 2,3,4
 668 1052 668 1052 693 1078.5 c 128,-1,5
 718 1105 718 1105 736.5 1131.5 c 128,-1,6
 755 1158 755 1158 766 1185 c 128,-1,7
 777 1212 777 1212 777 1239 c 0,8,9
 777 1272 777 1272 765 1298 c 128,-1,10
 753 1324 753 1324 731.5 1342 c 128,-1,11
 710 1360 710 1360 681 1369.5 c 128,-1,12
 652 1379 652 1379 618 1379 c 0,13,14
 535 1379 535 1379 487.5 1335.5 c 128,-1,15
 440 1292 440 1292 437 1217 c 1,16,-1
 331 1217 l 1,17,18
 332 1272 332 1272 354 1318 c 128,-1,19
 376 1364 376 1364 413.5 1397 c 128,-1,20
 451 1430 451 1430 502.5 1448.5 c 128,-1,21
 554 1467 554 1467 616 1467 c 0,22,23
 673 1467 673 1467 722 1452 c 128,-1,24
 771 1437 771 1437 807 1408 c 128,-1,25
 843 1379 843 1379 863 1337 c 128,-1,26
 883 1295 883 1295 883 1241 c 0,27,28
 883 1199 883 1199 867.5 1161.5 c 128,-1,29
 852 1124 852 1124 826 1088.5 c 128,-1,30
 800 1053 800 1053 767 1019.5 c 128,-1,31
 734 986 734 986 698 952 c 2,32,-1
 485 754 l 1,33,-1
 922 754 l 1,34,-1
 922 667 l 1,0,-1
EndSplineSet
EndChar
StartChar: threesuperior
Encoding: 179 179 114
Width: 1229
Flags: W
LayerCount: 2
Back
Fore
SplineSet
533 1108 m 1,0,-1
 611 1108 l 2,1,2
 647 1108 647 1108 680 1116 c 128,-1,3
 713 1124 713 1124 738.5 1140.5 c 128,-1,4
 764 1157 764 1157 779.5 1182 c 128,-1,5
 795 1207 795 1207 795 1242 c 0,6,7
 795 1275 795 1275 782.5 1300.5 c 128,-1,8
 770 1326 770 1326 747.5 1343 c 128,-1,9
 725 1360 725 1360 694.5 1369 c 128,-1,10
 664 1378 664 1378 628 1378 c 0,11,12
 593 1378 593 1378 563 1369.5 c 128,-1,13
 533 1361 533 1361 509.5 1344.5 c 128,-1,14
 486 1328 486 1328 472 1303 c 128,-1,15
 458 1278 458 1278 456 1246 c 1,16,-1
 351 1246 l 1,17,18
 353 1298 353 1298 375.5 1339 c 128,-1,19
 398 1380 398 1380 435.5 1408 c 128,-1,20
 473 1436 473 1436 522 1451 c 128,-1,21
 571 1466 571 1466 626 1466 c 0,22,23
 683 1466 683 1466 733 1452 c 128,-1,24
 783 1438 783 1438 820.5 1410 c 128,-1,25
 858 1382 858 1382 879.5 1340.5 c 128,-1,26
 901 1299 901 1299 901 1244 c 0,27,28
 900 1179 900 1179 858 1135 c 128,-1,29
 816 1091 816 1091 751 1069 c 1,30,31
 826 1050 826 1050 871.5 1004.5 c 128,-1,32
 917 959 917 959 917 881 c 0,33,34
 917 825 917 825 893.5 783 c 128,-1,35
 870 741 870 741 830.5 712.5 c 128,-1,36
 791 684 791 684 738.5 669.5 c 128,-1,37
 686 655 686 655 629 655 c 0,38,39
 574 655 574 655 522.5 669 c 128,-1,40
 471 683 471 683 430.5 711.5 c 128,-1,41
 390 740 390 740 364.5 783 c 128,-1,42
 339 826 339 826 337 885 c 1,43,-1
 443 885 l 1,44,45
 445 850 445 850 460.5 823.5 c 128,-1,46
 476 797 476 797 501.5 779 c 128,-1,47
 527 761 527 761 560.5 751.5 c 128,-1,48
 594 742 594 742 632 742 c 0,49,50
 669 742 669 742 701.5 751 c 128,-1,51
 734 760 734 760 758.5 778 c 128,-1,52
 783 796 783 796 797 822.5 c 128,-1,53
 811 849 811 849 811 884 c 0,54,55
 811 925 811 925 794 952.5 c 128,-1,56
 777 980 777 980 749 996 c 128,-1,57
 721 1012 721 1012 685 1019 c 128,-1,58
 649 1026 649 1026 611 1026 c 2,59,-1
 533 1026 l 1,60,-1
 533 1108 l 1,0,-1
EndSplineSet
EndChar
StartChar: acute
Encoding: 180 180 115
Width: 1229
Flags: W
LayerCount: 2
Back
Fore
SplineSet
634 1498 m 1,0,-1
 779 1498 l 1,1,-1
 549 1232 l 1,2,-1
 450 1232 l 1,3,-1
 634 1498 l 1,0,-1
EndSplineSet
EndChar
StartChar: mu
Encoding: 181 181 116
Width: 1229
Flags: W
LayerCount: 2
Back
Fore
SplineSet
324 1082 m 1,0,-1
 324 449 l 2,1,2
 325 362 325 362 341 293.5 c 128,-1,3
 357 225 357 225 389 178 c 128,-1,4
 421 131 421 131 470 106 c 128,-1,5
 519 81 519 81 587 81 c 0,6,7
 659 81 659 81 712.5 99 c 128,-1,8
 766 117 766 117 804 150 c 128,-1,9
 842 183 842 183 866 228.5 c 128,-1,10
 890 274 890 274 903 329 c 1,11,-1
 903 1082 l 1,12,-1
 1023 1082 l 1,13,-1
 1023 0 l 1,14,-1
 914 0 l 1,15,-1
 907 162 l 1,16,17
 861 78 861 78 785 29.5 c 128,-1,18
 709 -19 709 -19 596 -20 c 0,19,20
 506 -20 506 -20 437.5 14.5 c 128,-1,21
 369 49 369 49 324 110 c 1,22,-1
 324 -416 l 1,23,-1
 206 -416 l 1,24,-1
 206 1082 l 1,25,-1
 324 1082 l 1,0,-1
EndSplineSet
EndChar
StartChar: paragraph
Encoding: 182 182 117
Width: 1229
Flags: W
LayerCount: 2
Back
Fore
SplineSet
830 0 m 1,0,-1
 830 520 l 1,1,-1
 724 520 l 2,2,3
 613 520 613 520 522.5 554 c 128,-1,4
 432 588 432 588 367.5 649.5 c 128,-1,5
 303 711 303 711 268 797 c 128,-1,6
 233 883 233 883 233 988 c 0,7,8
 233 1092 233 1092 268 1178 c 128,-1,9
 303 1264 303 1264 367.5 1325.5 c 128,-1,10
 432 1387 432 1387 522.5 1421 c 128,-1,11
 613 1455 613 1455 724 1456 c 2,12,-1
 950 1456 l 1,13,-1
 950 0 l 1,14,-1
 830 0 l 1,0,-1
EndSplineSet
EndChar
StartChar: periodcentered
Encoding: 183 183 118
Width: 1229
Flags: W
LayerCount: 2
Back
Fore
SplineSet
534 717 m 256,0,1
 534 751 534 751 557 775.5 c 128,-1,2
 580 800 580 800 619 800 c 256,3,4
 658 800 658 800 681.5 775.5 c 128,-1,5
 705 751 705 751 705 717 c 256,6,7
 705 683 705 683 681.5 659 c 128,-1,8
 658 635 658 635 619 635 c 256,9,10
 580 635 580 635 557 659 c 128,-1,11
 534 683 534 683 534 717 c 256,0,1
EndSplineSet
EndChar
StartChar: cedilla
Encoding: 184 184 119
Width: 1229
Flags: W
LayerCount: 2
Back
Fore
SplineSet
624 0 m 1,0,-1
 612 -64 l 1,1,2
 645 -69 645 -69 674.5 -81 c 128,-1,3
 704 -93 704 -93 727 -113 c 128,-1,4
 750 -133 750 -133 763.5 -163 c 128,-1,5
 777 -193 777 -193 777 -235 c 0,6,7
 777 -287 777 -287 753 -324 c 128,-1,8
 729 -361 729 -361 688.5 -385.5 c 128,-1,9
 648 -410 648 -410 594.5 -422 c 128,-1,10
 541 -434 541 -434 483 -435 c 1,11,-1
 476 -357 l 1,12,13
 509 -357 509 -357 545 -351 c 128,-1,14
 581 -345 581 -345 610 -331.5 c 128,-1,15
 639 -318 639 -318 658.5 -295 c 128,-1,16
 678 -272 678 -272 678 -237 c 0,17,18
 678 -205 678 -205 664 -185 c 128,-1,19
 650 -165 650 -165 625.5 -153.5 c 128,-1,20
 601 -142 601 -142 569 -136.5 c 128,-1,21
 537 -131 537 -131 503 -127 c 1,22,-1
 531 0 l 1,23,-1
 624 0 l 1,0,-1
EndSplineSet
EndChar
StartChar: onesuperior
Encoding: 185 185 120
Width: 1229
Flags: W
LayerCount: 2
Back
Fore
SplineSet
743 665 m 1,0,-1
 638 665 l 1,1,-1
 638 1328 l 1,2,-1
 406 1258 l 1,3,-1
 406 1348 l 1,4,-1
 730 1455 l 1,5,-1
 743 1455 l 1,6,-1
 743 665 l 1,0,-1
EndSplineSet
EndChar
StartChar: ordmasculine
Encoding: 186 186 121
Width: 1229
Flags: W
LayerCount: 2
Back
Fore
SplineSet
291 1141 m 2,0,1
 291 1211 291 1211 313.5 1272 c 128,-1,2
 336 1333 336 1333 377.5 1378.5 c 128,-1,3
 419 1424 419 1424 479 1450 c 128,-1,4
 539 1476 539 1476 614 1476 c 0,5,6
 690 1476 690 1476 749.5 1450 c 128,-1,7
 809 1424 809 1424 850.5 1378.5 c 128,-1,8
 892 1333 892 1333 914.5 1272 c 128,-1,9
 937 1211 937 1211 937 1141 c 2,10,-1
 937 1024 l 2,11,12
 937 954 937 954 914.5 893 c 128,-1,13
 892 832 892 832 851 787 c 128,-1,14
 810 742 810 742 750.5 716 c 128,-1,15
 691 690 691 690 616 690 c 0,16,17
 540 690 540 690 480 716 c 128,-1,18
 420 742 420 742 378 787 c 128,-1,19
 336 832 336 832 313.5 893 c 128,-1,20
 291 954 291 954 291 1024 c 2,21,-1
 291 1141 l 2,0,1
399 1024 m 2,22,23
 400 974 400 974 413.5 930.5 c 128,-1,24
 427 887 427 887 454 854.5 c 128,-1,25
 481 822 481 822 521.5 803.5 c 128,-1,26
 562 785 562 785 616 785 c 0,27,28
 668 785 668 785 708 804 c 128,-1,29
 748 823 748 823 775 855 c 128,-1,30
 802 887 802 887 815.5 930.5 c 128,-1,31
 829 974 829 974 830 1024 c 2,32,-1
 830 1141 l 2,33,34
 829 1190 829 1190 815 1233.5 c 128,-1,35
 801 1277 801 1277 774 1309.5 c 128,-1,36
 747 1342 747 1342 707 1361 c 128,-1,37
 667 1380 667 1380 614 1380 c 256,38,39
 561 1380 561 1380 521 1361 c 128,-1,40
 481 1342 481 1342 454 1309.5 c 128,-1,41
 427 1277 427 1277 413.5 1233.5 c 128,-1,42
 400 1190 400 1190 399 1141 c 2,43,-1
 399 1024 l 2,22,23
EndSplineSet
EndChar
StartChar: questiondown
Encoding: 191 191 126
Width: 1229
Flags: W
LayerCount: 2
Back
Fore
SplineSet
695 684 m 1,0,1
 694 624 694 624 689 581.5 c 128,-1,2
 684 539 684 539 669 504 c 128,-1,3
 654 469 654 469 628 437 c 128,-1,4
 602 405 602 405 559 365 c 0,5,6
 520 325 520 325 482.5 283.5 c 128,-1,7
 445 242 445 242 416 196 c 128,-1,8
 387 150 387 150 369.5 99 c 128,-1,9
 352 48 352 48 352 -12 c 0,10,11
 352 -74 352 -74 369.5 -123.5 c 128,-1,12
 387 -173 387 -173 421 -207.5 c 128,-1,13
 455 -242 455 -242 503.5 -261 c 128,-1,14
 552 -280 552 -280 614 -280 c 0,15,16
 670 -280 670 -280 717.5 -262.5 c 128,-1,17
 765 -245 765 -245 799.5 -212 c 128,-1,18
 834 -179 834 -179 854.5 -132 c 128,-1,19
 875 -85 875 -85 877 -26 c 1,20,-1
 996 -26 l 1,21,22
 994 -107 994 -107 965.5 -173.5 c 128,-1,23
 937 -240 937 -240 887 -287 c 128,-1,24
 837 -334 837 -334 767.5 -360 c 128,-1,25
 698 -386 698 -386 614 -386 c 0,26,27
 525 -386 525 -386 454.5 -359 c 128,-1,28
 384 -332 384 -332 334.5 -283.5 c 128,-1,29
 285 -235 285 -235 258.5 -166.5 c 128,-1,30
 232 -98 232 -98 232 -14 c 0,31,32
 232 58 232 58 253.5 122 c 128,-1,33
 275 186 275 186 311 242.5 c 128,-1,34
 347 299 347 299 393 349 c 128,-1,35
 439 399 439 399 487 443 c 0,36,37
 517 471 517 471 535 497.5 c 128,-1,38
 553 524 553 524 562 552 c 128,-1,39
 571 580 571 580 573.5 612 c 128,-1,40
 576 644 576 644 576 684 c 1,41,-1
 695 684 l 1,0,1
544 1018 m 256,42,43
 544 1052 544 1052 567.5 1076.5 c 128,-1,44
 591 1101 591 1101 630 1101 c 256,45,46
 669 1101 669 1101 692 1076.5 c 128,-1,47
 715 1052 715 1052 715 1018 c 256,48,49
 715 984 715 984 692 960 c 128,-1,50
 669 936 669 936 630 936 c 256,51,52
 591 936 591 936 567.5 960 c 128,-1,53
 544 984 544 984 544 1018 c 256,42,43
EndSplineSet
EndChar
StartChar: AE
Encoding: 198 198 127
Width: 1229
Flags: W
LayerCount: 2
Back
Fore
SplineSet
1171 0 m 1,0,-1
 668 0 l 1,1,-1
 662 389 l 1,2,-1
 320 389 l 1,3,-1
 180 0 l 1,4,-1
 55 0 l 1,5,-1
 607 1456 l 1,6,-1
 1141 1456 l 1,7,-1
 1141 1354 l 1,8,-1
 759 1354 l 1,9,-1
 767 809 l 1,10,-1
 1099 809 l 1,11,-1
 1099 707 l 1,12,-1
 769 707 l 1,13,-1
 777 101 l 1,14,-1
 1171 101 l 1,15,-1
 1171 0 l 1,0,-1
361 502 m 1,16,-1
 661 502 l 1,17,-1
 650 1300 l 1,18,-1
 361 502 l 1,16,-1
EndSplineSet
EndChar
StartChar: multiply
Encoding: 215 215 128
Width: 1229
Flags: W
LayerCount: 2
Back
Fore
SplineSet
196 179 m 1,0,-1
 554 544 l 1,1,-1
 211 894 l 1,2,-1
 290 974 l 1,3,-1
 632 624 l 1,4,-1
 975 974 l 1,5,-1
 1054 894 l 1,6,-1
 711 544 l 1,7,-1
 1070 179 l 1,8,-1
 991 100 l 1,9,-1
 632 464 l 1,10,-1
 275 100 l 1,11,-1
 196 179 l 1,0,-1
EndSplineSet
EndChar
StartChar: Oslash
Encoding: 216 216 129
Width: 1229
Flags: W
LayerCount: 2
Back
Fore
SplineSet
1093 631 m 2,0,1
 1092 557 1092 557 1080 479.5 c 128,-1,2
 1068 402 1068 402 1042.5 329.5 c 128,-1,3
 1017 257 1017 257 978 193.5 c 128,-1,4
 939 130 939 130 885.5 82.5 c 128,-1,5
 832 35 832 35 762 7.5 c 128,-1,6
 692 -20 692 -20 605 -20 c 0,7,8
 514 -20 514 -20 442.5 9.5 c 128,-1,9
 371 39 371 39 316 90 c 1,10,-1
 213 -84 l 1,11,-1
 110 -84 l 1,12,-1
 254 160 l 1,13,14
 218 208 218 208 192 265 c 128,-1,15
 166 322 166 322 148.5 383 c 128,-1,16
 131 444 131 444 122.5 507 c 128,-1,17
 114 570 114 570 114 631 c 2,18,-1
 114 823 l 2,19,20
 115 897 115 897 127.5 974.5 c 128,-1,21
 140 1052 140 1052 165 1124.5 c 128,-1,22
 190 1197 190 1197 229.5 1261 c 128,-1,23
 269 1325 269 1325 323 1373 c 128,-1,24
 377 1421 377 1421 446.5 1448.5 c 128,-1,25
 516 1476 516 1476 603 1476 c 0,26,27
 713 1476 713 1476 795 1433 c 128,-1,28
 877 1390 877 1390 936 1319 c 1,29,-1
 1046 1505 l 1,30,-1
 1149 1505 l 1,31,-1
 991 1238 l 1,32,33
 1043 1145 1043 1145 1067 1037 c 128,-1,34
 1091 929 1091 929 1093 823 c 2,35,-1
 1093 631 l 2,0,1
232 631 m 2,36,37
 232 587 232 587 237 540 c 128,-1,38
 242 493 242 493 252.5 446 c 128,-1,39
 263 399 263 399 278.5 353.5 c 128,-1,40
 294 308 294 308 317 268 c 1,41,-1
 875 1215 l 1,42,43
 831 1283 831 1283 764.5 1325.5 c 128,-1,44
 698 1368 698 1368 603 1368 c 0,45,46
 533 1368 533 1368 478.5 1343.5 c 128,-1,47
 424 1319 424 1319 383 1278 c 128,-1,48
 342 1237 342 1237 313.5 1182.5 c 128,-1,49
 285 1128 285 1128 267 1068 c 128,-1,50
 249 1008 249 1008 241 945 c 128,-1,51
 233 882 233 882 232 825 c 2,52,-1
 232 631 l 2,36,37
975 825 m 2,53,54
 974 896 974 896 962 972.5 c 128,-1,55
 950 1049 950 1049 922 1121 c 1,56,-1
 373 188 l 1,57,58
 415 142 415 142 472.5 114.5 c 128,-1,59
 530 87 530 87 605 87 c 0,60,61
 676 87 676 87 730.5 111.5 c 128,-1,62
 785 136 785 136 826 177 c 128,-1,63
 867 218 867 218 895.5 272.5 c 128,-1,64
 924 327 924 327 941.5 387.5 c 128,-1,65
 959 448 959 448 966.5 510.5 c 128,-1,66
 974 573 974 573 975 631 c 2,67,-1
 975 825 l 2,53,54
EndSplineSet
EndChar
StartChar: Thorn
Encoding: 222 222 130
Width: 1229
Flags: W
LayerCount: 2
Back
Fore
SplineSet
310 1456 m 1,0,-1
 310 1152 l 1,1,-1
 634 1152 l 2,2,3
 738 1152 738 1152 824 1122.5 c 128,-1,4
 910 1093 910 1093 972 1039.5 c 128,-1,5
 1034 986 1034 986 1068.5 909.5 c 128,-1,6
 1103 833 1103 833 1103 738 c 256,7,8
 1103 643 1103 643 1068.5 566.5 c 128,-1,9
 1034 490 1034 490 972 436.5 c 128,-1,10
 910 383 910 383 824 353.5 c 128,-1,11
 738 324 738 324 634 324 c 2,12,-1
 310 324 l 1,13,-1
 310 0 l 1,14,-1
 191 0 l 1,15,-1
 191 1456 l 1,16,-1
 310 1456 l 1,0,-1
310 1051 m 1,17,-1
 310 425 l 1,18,-1
 634 425 l 2,19,20
 712 426 712 426 776 449 c 128,-1,21
 840 472 840 472 886.5 513 c 128,-1,22
 933 554 933 554 958.5 610.5 c 128,-1,23
 984 667 984 667 984 736 c 256,24,25
 984 805 984 805 959 863 c 128,-1,26
 934 921 934 921 888 962.5 c 128,-1,27
 842 1004 842 1004 777.5 1027 c 128,-1,28
 713 1050 713 1050 634 1051 c 2,29,-1
 310 1051 l 1,17,-1
EndSplineSet
EndChar
StartChar: germandbls
Encoding: 223 223 131
Width: 1229
Flags: W
LayerCount: 2
Back
Fore
SplineSet
312 0 m 1,0,-1
 193 0 l 1,1,-1
 193 1116 l 2,2,3
 193 1209 193 1209 217 1287.5 c 128,-1,4
 241 1366 241 1366 286.5 1423.5 c 128,-1,5
 332 1481 332 1481 399.5 1513.5 c 128,-1,6
 467 1546 467 1546 555 1546 c 0,7,8
 624 1546 624 1546 685 1525 c 128,-1,9
 746 1504 746 1504 791.5 1465 c 128,-1,10
 837 1426 837 1426 864 1369 c 128,-1,11
 891 1312 891 1312 891 1239 c 0,12,13
 891 1171 891 1171 872.5 1118 c 128,-1,14
 854 1065 854 1065 831.5 1018.5 c 128,-1,15
 809 972 809 972 790 926 c 128,-1,16
 771 880 771 880 772 826 c 0,17,18
 772 777 772 777 795.5 737.5 c 128,-1,19
 819 698 819 698 853.5 662 c 128,-1,20
 888 626 888 626 928 590.5 c 128,-1,21
 968 555 968 555 1002 513 c 128,-1,22
 1036 471 1036 471 1059 419.5 c 128,-1,23
 1082 368 1082 368 1082 301 c 0,24,25
 1082 224 1082 224 1055.5 164.5 c 128,-1,26
 1029 105 1029 105 982.5 63.5 c 128,-1,27
 936 22 936 22 874 0.5 c 128,-1,28
 812 -21 812 -21 741 -21 c 0,29,30
 702 -21 702 -21 659.5 -16 c 128,-1,31
 617 -11 617 -11 576.5 -0.5 c 128,-1,32
 536 10 536 10 500.5 24.5 c 128,-1,33
 465 39 465 39 440 59 c 1,34,-1
 473 160 l 1,35,36
 496 144 496 144 526 129.5 c 128,-1,37
 556 115 556 115 589.5 104 c 128,-1,38
 623 93 623 93 658 86.5 c 128,-1,39
 693 80 693 80 728 80 c 0,40,41
 780 80 780 80 823.5 96 c 128,-1,42
 867 112 867 112 898 141 c 128,-1,43
 929 170 929 170 946 210.5 c 128,-1,44
 963 251 963 251 963 301 c 0,45,46
 963 355 963 355 940 397 c 128,-1,47
 917 439 917 439 882.5 476 c 128,-1,48
 848 513 848 513 808 548.5 c 128,-1,49
 768 584 768 584 733.5 625 c 128,-1,50
 699 666 699 666 675.5 715 c 128,-1,51
 652 764 652 764 652 828 c 0,52,53
 652 886 652 886 671 935 c 128,-1,54
 690 984 690 984 713 1031 c 128,-1,55
 736 1078 736 1078 755 1126.5 c 128,-1,56
 774 1175 774 1175 774 1232 c 0,57,58
 774 1279 774 1279 756.5 1318 c 128,-1,59
 739 1357 739 1357 710 1385 c 128,-1,60
 681 1413 681 1413 643 1428.5 c 128,-1,61
 605 1444 605 1444 565 1444 c 0,62,63
 500 1445 500 1445 453 1420.5 c 128,-1,64
 406 1396 406 1396 375 1352 c 128,-1,65
 344 1308 344 1308 328.5 1247.5 c 128,-1,66
 313 1187 313 1187 312 1116 c 2,67,-1
 312 0 l 1,0,-1
EndSplineSet
Substitution2: "'smcp' Lowercase to Small Capitals lookup 0 subtable" Germandbls.smcp
EndChar
StartChar: ae
Encoding: 230 230 132
Width: 1229
Flags: W
LayerCount: 2
Back
Fore
SplineSet
894 -20 m 0,0,1
 784 -19 784 -19 712.5 28.5 c 128,-1,2
 641 76 641 76 601 153 c 1,3,4
 582 118 582 118 554.5 86.5 c 128,-1,5
 527 55 527 55 492 31.5 c 128,-1,6
 457 8 457 8 414.5 -6 c 128,-1,7
 372 -20 372 -20 323 -20 c 0,8,9
 255 -20 255 -20 204 3.5 c 128,-1,10
 153 27 153 27 118 68 c 128,-1,11
 83 109 83 109 65 164.5 c 128,-1,12
 47 220 47 220 47 284 c 0,13,14
 47 361 47 361 70.5 425 c 128,-1,15
 94 489 94 489 140 535 c 128,-1,16
 186 581 186 581 252.5 606.5 c 128,-1,17
 319 632 319 632 406 632 c 2,18,-1
 537 632 l 1,19,-1
 537 802 l 2,20,21
 537 839 537 839 529.5 874.5 c 128,-1,22
 522 910 522 910 503.5 937.5 c 128,-1,23
 485 965 485 965 452 982.5 c 128,-1,24
 419 1000 419 1000 367 1000 c 0,25,26
 323 1000 323 1000 288 986 c 128,-1,27
 253 972 253 972 229 947 c 128,-1,28
 205 922 205 922 192.5 887.5 c 128,-1,29
 180 853 180 853 181 812 c 1,30,-1
 65 816 l 1,31,32
 64 881 64 881 85.5 933.5 c 128,-1,33
 107 986 107 986 147 1023.5 c 128,-1,34
 187 1061 187 1061 242.5 1081.5 c 128,-1,35
 298 1102 298 1102 366 1102 c 0,36,37
 467 1102 467 1102 529 1062 c 128,-1,38
 591 1022 591 1022 621 957 c 1,39,40
 660 1021 660 1021 722 1061.5 c 128,-1,41
 784 1102 784 1102 872 1102 c 0,42,43
 956 1102 956 1102 1015 1070.5 c 128,-1,44
 1074 1039 1074 1039 1111.5 986.5 c 128,-1,45
 1149 934 1149 934 1166.5 866 c 128,-1,46
 1184 798 1184 798 1184 725 c 2,47,-1
 1183 538 l 1,48,-1
 653 538 l 1,49,-1
 653 405 l 2,50,51
 653 346 653 346 665 288.5 c 128,-1,52
 677 231 677 231 706.5 184.5 c 128,-1,53
 736 138 736 138 786 109.5 c 128,-1,54
 836 81 836 81 912 81 c 0,55,56
 951 81 951 81 983.5 90 c 128,-1,57
 1016 99 1016 99 1042.5 113 c 128,-1,58
 1069 127 1069 127 1090 145 c 128,-1,59
 1111 163 1111 163 1129 181 c 1,60,-1
 1166 94 l 1,61,62
 1148 72 1148 72 1122.5 51.5 c 128,-1,63
 1097 31 1097 31 1063.5 15 c 128,-1,64
 1030 -1 1030 -1 988 -10.5 c 128,-1,65
 946 -20 946 -20 894 -20 c 0,0,1
341 80 m 0,66,67
 371 80 371 80 400.5 90 c 128,-1,68
 430 100 430 100 456 117 c 128,-1,69
 482 134 482 134 503 156 c 128,-1,70
 524 178 524 178 539 202 c 1,71,-1
 538 536 l 1,72,-1
 408 536 l 2,73,74
 350 535 350 535 304.5 514.5 c 128,-1,75
 259 494 259 494 228 459 c 128,-1,76
 197 424 197 424 181 378 c 128,-1,77
 165 332 165 332 165 280 c 0,78,79
 165 240 165 240 176 204 c 128,-1,80
 187 168 187 168 208.5 140 c 128,-1,81
 230 112 230 112 263 96 c 128,-1,82
 296 80 296 80 341 80 c 0,66,67
653 636 m 1,83,-1
 1071 636 l 1,84,-1
 1070 745 l 2,85,86
 1068 788 1068 788 1058 833 c 128,-1,87
 1048 878 1048 878 1025 915 c 128,-1,88
 1002 952 1002 952 964.5 976 c 128,-1,89
 927 1000 927 1000 872 1000 c 0,90,91
 807 1000 807 1000 765 968 c 128,-1,92
 723 936 723 936 698.5 887.5 c 128,-1,93
 674 839 674 839 663.5 780.5 c 128,-1,94
 653 722 653 722 653 670 c 2,95,-1
 653 636 l 1,83,-1
EndSplineSet
EndChar
StartChar: eth
Encoding: 240 240 133
Width: 1229
Flags: W
LayerCount: 2
Back
Fore
SplineSet
796 1293 m 1,0,1
 911 1169 911 1169 974 1002.5 c 128,-1,2
 1037 836 1037 836 1038 623 c 2,3,-1
 1038 552 l 2,4,5
 1038 435 1038 435 1005 331.5 c 128,-1,6
 972 228 972 228 909.5 150 c 128,-1,7
 847 72 847 72 756.5 26 c 128,-1,8
 666 -20 666 -20 551 -20 c 0,9,10
 450 -20 450 -20 365 17.5 c 128,-1,11
 280 55 280 55 218 121 c 128,-1,12
 156 187 156 187 121 276 c 128,-1,13
 86 365 86 365 86 466 c 0,14,15
 86 575 86 575 120 666.5 c 128,-1,16
 154 758 154 758 216.5 824.5 c 128,-1,17
 279 891 279 891 367.5 928 c 128,-1,18
 456 965 456 965 565 965 c 0,19,20
 665 965 665 965 753 925.5 c 128,-1,21
 841 886 841 886 901 817 c 1,22,23
 878 949 878 949 824 1052 c 128,-1,24
 770 1155 770 1155 690 1235 c 1,25,-1
 439 1096 l 1,26,-1
 388 1170 l 1,27,-1
 619 1297 l 1,28,29
 559 1345 559 1345 489 1381.5 c 128,-1,30
 419 1418 419 1418 341 1446 c 1,31,-1
 380 1550 l 1,32,33
 583 1483 583 1483 729 1358 c 1,34,-1
 955 1483 l 1,35,-1
 1007 1410 l 1,36,-1
 796 1293 l 1,0,1
918 625 m 2,37,38
 918 640 918 640 917.5 655 c 128,-1,39
 917 670 917 670 916 684 c 1,40,41
 896 724 896 724 860.5 756.5 c 128,-1,42
 825 789 825 789 779 812.5 c 128,-1,43
 733 836 733 836 678 848.5 c 128,-1,44
 623 861 623 861 565 861 c 0,45,46
 480 861 480 861 413.5 830 c 128,-1,47
 347 799 347 799 301 745.5 c 128,-1,48
 255 692 255 692 231 620 c 128,-1,49
 207 548 207 548 207 466 c 0,50,51
 207 389 207 389 232.5 319.5 c 128,-1,52
 258 250 258 250 303.5 197.5 c 128,-1,53
 349 145 349 145 413 114 c 128,-1,54
 477 83 477 83 555 83 c 0,55,56
 646 83 646 83 714 122 c 128,-1,57
 782 161 782 161 827 226 c 128,-1,58
 872 291 872 291 895 375.5 c 128,-1,59
 918 460 918 460 918 552 c 2,60,-1
 918 625 l 2,37,38
EndSplineSet
Substitution2: "'smcp' Lowercase to Small Capitals lookup 0 subtable" Eth.smcp
EndChar
StartChar: divide
Encoding: 247 247 134
Width: 1229
Flags: W
LayerCount: 2
Back
Fore
SplineSet
1113 644 m 1,0,-1
 115 644 l 1,1,-1
 115 760 l 1,2,-1
 1113 760 l 1,3,-1
 1113 644 l 1,0,-1
539 1087 m 0,4,5
 539 1120 539 1120 561 1144 c 128,-1,6
 583 1168 583 1168 621 1168 c 256,7,8
 659 1168 659 1168 681.5 1144 c 128,-1,9
 704 1120 704 1120 704 1087 c 0,10,11
 704 1055 704 1055 681.5 1031.5 c 128,-1,12
 659 1008 659 1008 621 1008 c 256,13,14
 583 1008 583 1008 561 1031.5 c 128,-1,15
 539 1055 539 1055 539 1087 c 0,4,5
538 292 m 0,16,17
 538 324 538 324 560 348 c 128,-1,18
 582 372 582 372 620 372 c 256,19,20
 658 372 658 372 680.5 348 c 128,-1,21
 703 324 703 324 703 292 c 0,22,23
 703 259 703 259 680.5 235.5 c 128,-1,24
 658 212 658 212 620 212 c 256,25,26
 582 212 582 212 560 235.5 c 128,-1,27
 538 259 538 259 538 292 c 0,16,17
EndSplineSet
EndChar
StartChar: oslash
Encoding: 248 248 135
Width: 1229
Flags: W
LayerCount: 2
Back
Fore
SplineSet
131 557 m 2,0,1
 132 667 132 667 165 766 c 128,-1,2
 198 865 198 865 259.5 939.5 c 128,-1,3
 321 1014 321 1014 410.5 1058 c 128,-1,4
 500 1102 500 1102 613 1102 c 0,5,6
 667 1102 667 1102 715 1091.5 c 128,-1,7
 763 1081 763 1081 806 1062 c 1,8,-1
 880 1214 l 1,9,-1
 973 1214 l 1,10,-1
 879 1022 l 1,11,12
 931 986 931 986 971.5 935.5 c 128,-1,13
 1012 885 1012 885 1039.5 825 c 128,-1,14
 1067 765 1067 765 1081.5 697 c 128,-1,15
 1096 629 1096 629 1097 557 c 2,16,-1
 1097 524 l 2,17,18
 1096 414 1096 414 1063.5 315 c 128,-1,19
 1031 216 1031 216 969 141.5 c 128,-1,20
 907 67 907 67 818 23.5 c 128,-1,21
 729 -20 729 -20 615 -20 c 0,22,23
 552 -20 552 -20 497 -6.5 c 128,-1,24
 442 7 442 7 394 32 c 1,25,-1
 310 -140 l 1,26,-1
 217 -140 l 1,27,-1
 324 78 l 1,28,29
 277 115 277 115 241.5 164 c 128,-1,30
 206 213 206 213 181.5 270 c 128,-1,31
 157 327 157 327 144 391.5 c 128,-1,32
 131 456 131 456 131 524 c 2,33,-1
 131 557 l 2,0,1
977 557 m 2,34,35
 977 610 977 610 967 662 c 128,-1,36
 957 714 957 714 938.5 761 c 128,-1,37
 920 808 920 808 892.5 849 c 128,-1,38
 865 890 865 890 829 921 c 1,39,-1
 441 127 l 1,40,41
 516 81 516 81 615 81 c 0,42,43
 703 81 703 81 770.5 118 c 128,-1,44
 838 155 838 155 883.5 216.5 c 128,-1,45
 929 278 929 278 953 358 c 128,-1,46
 977 438 977 438 977 524 c 2,47,-1
 977 557 l 2,34,35
251 524 m 2,48,49
 251 424 251 424 282.5 334 c 128,-1,50
 314 244 314 244 374 181 c 1,51,-1
 759 967 l 1,52,53
 727 983 727 983 690.5 991.5 c 128,-1,54
 654 1000 654 1000 613 1000 c 0,55,56
 525 1000 525 1000 457.5 962.5 c 128,-1,57
 390 925 390 925 344.5 863.5 c 128,-1,58
 299 802 299 802 275 722 c 128,-1,59
 251 642 251 642 251 557 c 2,60,-1
 251 524 l 2,48,49
EndSplineSet
EndChar
StartChar: thorn
Encoding: 254 254 136
Width: 1229
Flags: W
LayerCount: 2
Back
Fore
SplineSet
1068 530 m 2,0,1
 1068 425 1068 425 1043.5 325.5 c 128,-1,2
 1019 226 1019 226 968 149.5 c 128,-1,3
 917 73 917 73 839.5 26.5 c 128,-1,4
 762 -20 762 -20 655 -20 c 0,5,6
 550 -20 550 -20 463 20.5 c 128,-1,7
 376 61 376 61 316 137 c 1,8,-1
 316 -416 l 1,9,-1
 196 -416 l 1,10,-1
 196 1546 l 1,11,-1
 316 1546 l 1,12,-1
 316 933 l 1,13,14
 374 1014 374 1014 460 1058 c 128,-1,15
 546 1102 546 1102 653 1102 c 0,16,17
 761 1102 761 1102 839.5 1056.5 c 128,-1,18
 918 1011 918 1011 968.5 934.5 c 128,-1,19
 1019 858 1019 858 1043.5 758.5 c 128,-1,20
 1068 659 1068 659 1068 551 c 2,21,-1
 1068 530 l 2,0,1
948 551 m 2,22,23
 948 632 948 632 930.5 712 c 128,-1,24
 913 792 913 792 875 855.5 c 128,-1,25
 837 919 837 919 775.5 958.5 c 128,-1,26
 714 998 714 998 626 998 c 0,27,28
 572 998 572 998 524.5 983 c 128,-1,29
 477 968 477 968 437.5 941.5 c 128,-1,30
 398 915 398 915 367.5 878 c 128,-1,31
 337 841 337 841 316 796 c 1,32,-1
 316 265 l 1,33,34
 360 180 360 180 441.5 130.5 c 128,-1,35
 523 81 523 81 628 81 c 0,36,37
 716 81 716 81 777 121 c 128,-1,38
 838 161 838 161 876 224.5 c 128,-1,39
 914 288 914 288 931 368.5 c 128,-1,40
 948 449 948 449 948 530 c 2,41,-1
 948 551 l 2,22,23
EndSplineSet
EndChar
StartChar: Aogonek
Encoding: 260 260 549
Width: 1229
Flags: W
LayerCount: 2
Back
Fore
SplineSet
683 1456 m 1,0,-1
 1153 0 l 1,1,-1
 1129 0 l 1,2,3
 1095 -21 1095 -21 1061.5 -46 c 128,-1,4
 1028 -71 1028 -71 1002 -100 c 128,-1,5
 976 -129 976 -129 959.5 -162 c 128,-1,6
 943 -195 943 -195 943 -232 c 0,7,8
 944 -272 944 -272 966.5 -294.5 c 128,-1,9
 989 -317 989 -317 1032 -318 c 0,10,11
 1064 -319 1064 -319 1092 -309 c 128,-1,12
 1120 -299 1120 -299 1141 -285 c 1,13,-1
 1164 -369 l 1,14,15
 1135 -388 1135 -388 1097.5 -400.5 c 128,-1,16
 1060 -413 1060 -413 1009 -413 c 0,17,18
 972 -413 972 -413 940.5 -402 c 128,-1,19
 909 -391 909 -391 885.5 -369 c 128,-1,20
 862 -347 862 -347 849 -316 c 128,-1,21
 836 -285 836 -285 836 -244 c 0,22,23
 836 -206 836 -206 851.5 -170 c 128,-1,24
 867 -134 867 -134 893.5 -101 c 128,-1,25
 920 -68 920 -68 955 -38.5 c 128,-1,26
 990 -9 990 -9 1028 15 c 1,27,-1
 905 406 l 1,28,-1
 351 406 l 1,29,-1
 222 0 l 1,30,-1
 101 0 l 1,31,-1
 575 1456 l 1,32,-1
 683 1456 l 1,0,-1
385 513 m 1,33,-1
 871 513 l 1,34,-1
 629 1279 l 1,35,-1
 385 513 l 1,33,-1
EndSplineSet
Substitution2: "'smcp' Lowercase to Small Capitals lookup 0 subtable" Aogonek.smcp
EndChar
StartChar: aogonek
Encoding: 261 261 550
Width: 1229
Flags: W
LayerCount: 2
Back
Fore
SplineSet
932 15 m 1,0,1
 924 47 924 47 919 83 c 128,-1,2
 914 119 914 119 912 156 c 1,3,4
 881 118 881 118 840 86 c 128,-1,5
 799 54 799 54 750.5 30.5 c 128,-1,6
 702 7 702 7 646 -6.5 c 128,-1,7
 590 -20 590 -20 529 -20 c 0,8,9
 453 -20 453 -20 387.5 2 c 128,-1,10
 322 24 322 24 273.5 64 c 128,-1,11
 225 104 225 104 197.5 160.5 c 128,-1,12
 170 217 170 217 170 287 c 0,13,14
 170 380 170 380 211 445 c 128,-1,15
 252 510 252 510 322 550.5 c 128,-1,16
 392 591 392 591 484 610 c 128,-1,17
 576 629 576 629 677 629 c 2,18,-1
 911 629 l 1,19,-1
 911 752 l 2,20,21
 910 813 910 813 887 859.5 c 128,-1,22
 864 906 864 906 824.5 937.5 c 128,-1,23
 785 969 785 969 730.5 985 c 128,-1,24
 676 1001 676 1001 612 1001 c 0,25,26
 554 1001 554 1001 501.5 986 c 128,-1,27
 449 971 449 971 408.5 943 c 128,-1,28
 368 915 368 915 343 874.5 c 128,-1,29
 318 834 318 834 316 783 c 1,30,-1
 196 784 l 1,31,32
 199 853 199 853 232.5 911 c 128,-1,33
 266 969 266 969 323 1011.5 c 128,-1,34
 380 1054 380 1054 455.5 1078 c 128,-1,35
 531 1102 531 1102 617 1102 c 256,36,37
 703 1102 703 1102 778.5 1080 c 128,-1,38
 854 1058 854 1058 909.5 1014 c 128,-1,39
 965 970 965 970 997.5 904 c 128,-1,40
 1030 838 1030 838 1031 750 c 2,41,-1
 1031 226 l 2,42,43
 1031 172 1031 172 1040.5 117 c 128,-1,44
 1050 62 1050 62 1064 12 c 1,45,-1
 1065 0 l 1,46,-1
 1034 0 l 1,47,48
 1000 -21 1000 -21 966.5 -46 c 128,-1,49
 933 -71 933 -71 907 -100 c 128,-1,50
 881 -129 881 -129 864.5 -162 c 128,-1,51
 848 -195 848 -195 848 -232 c 0,52,53
 849 -272 849 -272 871.5 -294.5 c 128,-1,54
 894 -317 894 -317 937 -318 c 0,55,56
 969 -319 969 -319 997 -309 c 128,-1,57
 1025 -299 1025 -299 1046 -285 c 1,58,-1
 1069 -369 l 1,59,60
 1040 -388 1040 -388 1002.5 -400.5 c 128,-1,61
 965 -413 965 -413 914 -413 c 0,62,63
 877 -413 877 -413 845.5 -402 c 128,-1,64
 814 -391 814 -391 790.5 -369 c 128,-1,65
 767 -347 767 -347 754 -316 c 128,-1,66
 741 -285 741 -285 741 -244 c 0,67,68
 741 -206 741 -206 756.5 -170 c 128,-1,69
 772 -134 772 -134 798.5 -101 c 128,-1,70
 825 -68 825 -68 859.5 -39 c 128,-1,71
 894 -10 894 -10 932 15 c 1,0,1
542 86 m 0,72,73
 605 85 605 85 662.5 101 c 128,-1,74
 720 117 720 117 768 145.5 c 128,-1,75
 816 174 816 174 853 213.5 c 128,-1,76
 890 253 890 253 911 300 c 1,77,-1
 911 537 l 1,78,-1
 693 537 l 2,79,80
 614 537 614 537 541 525 c 128,-1,81
 468 513 468 513 412 485.5 c 128,-1,82
 356 458 356 458 322.5 412 c 128,-1,83
 289 366 289 366 289 297 c 0,84,85
 289 248 289 248 309 209 c 128,-1,86
 329 170 329 170 363 142.5 c 128,-1,87
 397 115 397 115 443 100.5 c 128,-1,88
 489 86 489 86 542 86 c 0,72,73
EndSplineSet
Substitution2: "'smcp' Lowercase to Small Capitals lookup 0 subtable" Aogonek.smcp
EndChar
StartChar: Dcroat
Encoding: 272 272 485
Width: 1259
Flags: W
LayerCount: 2
Back
Fore
SplineSet
207 0 m 1,0,-1
 207 689 l 1,1,-1
 -45 689 l 1,2,-1
 -45 791 l 1,3,-1
 207 791 l 1,4,-1
 207 1456 l 1,5,-1
 559 1456 l 2,6,7
 699 1454 699 1454 809 1401 c 128,-1,8
 919 1348 919 1348 995 1259 c 128,-1,9
 1071 1170 1071 1170 1111 1051.5 c 128,-1,10
 1151 933 1151 933 1153 799 c 2,11,-1
 1153 656 l 2,12,13
 1151 522 1151 522 1111 403.5 c 128,-1,14
 1071 285 1071 285 995 196 c 128,-1,15
 919 107 919 107 809 54.5 c 128,-1,16
 699 2 699 2 559 0 c 2,17,-1
 207 0 l 1,0,-1
567 689 m 1,18,-1
 327 689 l 1,19,-1
 327 101 l 1,20,-1
 559 101 l 2,21,22
 676 103 676 103 764.5 149 c 128,-1,23
 853 195 853 195 912 271.5 c 128,-1,24
 971 348 971 348 1001.5 447.5 c 128,-1,25
 1032 547 1032 547 1033 656 c 2,26,-1
 1033 802 l 2,27,28
 1032 910 1032 910 1001.5 1009 c 128,-1,29
 971 1108 971 1108 912 1184 c 128,-1,30
 853 1260 853 1260 764.5 1306 c 128,-1,31
 676 1352 676 1352 559 1354 c 2,32,-1
 327 1354 l 1,33,-1
 327 791 l 1,34,-1
 567 791 l 1,35,-1
 567 689 l 1,18,-1
EndSplineSet
Substitution2: "'smcp' Lowercase to Small Capitals lookup 0 subtable" Dcroat.smcp
EndChar
StartChar: dcroat
Encoding: 273 273 995
Width: 1259
Flags: W
LayerCount: 2
Back
Fore
SplineSet
1219 1257 m 1,0,-1
 1028 1257 l 1,1,-1
 1028 0 l 1,2,-1
 916 0 l 1,3,-1
 911 141 l 1,4,5
 854 63 854 63 771 21.5 c 128,-1,6
 688 -20 688 -20 586 -20 c 0,7,8
 479 -20 479 -20 398.5 26.5 c 128,-1,9
 318 73 318 73 264.5 149.5 c 128,-1,10
 211 226 211 226 184 325.5 c 128,-1,11
 157 425 157 425 157 530 c 2,12,-1
 157 551 l 2,13,14
 157 659 157 659 184 758.5 c 128,-1,15
 211 858 211 858 264.5 934.5 c 128,-1,16
 318 1011 318 1011 398.5 1056.5 c 128,-1,17
 479 1102 479 1102 588 1102 c 0,18,19
 691 1102 691 1102 772.5 1058 c 128,-1,20
 854 1014 854 1014 909 935 c 1,21,-1
 909 1257 l 1,22,-1
 607 1257 l 1,23,-1
 607 1359 l 1,24,-1
 909 1359 l 1,25,-1
 909 1536 l 1,26,-1
 1028 1536 l 1,27,-1
 1028 1359 l 1,28,-1
 1219 1359 l 1,29,-1
 1219 1257 l 1,0,-1
278 530 m 2,30,31
 278 449 278 449 295.5 369 c 128,-1,32
 313 289 313 289 352 225.5 c 128,-1,33
 391 162 391 162 454 123 c 128,-1,34
 517 84 517 84 608 84 c 0,35,36
 659 84 659 84 704.5 97 c 128,-1,37
 750 110 750 110 788.5 134.5 c 128,-1,38
 827 159 827 159 857.5 193.5 c 128,-1,39
 888 228 888 228 909 271 c 1,40,-1
 909 795 l 1,41,42
 889 840 889 840 859.5 877 c 128,-1,43
 830 914 830 914 792 941 c 128,-1,44
 754 968 754 968 708 983 c 128,-1,45
 662 998 662 998 610 998 c 0,46,47
 518 998 518 998 455 958.5 c 128,-1,48
 392 919 392 919 352.5 855.5 c 128,-1,49
 313 792 313 792 295.5 712 c 128,-1,50
 278 632 278 632 278 551 c 2,51,-1
 278 530 l 2,30,31
EndSplineSet
Substitution2: "'smcp' Lowercase to Small Capitals lookup 0 subtable" Dcroat.smcp
EndChar
StartChar: Eogonek
Encoding: 280 280 567
Width: 1229
Flags: W
LayerCount: 2
Back
Fore
SplineSet
962 698 m 1,0,-1
 320 698 l 1,1,-1
 320 104 l 1,2,-1
 1060 104 l 1,3,-1
 1060 0 l 1,4,-1
 953 0 l 1,5,6
 919 -21 919 -21 885.5 -46 c 128,-1,7
 852 -71 852 -71 826 -100 c 128,-1,8
 800 -129 800 -129 783.5 -162 c 128,-1,9
 767 -195 767 -195 767 -232 c 0,10,11
 768 -272 768 -272 790.5 -294.5 c 128,-1,12
 813 -317 813 -317 856 -318 c 0,13,14
 888 -319 888 -319 916 -309 c 128,-1,15
 944 -299 944 -299 965 -285 c 1,16,-1
 988 -369 l 1,17,18
 959 -388 959 -388 921.5 -400.5 c 128,-1,19
 884 -413 884 -413 833 -413 c 0,20,21
 796 -413 796 -413 764.5 -402 c 128,-1,22
 733 -391 733 -391 709.5 -369 c 128,-1,23
 686 -347 686 -347 673 -316 c 128,-1,24
 660 -285 660 -285 660 -244 c 0,25,26
 660 -209 660 -209 673.5 -175.5 c 128,-1,27
 687 -142 687 -142 710 -111 c 128,-1,28
 733 -80 733 -80 763.5 -52 c 128,-1,29
 794 -24 794 -24 829 0 c 1,30,-1
 201 0 l 1,31,-1
 201 1456 l 1,32,-1
 1056 1456 l 1,33,-1
 1056 1351 l 1,34,-1
 320 1351 l 1,35,-1
 320 802 l 1,36,-1
 962 802 l 1,37,-1
 962 698 l 1,0,-1
EndSplineSet
Substitution2: "'smcp' Lowercase to Small Capitals lookup 0 subtable" Eogonek.smcp
EndChar
StartChar: eogonek
Encoding: 281 281 568
Width: 1229
Flags: W
LayerCount: 2
Back
Fore
SplineSet
655 -20 m 0,0,1
 542 -20 542 -20 449 22 c 128,-1,2
 356 64 356 64 289.5 136 c 128,-1,3
 223 208 223 208 186.5 304.5 c 128,-1,4
 150 401 150 401 149 510 c 2,5,-1
 149 553 l 2,6,7
 150 669 150 669 187.5 769 c 128,-1,8
 225 869 225 869 290 943 c 128,-1,9
 355 1017 355 1017 443 1059.5 c 128,-1,10
 531 1102 531 1102 632 1102 c 0,11,12
 740 1102 740 1102 823 1063 c 128,-1,13
 906 1024 906 1024 962.5 956.5 c 128,-1,14
 1019 889 1019 889 1048.5 799 c 128,-1,15
 1078 709 1078 709 1079 606 c 2,16,-1
 1079 533 l 1,17,-1
 269 533 l 1,18,-1
 269 510 l 2,19,20
 270 425 270 425 298 347.5 c 128,-1,21
 326 270 326 270 377 211 c 128,-1,22
 428 152 428 152 500 116.5 c 128,-1,23
 572 81 572 81 660 81 c 0,24,25
 760 80 760 80 841 118 c 128,-1,26
 922 156 922 156 979 228 c 1,27,-1
 1055 171 l 1,28,29
 1023 126 1023 126 979 89.5 c 128,-1,30
 935 53 935 53 880 27 c 1,31,32
 847 6 847 6 816 -18 c 128,-1,33
 785 -42 785 -42 760 -70.5 c 128,-1,34
 735 -99 735 -99 720 -130.5 c 128,-1,35
 705 -162 705 -162 705 -198 c 0,36,37
 706 -238 706 -238 728.5 -260.5 c 128,-1,38
 751 -283 751 -283 794 -284 c 0,39,40
 826 -285 826 -285 854 -275 c 128,-1,41
 882 -265 882 -265 903 -251 c 1,42,-1
 926 -335 l 1,43,44
 897 -354 897 -354 859.5 -366.5 c 128,-1,45
 822 -379 822 -379 771 -379 c 0,46,47
 734 -379 734 -379 702.5 -368 c 128,-1,48
 671 -357 671 -357 647.5 -335 c 128,-1,49
 624 -313 624 -313 611 -282 c 128,-1,50
 598 -251 598 -251 598 -210 c 0,51,52
 598 -157 598 -157 627 -108.5 c 128,-1,53
 656 -60 656 -60 702 -18 c 1,54,55
 690 -19 690 -19 678.5 -19.5 c 128,-1,56
 667 -20 667 -20 655 -20 c 0,0,1
632 1000 m 0,57,58
 559 1000 559 1000 498 972.5 c 128,-1,59
 437 945 437 945 391 896 c 128,-1,60
 345 847 345 847 315 780.5 c 128,-1,61
 285 714 285 714 274 635 c 1,62,-1
 959 635 l 1,63,-1
 959 648 l 2,64,65
 957 715 957 715 934.5 778.5 c 128,-1,66
 912 842 912 842 870.5 891 c 128,-1,67
 829 940 829 940 769 970 c 128,-1,68
 709 1000 709 1000 632 1000 c 0,57,58
EndSplineSet
Substitution2: "'smcp' Lowercase to Small Capitals lookup 0 subtable" Eogonek.smcp
EndChar
StartChar: Hbar
Encoding: 294 294 137
Width: 1229
Flags: W
LayerCount: 2
Back
Fore
SplineSet
1064 1123 m 1,0,-1
 1204 1123 l 1,1,-1
 1204 1026 l 1,2,-1
 1064 1026 l 1,3,-1
 1064 0 l 1,4,-1
 951 0 l 1,5,-1
 951 698 l 1,6,-1
 267 698 l 1,7,-1
 267 0 l 1,8,-1
 154 0 l 1,9,-1
 154 1026 l 1,10,-1
 36 1026 l 1,11,-1
 36 1123 l 1,12,-1
 154 1123 l 1,13,-1
 154 1456 l 1,14,-1
 267 1456 l 1,15,-1
 267 1123 l 1,16,-1
 951 1123 l 1,17,-1
 951 1456 l 1,18,-1
 1064 1456 l 1,19,-1
 1064 1123 l 1,0,-1
267 802 m 1,20,-1
 951 802 l 1,21,-1
 951 1026 l 1,22,-1
 267 1026 l 1,23,-1
 267 802 l 1,20,-1
EndSplineSet
EndChar
StartChar: hbar
Encoding: 295 295 487
Width: 1259
Flags: W
LayerCount: 2
Back
Fore
SplineSet
635 1257 m 1,0,-1
 343 1257 l 1,1,-1
 343 873 l 1,2,3
 400 977 400 977 495 1039 c 128,-1,4
 590 1101 590 1101 712 1102 c 0,5,6
 801 1102 801 1102 869.5 1074.5 c 128,-1,7
 938 1047 938 1047 984.5 994.5 c 128,-1,8
 1031 942 1031 942 1055.5 865.5 c 128,-1,9
 1080 789 1080 789 1080 691 c 2,10,-1
 1080 0 l 1,11,-1
 960 0 l 1,12,-1
 960 691 l 2,13,14
 960 763 960 763 943 820 c 128,-1,15
 926 877 926 877 891.5 916.5 c 128,-1,16
 857 956 857 956 805 977 c 128,-1,17
 753 998 753 998 683 998 c 0,18,19
 626 998 626 998 574 980 c 128,-1,20
 522 962 522 962 478 930 c 128,-1,21
 434 898 434 898 399.5 854.5 c 128,-1,22
 365 811 365 811 343 759 c 1,23,-1
 343 0 l 1,24,-1
 223 0 l 1,25,-1
 223 1257 l 1,26,-1
 23 1257 l 1,27,-1
 23 1359 l 1,28,-1
 223 1359 l 1,29,-1
 223 1536 l 1,30,-1
 343 1536 l 1,31,-1
 343 1359 l 1,32,-1
 635 1359 l 1,33,-1
 635 1257 l 1,0,-1
EndSplineSet
EndChar
StartChar: Iogonek
Encoding: 302 302 587
Width: 1229
Flags: W
LayerCount: 2
Back
Fore
SplineSet
193 1456 m 1,0,-1
 1036 1456 l 1,1,-1
 1036 1348 l 1,2,-1
 671 1348 l 1,3,-1
 671 106 l 1,4,-1
 1036 106 l 1,5,-1
 1036 0 l 1,6,-1
 743 0 l 1,7,8
 709 -21 709 -21 675.5 -46 c 128,-1,9
 642 -71 642 -71 616 -100 c 128,-1,10
 590 -129 590 -129 573.5 -162 c 128,-1,11
 557 -195 557 -195 557 -232 c 0,12,13
 558 -272 558 -272 580.5 -294.5 c 128,-1,14
 603 -317 603 -317 646 -318 c 0,15,16
 678 -319 678 -319 706 -309 c 128,-1,17
 734 -299 734 -299 755 -285 c 1,18,-1
 778 -369 l 1,19,20
 749 -388 749 -388 711.5 -400.5 c 128,-1,21
 674 -413 674 -413 623 -413 c 0,22,23
 586 -413 586 -413 554.5 -402 c 128,-1,24
 523 -391 523 -391 499.5 -369 c 128,-1,25
 476 -347 476 -347 463 -316 c 128,-1,26
 450 -285 450 -285 450 -244 c 0,27,28
 450 -209 450 -209 463.5 -175.5 c 128,-1,29
 477 -142 477 -142 500 -111 c 128,-1,30
 523 -80 523 -80 553.5 -52 c 128,-1,31
 584 -24 584 -24 619 0 c 1,32,-1
 193 0 l 1,33,-1
 193 106 l 1,34,-1
 547 106 l 1,35,-1
 547 1348 l 1,36,-1
 193 1348 l 1,37,-1
 193 1456 l 1,0,-1
EndSplineSet
Substitution2: "'smcp' Lowercase to Small Capitals lookup 0 subtable" Iogonek.smcp
EndChar
StartChar: iogonek
Encoding: 303 303 588
Width: 1229
Flags: W
LayerCount: 2
Back
Fore
SplineSet
221 1082 m 1,0,-1
 723 1082 l 1,1,-1
 723 106 l 1,2,-1
 1091 106 l 1,3,-1
 1091 0 l 1,4,-1
 723 0 l 1,5,6
 689 -21 689 -21 655.5 -46 c 128,-1,7
 622 -71 622 -71 596 -100 c 128,-1,8
 570 -129 570 -129 553.5 -162 c 128,-1,9
 537 -195 537 -195 537 -232 c 0,10,11
 538 -272 538 -272 560.5 -294.5 c 128,-1,12
 583 -317 583 -317 626 -318 c 0,13,14
 658 -319 658 -319 686 -309 c 128,-1,15
 714 -299 714 -299 735 -285 c 1,16,-1
 758 -369 l 1,17,18
 729 -388 729 -388 691.5 -400.5 c 128,-1,19
 654 -413 654 -413 603 -413 c 0,20,21
 566 -413 566 -413 534.5 -402 c 128,-1,22
 503 -391 503 -391 479.5 -369 c 128,-1,23
 456 -347 456 -347 443 -316 c 128,-1,24
 430 -285 430 -285 430 -244 c 0,25,26
 430 -209 430 -209 443.5 -175.5 c 128,-1,27
 457 -142 457 -142 480 -111 c 128,-1,28
 503 -80 503 -80 533.5 -52 c 128,-1,29
 564 -24 564 -24 599 0 c 1,30,-1
 221 0 l 1,31,-1
 221 106 l 1,32,-1
 603 106 l 1,33,-1
 603 975 l 1,34,-1
 221 975 l 1,35,-1
 221 1082 l 1,0,-1
568 1378 m 0,36,37
 568 1415 568 1415 589 1442 c 128,-1,38
 610 1469 610 1469 659 1469 c 0,39,40
 707 1469 707 1469 728.5 1442 c 128,-1,41
 750 1415 750 1415 750 1378 c 0,42,43
 750 1343 750 1343 728.5 1316.5 c 128,-1,44
 707 1290 707 1290 659 1290 c 0,45,46
 610 1290 610 1290 589 1316.5 c 128,-1,47
 568 1343 568 1343 568 1378 c 0,36,37
EndSplineSet
Substitution2: "'smcp' Lowercase to Small Capitals lookup 0 subtable" Iogonek.smcp
EndChar
StartChar: dotlessi
Encoding: 305 305 138
Width: 1229
Flags: W
LayerCount: 2
Back
Fore
SplineSet
221 1082 m 1,0,-1
 723 1082 l 1,1,-1
 723 106 l 1,2,-1
 1091 106 l 1,3,-1
 1091 0 l 1,4,-1
 221 0 l 1,5,-1
 221 106 l 1,6,-1
 603 106 l 1,7,-1
 603 975 l 1,8,-1
 221 975 l 1,9,-1
 221 1082 l 1,0,-1
EndSplineSet
EndChar
StartChar: IJ
Encoding: 306 306 139
Width: 1229
Flags: W
LayerCount: 2
Back
Fore
SplineSet
258 0 m 1,0,-1
 138 0 l 1,1,-1
 138 1456 l 1,2,-1
 258 1456 l 1,3,-1
 258 0 l 1,0,-1
975 1456 m 1,4,-1
 1095 1456 l 1,5,-1
 1095 332 l 2,6,7
 1095 166 1095 166 1010.5 73.5 c 128,-1,8
 926 -19 926 -19 749 -19 c 0,9,10
 674 -19 674 -19 611.5 1.5 c 128,-1,11
 549 22 549 22 504.5 64 c 128,-1,12
 460 106 460 106 435 170 c 128,-1,13
 410 234 410 234 410 321 c 1,14,-1
 530 321 l 1,15,16
 530 196 530 196 587.5 139 c 128,-1,17
 645 82 645 82 749 82 c 0,18,19
 816 82 816 82 860 100.5 c 128,-1,20
 904 119 904 119 929.5 152.5 c 128,-1,21
 955 186 955 186 965 232 c 128,-1,22
 975 278 975 278 975 332 c 2,23,-1
 975 1456 l 1,4,-1
EndSplineSet
EndChar
StartChar: ij
Encoding: 307 307 140
Width: 1229
Flags: W
LayerCount: 2
Back
Fore
SplineSet
681 1082 m 1,0,-1
 1046 1082 l 1,1,-1
 1046 0 l 2,2,3
 1046 -101 1046 -101 1018.5 -181.5 c 128,-1,4
 991 -262 991 -262 938.5 -318.5 c 128,-1,5
 886 -375 886 -375 810 -405 c 128,-1,6
 734 -435 734 -435 638 -435 c 0,7,8
 609 -435 609 -435 583.5 -434 c 128,-1,9
 558 -433 558 -433 533 -431 c 128,-1,10
 508 -429 508 -429 483 -426 c 128,-1,11
 458 -423 458 -423 430 -418 c 1,12,-1
 439 -317 l 1,13,14
 457 -320 457 -320 483.5 -322.5 c 128,-1,15
 510 -325 510 -325 537.5 -326.5 c 128,-1,16
 565 -328 565 -328 589.5 -328.5 c 128,-1,17
 614 -329 614 -329 629 -329 c 0,18,19
 689 -329 689 -329 743.5 -312 c 128,-1,20
 798 -295 798 -295 838.5 -256.5 c 128,-1,21
 879 -218 879 -218 903 -155 c 128,-1,22
 927 -92 927 -92 927 0 c 2,23,-1
 927 975 l 1,24,-1
 681 975 l 1,25,-1
 681 1082 l 1,0,-1
107 1082 m 1,26,-1
 484 1082 l 1,27,-1
 484 106 l 1,28,-1
 700 106 l 1,29,-1
 700 0 l 1,30,-1
 105 0 l 1,31,-1
 105 106 l 1,32,-1
 364 106 l 1,33,-1
 364 975 l 1,34,-1
 107 975 l 1,35,-1
 107 1082 l 1,26,-1
887 1377 m 0,36,37
 887 1414 887 1414 907.5 1441 c 128,-1,38
 928 1468 928 1468 977 1468 c 0,39,40
 1025 1468 1025 1468 1047 1441 c 128,-1,41
 1069 1414 1069 1414 1069 1377 c 0,42,43
 1069 1342 1069 1342 1047 1315.5 c 128,-1,44
 1025 1289 1025 1289 977 1289 c 0,45,46
 928 1289 928 1289 907.5 1315.5 c 128,-1,47
 887 1342 887 1342 887 1377 c 0,36,37
333 1376 m 0,48,49
 333 1413 333 1413 354 1440 c 128,-1,50
 375 1467 375 1467 423 1467 c 256,51,52
 471 1467 471 1467 492.5 1440 c 128,-1,53
 514 1413 514 1413 514 1376 c 0,54,55
 514 1341 514 1341 492.5 1314.5 c 128,-1,56
 471 1288 471 1288 423 1288 c 256,57,58
 375 1288 375 1288 354 1314.5 c 128,-1,59
 333 1341 333 1341 333 1376 c 0,48,49
EndSplineSet
EndChar
StartChar: kgreenlandic
Encoding: 312 312 141
Width: 1229
Flags: W
LayerCount: 2
Back
Fore
SplineSet
506 506 m 1,0,-1
 333 349 l 1,1,-1
 333 0 l 1,2,-1
 213 0 l 1,3,-1
 213 1082 l 1,4,-1
 333 1082 l 1,5,-1
 333 484 l 1,6,-1
 480 636 l 1,7,-1
 928 1082 l 1,8,-1
 1075 1082 l 1,9,-1
 588 587 l 1,10,-1
 1125 0 l 1,11,-1
 971 0 l 1,12,-1
 506 506 l 1,0,-1
EndSplineSet
EndChar
StartChar: Lslash
Encoding: 321 321 142
Width: 1229
Flags: W
LayerCount: 2
Back
Fore
SplineSet
362 823 m 1,0,-1
 656 915 l 1,1,-1
 656 806 l 1,2,-1
 362 714 l 1,3,-1
 362 104 l 1,4,-1
 1103 104 l 1,5,-1
 1103 0 l 1,6,-1
 242 0 l 1,7,-1
 242 677 l 1,8,-1
 57 619 l 1,9,-1
 57 728 l 1,10,-1
 242 786 l 1,11,-1
 242 1456 l 1,12,-1
 362 1456 l 1,13,-1
 362 823 l 1,0,-1
EndSplineSet
EndChar
StartChar: lslash
Encoding: 322 322 143
Width: 1229
Flags: W
LayerCount: 2
Back
Fore
SplineSet
725 901 m 1,0,-1
 1069 1015 l 1,1,-1
 1065 906 l 1,2,-1
 725 792 l 1,3,-1
 725 106 l 1,4,-1
 1091 106 l 1,5,-1
 1091 0 l 1,6,-1
 221 0 l 1,7,-1
 221 106 l 1,8,-1
 605 106 l 1,9,-1
 605 752 l 1,10,-1
 235 629 l 1,11,-1
 238 739 l 1,12,-1
 605 861 l 1,13,-1
 605 1429 l 1,14,-1
 221 1429 l 1,15,-1
 221 1536 l 1,16,-1
 725 1536 l 1,17,-1
 725 901 l 1,0,-1
EndSplineSet
EndChar
StartChar: Eng
Encoding: 330 330 144
Width: 1229
Flags: W
LayerCount: 2
Back
Fore
SplineSet
1043 1456 m 1,0,-1
 1044 -89 l 2,1,2
 1044 -157 1044 -157 1028 -220 c 128,-1,3
 1012 -283 1012 -283 979 -331 c 128,-1,4
 946 -379 946 -379 894 -408 c 128,-1,5
 842 -437 842 -437 770 -437 c 0,6,7
 742 -437 742 -437 718 -431.5 c 128,-1,8
 694 -426 694 -426 668 -418 c 1,9,-1
 681 -319 l 1,10,11
 699 -326 699 -326 726 -330.5 c 128,-1,12
 753 -335 753 -335 770 -335 c 0,13,14
 814 -335 814 -335 843.5 -312.5 c 128,-1,15
 873 -290 873 -290 891 -255 c 128,-1,16
 909 -220 909 -220 917 -176 c 128,-1,17
 925 -132 925 -132 925 -89 c 2,18,-1
 925 4 l 1,19,-1
 302 1216 l 1,20,-1
 302 0 l 1,21,-1
 184 0 l 1,22,-1
 184 1456 l 1,23,-1
 302 1456 l 1,24,-1
 302 1452 l 1,25,-1
 925 242 l 1,26,-1
 925 1456 l 1,27,-1
 1043 1456 l 1,0,-1
EndSplineSet
EndChar
StartChar: eng
Encoding: 331 331 145
Width: 1229
Flags: W
LayerCount: 2
Back
Fore
SplineSet
311 1082 m 1,0,-1
 321 891 l 1,1,2
 346 939 346 939 380 977.5 c 128,-1,3
 414 1016 414 1016 457 1044 c 128,-1,4
 500 1072 500 1072 552.5 1087 c 128,-1,5
 605 1102 605 1102 667 1102 c 0,6,7
 761 1102 761 1102 829 1070 c 128,-1,8
 897 1038 897 1038 941 979.5 c 128,-1,9
 985 921 985 921 1006 839.5 c 128,-1,10
 1027 758 1027 758 1027 659 c 2,11,-1
 1027 -89 l 2,12,13
 1027 -164 1027 -164 1007.5 -227.5 c 128,-1,14
 988 -291 988 -291 950 -337.5 c 128,-1,15
 912 -384 912 -384 855.5 -410.5 c 128,-1,16
 799 -437 799 -437 723 -437 c 0,17,18
 691 -437 691 -437 661.5 -432 c 128,-1,19
 632 -427 632 -427 600 -418 c 1,20,-1
 613 -315 l 1,21,22
 625 -318 625 -318 639.5 -321 c 128,-1,23
 654 -324 654 -324 669 -326 c 128,-1,24
 684 -328 684 -328 698 -329 c 128,-1,25
 712 -330 712 -330 723 -330 c 0,26,27
 771 -330 771 -330 806 -311 c 128,-1,28
 841 -292 841 -292 863.5 -259 c 128,-1,29
 886 -226 886 -226 897 -182.5 c 128,-1,30
 908 -139 908 -139 908 -89 c 2,31,-1
 908 658 l 2,32,33
 908 731 908 731 893.5 793.5 c 128,-1,34
 879 856 879 856 847.5 901.5 c 128,-1,35
 816 947 816 947 765 972.5 c 128,-1,36
 714 998 714 998 640 998 c 0,37,38
 575 998 575 998 524 980 c 128,-1,39
 473 962 473 962 434 931 c 128,-1,40
 395 900 395 900 367.5 857.5 c 128,-1,41
 340 815 340 815 323 765 c 1,42,-1
 323 0 l 1,43,-1
 204 0 l 1,44,-1
 204 1082 l 1,45,-1
 311 1082 l 1,0,-1
EndSplineSet
EndChar
StartChar: OE
Encoding: 338 338 146
Width: 1229
Flags: W
LayerCount: 2
Back
Fore
SplineSet
1191 0 m 1,0,-1
 733 0 l 1,1,2
 674 -6 674 -6 613.5 -11 c 128,-1,3
 553 -16 553 -16 490 -15 c 0,4,5
 380 -14 380 -14 301.5 33.5 c 128,-1,6
 223 81 223 81 173 159 c 128,-1,7
 123 237 123 237 99.5 336.5 c 128,-1,8
 76 436 76 436 76 540 c 2,9,-1
 76 915 l 2,10,11
 76 1019 76 1019 99.5 1118.5 c 128,-1,12
 123 1218 123 1218 172.5 1296 c 128,-1,13
 222 1374 222 1374 300 1421.5 c 128,-1,14
 378 1469 378 1469 488 1470 c 0,15,16
 551 1471 551 1471 612.5 1467 c 128,-1,17
 674 1463 674 1463 733 1456 c 1,18,-1
 1186 1456 l 1,19,-1
 1186 1354 l 1,20,-1
 746 1354 l 1,21,-1
 746 801 l 1,22,-1
 1127 801 l 1,23,-1
 1127 699 l 1,24,-1
 746 699 l 1,25,-1
 746 101 l 1,26,-1
 1191 101 l 1,27,-1
 1191 0 l 1,0,-1
490 86 m 0,28,29
 525 85 525 85 559.5 86 c 128,-1,30
 594 87 594 87 629 90 c 1,31,-1
 629 1364 l 1,32,33
 594 1367 594 1367 559 1368 c 128,-1,34
 524 1369 524 1369 489 1369 c 0,35,36
 403 1368 403 1368 347 1329.5 c 128,-1,37
 291 1291 291 1291 257 1228.5 c 128,-1,38
 223 1166 223 1166 209 1085 c 128,-1,39
 195 1004 195 1004 195 917 c 2,40,-1
 195 540 l 2,41,42
 195 453 195 453 209.5 371.5 c 128,-1,43
 224 290 224 290 258 227 c 128,-1,44
 292 164 292 164 348.5 125.5 c 128,-1,45
 405 87 405 87 490 86 c 0,28,29
EndSplineSet
EndChar
StartChar: oe
Encoding: 339 339 147
Width: 1229
Flags: W
LayerCount: 2
Back
Fore
SplineSet
27 630 m 2,0,1
 27 716 27 716 46 800.5 c 128,-1,2
 65 885 65 885 105.5 952 c 128,-1,3
 146 1019 146 1019 209.5 1060.5 c 128,-1,4
 273 1102 273 1102 363 1102 c 0,5,6
 415 1102 415 1102 458 1088 c 128,-1,7
 501 1074 501 1074 535.5 1048.5 c 128,-1,8
 570 1023 570 1023 596.5 988 c 128,-1,9
 623 953 623 953 643 911 c 1,10,11
 662 953 662 953 688 988 c 128,-1,12
 714 1023 714 1023 747 1048.5 c 128,-1,13
 780 1074 780 1074 819 1088 c 128,-1,14
 858 1102 858 1102 905 1102 c 0,15,16
 988 1102 988 1102 1046 1067.5 c 128,-1,17
 1104 1033 1104 1033 1140.5 975.5 c 128,-1,18
 1177 918 1177 918 1194 843.5 c 128,-1,19
 1211 769 1211 769 1211 689 c 2,20,-1
 1209 527 l 1,21,-1
 706 527 l 1,22,-1
 706 436 l 2,23,24
 706 376 706 376 717 313 c 128,-1,25
 728 250 728 250 753 198.5 c 128,-1,26
 778 147 778 147 819 114 c 128,-1,27
 860 81 860 81 920 81 c 0,28,29
 958 81 958 81 990 89 c 128,-1,30
 1022 97 1022 97 1048.5 109.5 c 128,-1,31
 1075 122 1075 122 1097 138.5 c 128,-1,32
 1119 155 1119 155 1137 171 c 1,33,-1
 1178 89 l 1,34,35
 1157 68 1157 68 1131 48 c 128,-1,36
 1105 28 1105 28 1073.5 13 c 128,-1,37
 1042 -2 1042 -2 1003.5 -11 c 128,-1,38
 965 -20 965 -20 920 -20 c 0,39,40
 819 -19 819 -19 750.5 33 c 128,-1,41
 682 85 682 85 643 167 c 1,42,43
 623 126 623 126 596.5 91.5 c 128,-1,44
 570 57 570 57 535.5 32 c 128,-1,45
 501 7 501 7 458.5 -6.5 c 128,-1,46
 416 -20 416 -20 365 -20 c 0,47,48
 274 -20 274 -20 210 21 c 128,-1,49
 146 62 146 62 105.5 129 c 128,-1,50
 65 196 65 196 46 280 c 128,-1,51
 27 364 27 364 27 451 c 2,52,-1
 27 630 l 2,0,1
147 451 m 2,53,54
 147 388 147 388 157 322.5 c 128,-1,55
 167 257 167 257 192 203 c 128,-1,56
 217 149 217 149 259 115 c 128,-1,57
 301 81 301 81 365 81 c 0,58,59
 428 81 428 81 469 115.5 c 128,-1,60
 510 150 510 150 535 203.5 c 128,-1,61
 560 257 560 257 570.5 322.5 c 128,-1,62
 581 388 581 388 581 451 c 2,63,-1
 581 630 l 2,64,65
 581 692 581 692 570.5 757.5 c 128,-1,66
 560 823 560 823 535 877 c 128,-1,67
 510 931 510 931 468 965.5 c 128,-1,68
 426 1000 426 1000 363 1000 c 256,69,70
 300 1000 300 1000 258.5 965.5 c 128,-1,71
 217 931 217 931 192.5 877 c 128,-1,72
 168 823 168 823 157.5 757.5 c 128,-1,73
 147 692 147 692 147 630 c 2,74,-1
 147 451 l 2,53,54
706 628 m 1,75,-1
 1093 628 l 1,76,-1
 1093 711 l 2,77,78
 1094 756 1094 756 1085 807 c 128,-1,79
 1076 858 1076 858 1054 900.5 c 128,-1,80
 1032 943 1032 943 995.5 971.5 c 128,-1,81
 959 1000 959 1000 905 1000 c 0,82,83
 848 1000 848 1000 810 966 c 128,-1,84
 772 932 772 932 749 878.5 c 128,-1,85
 726 825 726 825 716 761 c 128,-1,86
 706 697 706 697 706 637 c 2,87,-1
 706 628 l 1,75,-1
EndSplineSet
EndChar
StartChar: Tbar
Encoding: 358 358 488
Width: 1229
Flags: W
LayerCount: 2
Back
Fore
SplineSet
912 834 m 1,0,-1
 675 834 l 1,1,-1
 675 0 l 1,2,-1
 558 0 l 1,3,-1
 558 834 l 1,4,-1
 300 834 l 1,5,-1
 300 936 l 1,6,-1
 558 936 l 1,7,-1
 559 1351 l 1,8,-1
 94 1351 l 1,9,-1
 94 1456 l 1,10,-1
 1139 1456 l 1,11,-1
 1139 1351 l 1,12,-1
 675 1351 l 1,13,-1
 675 936 l 1,14,-1
 912 936 l 1,15,-1
 912 834 l 1,0,-1
EndSplineSet
Substitution2: "'smcp' Lowercase to Small Capitals lookup 0 subtable" Tbar.smcp
EndChar
StartChar: tbar
Encoding: 359 359 489
Width: 1229
Flags: W
LayerCount: 2
Back
Fore
SplineSet
592 1359 m 1,0,-1
 592 1082 l 1,1,-1
 993 1082 l 1,2,-1
 993 984 l 1,3,-1
 592 984 l 1,4,-1
 592 719 l 1,5,-1
 853 719 l 1,6,-1
 853 617 l 1,7,-1
 592 617 l 1,8,-1
 592 303 l 2,9,10
 593 240 593 240 611.5 198.5 c 128,-1,11
 630 157 630 157 661.5 131.5 c 128,-1,12
 693 106 693 106 735.5 95 c 128,-1,13
 778 84 778 84 828 84 c 256,14,15
 878 84 878 84 930.5 91 c 128,-1,16
 983 98 983 98 1020 105 c 1,17,-1
 1038 14 l 1,18,19
 995 -3 995 -3 933 -11.5 c 128,-1,20
 871 -20 871 -20 807 -20 c 0,21,22
 735 -20 735 -20 674 -2.5 c 128,-1,23
 613 15 613 15 568 53.5 c 128,-1,24
 523 92 523 92 497 153.5 c 128,-1,25
 471 215 471 215 470 304 c 2,26,-1
 470 617 l 1,27,-1
 241 617 l 1,28,-1
 241 719 l 1,29,-1
 470 719 l 1,30,-1
 470 984 l 1,31,-1
 169 984 l 1,32,-1
 169 1082 l 1,33,-1
 470 1082 l 1,34,-1
 470 1359 l 1,35,-1
 592 1359 l 1,0,-1
EndSplineSet
Substitution2: "'smcp' Lowercase to Small Capitals lookup 0 subtable" Tbar.smcp
EndChar
StartChar: Uogonek
Encoding: 370 370 648
Width: 1229
Flags: W
LayerCount: 2
Back
Fore
SplineSet
1071 1456 m 1,0,-1
 1072 469 l 2,1,2
 1071 396 1071 396 1053 328.5 c 128,-1,3
 1035 261 1035 261 1001.5 203.5 c 128,-1,4
 968 146 968 146 921 100 c 128,-1,5
 874 54 874 54 814 24 c 1,6,7
 783 4 783 4 753.5 -19.5 c 128,-1,8
 724 -43 724 -43 701.5 -70 c 128,-1,9
 679 -97 679 -97 665.5 -127.5 c 128,-1,10
 652 -158 652 -158 652 -192 c 0,11,12
 653 -232 653 -232 675.5 -254.5 c 128,-1,13
 698 -277 698 -277 741 -278 c 0,14,15
 773 -279 773 -279 801 -269 c 128,-1,16
 829 -259 829 -259 850 -245 c 1,17,-1
 873 -329 l 1,18,19
 844 -348 844 -348 806.5 -360.5 c 128,-1,20
 769 -373 769 -373 718 -373 c 0,21,22
 681 -373 681 -373 649.5 -362 c 128,-1,23
 618 -351 618 -351 594.5 -329 c 128,-1,24
 571 -307 571 -307 558 -276 c 128,-1,25
 545 -245 545 -245 545 -204 c 0,26,27
 545 -153 545 -153 572 -106.5 c 128,-1,28
 599 -60 599 -60 641 -19 c 1,29,30
 635 -19 635 -19 628.5 -19.5 c 128,-1,31
 622 -20 622 -20 615 -20 c 0,32,33
 510 -20 510 -20 426 19 c 128,-1,34
 342 58 342 58 283 125 c 128,-1,35
 224 192 224 192 191 281 c 128,-1,36
 158 370 158 370 157 469 c 2,37,-1
 159 1456 l 1,38,-1
 272 1456 l 1,39,-1
 275 469 l 2,40,41
 276 394 276 394 299 324.5 c 128,-1,42
 322 255 322 255 365 201.5 c 128,-1,43
 408 148 408 148 471 116 c 128,-1,44
 534 84 534 84 615 84 c 256,45,46
 696 84 696 84 758.5 116 c 128,-1,47
 821 148 821 148 863.5 201.5 c 128,-1,48
 906 255 906 255 928.5 324.5 c 128,-1,49
 951 394 951 394 953 469 c 2,50,-1
 955 1456 l 1,51,-1
 1071 1456 l 1,0,-1
EndSplineSet
Substitution2: "'smcp' Lowercase to Small Capitals lookup 0 subtable" Uogonek.smcp
EndChar
StartChar: uogonek
Encoding: 371 371 649
Width: 1229
Flags: W
LayerCount: 2
Back
Fore
SplineSet
1036 0 m 1,0,1
 1002 -21 1002 -21 968.5 -46 c 128,-1,2
 935 -71 935 -71 909 -100 c 128,-1,3
 883 -129 883 -129 866.5 -162 c 128,-1,4
 850 -195 850 -195 850 -232 c 0,5,6
 851 -272 851 -272 873.5 -294.5 c 128,-1,7
 896 -317 896 -317 939 -318 c 0,8,9
 971 -319 971 -319 999 -309 c 128,-1,10
 1027 -299 1027 -299 1048 -285 c 1,11,-1
 1071 -369 l 1,12,13
 1042 -388 1042 -388 1004.5 -400.5 c 128,-1,14
 967 -413 967 -413 916 -413 c 0,15,16
 879 -413 879 -413 847.5 -402 c 128,-1,17
 816 -391 816 -391 792.5 -369 c 128,-1,18
 769 -347 769 -347 756 -316 c 128,-1,19
 743 -285 743 -285 743 -244 c 0,20,21
 743 -208 743 -208 757.5 -173 c 128,-1,22
 772 -138 772 -138 797 -105.5 c 128,-1,23
 822 -73 822 -73 855 -44 c 128,-1,24
 888 -15 888 -15 924 9 c 1,25,-1
 919 169 l 1,26,27
 865 80 865 80 776.5 30 c 128,-1,28
 688 -20 688 -20 567 -20 c 0,29,30
 477 -20 477 -20 408.5 9 c 128,-1,31
 340 38 340 38 293.5 94 c 128,-1,32
 247 150 247 150 222.5 231 c 128,-1,33
 198 312 198 312 198 416 c 2,34,-1
 198 1082 l 1,35,-1
 317 1082 l 1,36,-1
 317 414 l 2,37,38
 319 251 319 251 383 167 c 128,-1,39
 447 83 447 83 581 83 c 0,40,41
 716 83 716 83 800 145 c 128,-1,42
 884 207 884 207 917 313 c 1,43,-1
 916 1082 l 1,44,-1
 1037 1082 l 1,45,-1
 1037 0 l 1,46,-1
 1036 0 l 1,0,1
EndSplineSet
Substitution2: "'smcp' Lowercase to Small Capitals lookup 0 subtable" Uogonek.smcp
EndChar
StartChar: longs
Encoding: 383 383 148
Width: 1229
Flags: W
LayerCount: 2
Back
Fore
SplineSet
489 0 m 1,0,-1
 490 1182 l 2,1,2
 490 1274 490 1274 517.5 1345.5 c 128,-1,3
 545 1417 545 1417 595.5 1466 c 128,-1,4
 646 1515 646 1515 716.5 1541 c 128,-1,5
 787 1567 787 1567 874 1567 c 0,6,7
 912 1567 912 1567 948 1562 c 128,-1,8
 984 1557 984 1557 1021 1548 c 1,9,-1
 1006 1452 l 1,10,11
 979 1459 979 1459 950 1462.5 c 128,-1,12
 921 1466 921 1466 889 1466 c 0,13,14
 759 1465 759 1465 686 1390 c 128,-1,15
 613 1315 613 1315 611 1182 c 2,16,-1
 611 0 l 1,17,-1
 489 0 l 1,0,-1
EndSplineSet
EndChar
StartChar: florin
Encoding: 402 402 149
Width: 1229
Flags: W
LayerCount: 2
Back
Fore
SplineSet
951 984 m 1,0,-1
 661 984 l 1,1,-1
 660 -71 l 2,2,3
 659 -158 659 -158 634.5 -226 c 128,-1,4
 610 -294 610 -294 564 -341 c 128,-1,5
 518 -388 518 -388 453.5 -412.5 c 128,-1,6
 389 -437 389 -437 308 -437 c 0,7,8
 231 -437 231 -437 160 -409 c 1,9,-1
 173 -310 l 1,10,11
 186 -316 186 -316 204 -320.5 c 128,-1,12
 222 -325 222 -325 241 -328.5 c 128,-1,13
 260 -332 260 -332 277.5 -333.5 c 128,-1,14
 295 -335 295 -335 308 -335 c 0,15,16
 361 -335 361 -335 403.5 -317 c 128,-1,17
 446 -299 446 -299 476 -264.5 c 128,-1,18
 506 -230 506 -230 522 -181.5 c 128,-1,19
 538 -133 538 -133 539 -71 c 2,20,-1
 539 984 l 1,21,-1
 329 984 l 1,22,-1
 329 1082 l 1,23,-1
 540 1082 l 1,24,-1
 540 1209 l 2,25,26
 541 1296 541 1296 569.5 1363 c 128,-1,27
 598 1430 598 1430 649 1475.5 c 128,-1,28
 700 1521 700 1521 770.5 1544 c 128,-1,29
 841 1567 841 1567 927 1567 c 0,30,31
 971 1567 971 1567 1013 1559.5 c 128,-1,32
 1055 1552 1055 1552 1098 1540 c 1,33,-1
 1082 1441 l 1,34,35
 1018 1463 1018 1463 939 1463 c 0,36,37
 876 1463 876 1463 824.5 1446.5 c 128,-1,38
 773 1430 773 1430 737 1398 c 128,-1,39
 701 1366 701 1366 681 1318.5 c 128,-1,40
 661 1271 661 1271 660 1209 c 2,41,-1
 661 1082 l 1,42,-1
 951 1082 l 1,43,-1
 951 984 l 1,0,-1
EndSplineSet
EndChar
StartChar: Ohorn
Encoding: 416 416 150
Width: 1229
Flags: W
LayerCount: 2
Back
Fore
SplineSet
1099 631 m 2,0,1
 1098 557 1098 557 1086 479.5 c 128,-1,2
 1074 402 1074 402 1048.5 329.5 c 128,-1,3
 1023 257 1023 257 984 193.5 c 128,-1,4
 945 130 945 130 891.5 82.5 c 128,-1,5
 838 35 838 35 768 7.5 c 128,-1,6
 698 -20 698 -20 611 -20 c 256,7,8
 524 -20 524 -20 454.5 7.5 c 128,-1,9
 385 35 385 35 330.5 82.5 c 128,-1,10
 276 130 276 130 236.5 194 c 128,-1,11
 197 258 197 258 171.5 330.5 c 128,-1,12
 146 403 146 403 133.5 480 c 128,-1,13
 121 557 121 557 120 631 c 2,14,-1
 120 823 l 2,15,16
 121 897 121 897 133.5 974.5 c 128,-1,17
 146 1052 146 1052 171 1124.5 c 128,-1,18
 196 1197 196 1197 235.5 1261 c 128,-1,19
 275 1325 275 1325 329 1373 c 128,-1,20
 383 1421 383 1421 452.5 1448.5 c 128,-1,21
 522 1476 522 1476 609 1476 c 0,22,23
 671 1476 671 1476 724.5 1461.5 c 128,-1,24
 778 1447 778 1447 823 1421 c 128,-1,25
 868 1395 868 1395 905 1358.5 c 128,-1,26
 942 1322 942 1322 972 1279 c 1,27,28
 1014 1287 1014 1287 1041.5 1309.5 c 128,-1,29
 1069 1332 1069 1332 1085.5 1366 c 128,-1,30
 1102 1400 1102 1400 1109 1443 c 128,-1,31
 1116 1486 1116 1486 1118 1536 c 1,32,-1
 1227 1536 l 1,33,34
 1227 1471 1227 1471 1215.5 1415 c 128,-1,35
 1204 1359 1204 1359 1178.5 1314.5 c 128,-1,36
 1153 1270 1153 1270 1113.5 1239 c 128,-1,37
 1074 1208 1074 1208 1020 1193 c 1,38,39
 1060 1108 1060 1108 1079 1012.5 c 128,-1,40
 1098 917 1098 917 1099 823 c 2,41,-1
 1099 631 l 2,0,1
981 825 m 2,42,43
 980 883 980 883 972 946 c 128,-1,44
 964 1009 964 1009 946 1069 c 128,-1,45
 928 1129 928 1129 900 1183.5 c 128,-1,46
 872 1238 872 1238 830.5 1279 c 128,-1,47
 789 1320 789 1320 734 1344 c 128,-1,48
 679 1368 679 1368 609 1368 c 256,49,50
 539 1368 539 1368 484.5 1343.5 c 128,-1,51
 430 1319 430 1319 389 1278 c 128,-1,52
 348 1237 348 1237 319.5 1182.5 c 128,-1,53
 291 1128 291 1128 273 1068 c 128,-1,54
 255 1008 255 1008 247 945 c 128,-1,55
 239 882 239 882 238 825 c 2,56,-1
 238 631 l 2,57,58
 239 573 239 573 247.5 510.5 c 128,-1,59
 256 448 256 448 274 387.5 c 128,-1,60
 292 327 292 327 320.5 272.5 c 128,-1,61
 349 218 349 218 390 177 c 128,-1,62
 431 136 431 136 486 111.5 c 128,-1,63
 541 87 541 87 611 87 c 0,64,65
 682 87 682 87 736.5 111.5 c 128,-1,66
 791 136 791 136 832 177 c 128,-1,67
 873 218 873 218 901.5 272.5 c 128,-1,68
 930 327 930 327 947.5 387.5 c 128,-1,69
 965 448 965 448 972.5 510.5 c 128,-1,70
 980 573 980 573 981 631 c 2,71,-1
 981 825 l 2,42,43
EndSplineSet
EndChar
StartChar: ohorn
Encoding: 417 417 151
Width: 1229
Flags: W
LayerCount: 2
Back
Fore
SplineSet
116 557 m 2,0,1
 117 667 117 667 150 766 c 128,-1,2
 183 865 183 865 244.5 939.5 c 128,-1,3
 306 1014 306 1014 395.5 1058 c 128,-1,4
 485 1102 485 1102 598 1102 c 0,5,6
 701 1102 701 1102 783 1066.5 c 128,-1,7
 865 1031 865 1031 926 969 c 1,8,9
 969 973 969 973 999 990.5 c 128,-1,10
 1029 1008 1029 1008 1048 1036.5 c 128,-1,11
 1067 1065 1067 1065 1075.5 1105 c 128,-1,12
 1084 1145 1084 1145 1085 1195 c 1,13,-1
 1196 1195 l 1,14,15
 1195 1069 1195 1069 1145 990 c 128,-1,16
 1095 911 1095 911 992 885 c 1,17,18
 1036 816 1036 816 1058.5 732.5 c 128,-1,19
 1081 649 1081 649 1082 557 c 2,20,-1
 1082 524 l 2,21,22
 1081 414 1081 414 1048.5 315 c 128,-1,23
 1016 216 1016 216 954 141.5 c 128,-1,24
 892 67 892 67 803 23.5 c 128,-1,25
 714 -20 714 -20 600 -20 c 256,26,27
 486 -20 486 -20 396.5 23.5 c 128,-1,28
 307 67 307 67 245 141.5 c 128,-1,29
 183 216 183 216 150 315 c 128,-1,30
 117 414 117 414 116 524 c 2,31,-1
 116 557 l 2,0,1
236 524 m 2,32,33
 236 438 236 438 260 358 c 128,-1,34
 284 278 284 278 330 216.5 c 128,-1,35
 376 155 376 155 443.5 118 c 128,-1,36
 511 81 511 81 600 81 c 0,37,38
 688 81 688 81 755.5 118 c 128,-1,39
 823 155 823 155 868.5 216.5 c 128,-1,40
 914 278 914 278 938 358 c 128,-1,41
 962 438 962 438 962 524 c 2,42,-1
 962 557 l 2,43,44
 962 642 962 642 938 722 c 128,-1,45
 914 802 914 802 868 863.5 c 128,-1,46
 822 925 822 925 754 962.5 c 128,-1,47
 686 1000 686 1000 598 1000 c 256,48,49
 510 1000 510 1000 442.5 962.5 c 128,-1,50
 375 925 375 925 329.5 863.5 c 128,-1,51
 284 802 284 802 260 722 c 128,-1,52
 236 642 236 642 236 557 c 2,53,-1
 236 524 l 2,32,33
EndSplineSet
EndChar
StartChar: Uhorn
Encoding: 431 431 152
Width: 1229
Flags: W
LayerCount: 2
Back
Fore
SplineSet
1071 1456 m 1,0,-1
 1071 1261 l 1,1,2
 1122 1268 1122 1268 1155 1290 c 128,-1,3
 1188 1312 1188 1312 1207 1347 c 128,-1,4
 1226 1382 1226 1382 1234 1428.5 c 128,-1,5
 1242 1475 1242 1475 1243 1532 c 1,6,-1
 1353 1532 l 1,7,8
 1353 1452 1353 1452 1337.5 1388 c 128,-1,9
 1322 1324 1322 1324 1288 1277.5 c 128,-1,10
 1254 1231 1254 1231 1200.5 1202.5 c 128,-1,11
 1147 1174 1147 1174 1071 1167 c 1,12,-1
 1072 469 l 2,13,14
 1070 370 1070 370 1037.5 281 c 128,-1,15
 1005 192 1005 192 946 125.5 c 128,-1,16
 887 59 887 59 803 19.5 c 128,-1,17
 719 -20 719 -20 615 -20 c 0,18,19
 510 -20 510 -20 426 19 c 128,-1,20
 342 58 342 58 283 125 c 128,-1,21
 224 192 224 192 191 281 c 128,-1,22
 158 370 158 370 157 469 c 2,23,-1
 159 1456 l 1,24,-1
 272 1456 l 1,25,-1
 275 469 l 2,26,27
 276 394 276 394 299 324.5 c 128,-1,28
 322 255 322 255 365 201.5 c 128,-1,29
 408 148 408 148 471 116 c 128,-1,30
 534 84 534 84 615 84 c 256,31,32
 696 84 696 84 758.5 116 c 128,-1,33
 821 148 821 148 863.5 201.5 c 128,-1,34
 906 255 906 255 928.5 324.5 c 128,-1,35
 951 394 951 394 953 469 c 2,36,-1
 955 1456 l 1,37,-1
 1071 1456 l 1,0,-1
EndSplineSet
EndChar
StartChar: uhorn
Encoding: 432 432 153
Width: 1229
Flags: W
LayerCount: 2
Back
Fore
SplineSet
1305 1181 m 1,0,1
 1303 1029 1303 1029 1239.5 946 c 128,-1,2
 1176 863 1176 863 1037 849 c 1,3,-1
 1037 0 l 1,4,-1
 925 0 l 1,5,-1
 919 169 l 1,6,7
 865 80 865 80 776.5 30 c 128,-1,8
 688 -20 688 -20 567 -20 c 0,9,10
 477 -20 477 -20 408.5 9 c 128,-1,11
 340 38 340 38 293.5 94 c 128,-1,12
 247 150 247 150 222.5 231 c 128,-1,13
 198 312 198 312 198 416 c 2,14,-1
 198 1082 l 1,15,-1
 317 1082 l 1,16,-1
 317 414 l 2,17,18
 319 251 319 251 383 167 c 128,-1,19
 447 83 447 83 581 83 c 0,20,21
 716 83 716 83 800 145 c 128,-1,22
 884 207 884 207 917 313 c 1,23,-1
 916 1082 l 1,24,-1
 1037 1082 l 1,25,-1
 1037 943 l 1,26,27
 1081 950 1081 950 1111 968 c 128,-1,28
 1141 986 1141 986 1159 1015.5 c 128,-1,29
 1177 1045 1177 1045 1185 1086 c 128,-1,30
 1193 1127 1193 1127 1194 1181 c 1,31,-1
 1305 1181 l 1,0,1
EndSplineSet
EndChar
StartChar: uni0237
Encoding: 567 567 154
Width: 1229
Flags: W
LayerCount: 2
Back
Fore
SplineSet
265 1082 m 1,0,-1
 797 1082 l 1,1,-1
 797 0 l 2,2,3
 797 -102 797 -102 769.5 -183 c 128,-1,4
 742 -264 742 -264 689.5 -320.5 c 128,-1,5
 637 -377 637 -377 561 -407 c 128,-1,6
 485 -437 485 -437 389 -437 c 0,7,8
 360 -437 360 -437 334.5 -436 c 128,-1,9
 309 -435 309 -435 284 -433 c 128,-1,10
 259 -431 259 -431 234 -428 c 128,-1,11
 209 -425 209 -425 181 -420 c 1,12,-1
 190 -321 l 1,13,14
 208 -324 208 -324 234.5 -326.5 c 128,-1,15
 261 -329 261 -329 288 -330.5 c 128,-1,16
 315 -332 315 -332 340 -332.5 c 128,-1,17
 365 -333 365 -333 380 -333 c 0,18,19
 440 -333 440 -333 494 -316 c 128,-1,20
 548 -299 548 -299 588.5 -259.5 c 128,-1,21
 629 -220 629 -220 653 -156.5 c 128,-1,22
 677 -93 677 -93 677 0 c 2,23,-1
 677 975 l 1,24,-1
 265 975 l 1,25,-1
 265 1082 l 1,0,-1
EndSplineSet
EndChar
StartChar: schwa
Encoding: 601 601 155
Width: 1229
Flags: W
LayerCount: 2
Back
Fore
SplineSet
613 1102 m 0,0,1
 724 1102 724 1102 814.5 1059.5 c 128,-1,2
 905 1017 905 1017 969 944.5 c 128,-1,3
 1033 872 1033 872 1068 776 c 128,-1,4
 1103 680 1103 680 1104 572 c 2,5,-1
 1104 517 l 2,6,7
 1104 408 1104 408 1068 310.5 c 128,-1,8
 1032 213 1032 213 968.5 139.5 c 128,-1,9
 905 66 905 66 818 23 c 128,-1,10
 731 -20 731 -20 628 -20 c 0,11,12
 521 -20 521 -20 438.5 15 c 128,-1,13
 356 50 356 50 299.5 111.5 c 128,-1,14
 243 173 243 173 213 257.5 c 128,-1,15
 183 342 183 342 183 441 c 2,16,-1
 183 543 l 1,17,-1
 985 543 l 1,18,-1
 985 572 l 2,19,20
 984 656 984 656 958.5 733.5 c 128,-1,21
 933 811 933 811 885.5 870.5 c 128,-1,22
 838 930 838 930 769.5 965.5 c 128,-1,23
 701 1001 701 1001 613 1001 c 0,24,25
 506 1001 506 1001 419 971.5 c 128,-1,26
 332 942 332 942 270 880 c 1,27,-1
 219 963 l 1,28,29
 285 1028 285 1028 383.5 1065.5 c 128,-1,30
 482 1103 482 1103 613 1102 c 0,0,1
628 81 m 0,31,32
 701 81 701 81 761 110 c 128,-1,33
 821 139 821 139 866 188 c 128,-1,34
 911 237 911 237 939.5 302.5 c 128,-1,35
 968 368 968 368 979 441 c 1,36,-1
 302 441 l 1,37,-1
 302 412 l 2,38,39
 303 344 303 344 325 284 c 128,-1,40
 347 224 347 224 389 179 c 128,-1,41
 431 134 431 134 491 107.5 c 128,-1,42
 551 81 551 81 628 81 c 0,31,32
EndSplineSet
EndChar
StartChar: circumflex
Encoding: 710 710 156
Width: 1229
Flags: W
LayerCount: 2
Back
Fore
SplineSet
844 1275 m 1,0,-1
 844 1258 l 1,1,-1
 733 1258 l 1,2,-1
 564 1432 l 1,3,-1
 397 1258 l 1,4,-1
 289 1258 l 1,5,-1
 289 1278 l 1,6,-1
 527 1517 l 1,7,-1
 603 1517 l 1,8,-1
 844 1275 l 1,0,-1
EndSplineSet
EndChar
StartChar: caron
Encoding: 711 711 157
Width: 1229
Flags: W
LayerCount: 2
Back
Fore
SplineSet
613 1326 m 1,0,-1
 786 1511 l 1,1,-1
 892 1511 l 1,2,-1
 892 1496 l 1,3,-1
 656 1247 l 1,4,-1
 570 1247 l 1,5,-1
 334 1495 l 1,6,-1
 334 1511 l 1,7,-1
 441 1511 l 1,8,-1
 613 1326 l 1,0,-1
EndSplineSet
EndChar
StartChar: breve
Encoding: 728 728 158
Width: 1229
Flags: W
LayerCount: 2
Back
Fore
SplineSet
903 1472 m 1,0,1
 901 1413 901 1413 879.5 1365.5 c 128,-1,2
 858 1318 858 1318 820 1284.5 c 128,-1,3
 782 1251 782 1251 730 1233 c 128,-1,4
 678 1215 678 1215 615 1215 c 256,5,6
 552 1215 552 1215 499.5 1233 c 128,-1,7
 447 1251 447 1251 408.5 1284.5 c 128,-1,8
 370 1318 370 1318 348.5 1365.5 c 128,-1,9
 327 1413 327 1413 325 1472 c 1,10,-1
 427 1472 l 1,11,12
 430 1392 430 1392 478.5 1346.5 c 128,-1,13
 527 1301 527 1301 615 1301 c 0,14,15
 700 1301 700 1301 748.5 1347 c 128,-1,16
 797 1393 797 1393 801 1472 c 1,17,-1
 903 1472 l 1,0,1
EndSplineSet
EndChar
StartChar: dotaccent
Encoding: 729 729 159
Width: 1229
Flags: W
LayerCount: 2
Back
Fore
SplineSet
527 1378 m 0,0,1
 527 1412 527 1412 549.5 1436.5 c 128,-1,2
 572 1461 572 1461 613 1461 c 0,3,4
 653 1461 653 1461 676 1437 c 128,-1,5
 699 1413 699 1413 699 1378 c 256,6,7
 699 1343 699 1343 676 1319.5 c 128,-1,8
 653 1296 653 1296 613 1296 c 0,9,10
 572 1296 572 1296 549.5 1319.5 c 128,-1,11
 527 1343 527 1343 527 1378 c 0,0,1
EndSplineSet
EndChar
StartChar: ring
Encoding: 730 730 160
Width: 1229
Flags: W
LayerCount: 2
Back
Fore
SplineSet
430 1348 m 0,0,1
 430 1386 430 1386 444.5 1420 c 128,-1,2
 459 1454 459 1454 483.5 1479.5 c 128,-1,3
 508 1505 508 1505 541.5 1519.5 c 128,-1,4
 575 1534 575 1534 614 1534 c 0,5,6
 652 1534 652 1534 685.5 1519.5 c 128,-1,7
 719 1505 719 1505 743.5 1479.5 c 128,-1,8
 768 1454 768 1454 782.5 1420 c 128,-1,9
 797 1386 797 1386 797 1348 c 0,10,11
 797 1309 797 1309 782.5 1276 c 128,-1,12
 768 1243 768 1243 743.5 1218.5 c 128,-1,13
 719 1194 719 1194 685.5 1180 c 128,-1,14
 652 1166 652 1166 614 1166 c 0,15,16
 575 1166 575 1166 541.5 1180 c 128,-1,17
 508 1194 508 1194 483.5 1218.5 c 128,-1,18
 459 1243 459 1243 444.5 1276 c 128,-1,19
 430 1309 430 1309 430 1348 c 0,0,1
506 1348 m 256,20,21
 506 1325 506 1325 514.5 1305 c 128,-1,22
 523 1285 523 1285 537.5 1270 c 128,-1,23
 552 1255 552 1255 571.5 1246 c 128,-1,24
 591 1237 591 1237 614 1237 c 256,25,26
 637 1237 637 1237 656.5 1246 c 128,-1,27
 676 1255 676 1255 690 1270 c 128,-1,28
 704 1285 704 1285 712 1305 c 128,-1,29
 720 1325 720 1325 720 1348 c 256,30,31
 720 1371 720 1371 712 1392 c 128,-1,32
 704 1413 704 1413 690 1428.5 c 128,-1,33
 676 1444 676 1444 656.5 1453 c 128,-1,34
 637 1462 637 1462 614 1462 c 256,35,36
 591 1462 591 1462 571 1453 c 128,-1,37
 551 1444 551 1444 536.5 1428.5 c 128,-1,38
 522 1413 522 1413 514 1392 c 128,-1,39
 506 1371 506 1371 506 1348 c 256,20,21
EndSplineSet
EndChar
StartChar: ogonek
Encoding: 731 731 161
Width: 1229
Flags: W
LayerCount: 2
Back
Fore
SplineSet
711 0 m 1,0,1
 677 -21 677 -21 643.5 -46 c 128,-1,2
 610 -71 610 -71 584 -100 c 128,-1,3
 558 -129 558 -129 541.5 -162 c 128,-1,4
 525 -195 525 -195 525 -232 c 0,5,6
 526 -272 526 -272 548.5 -294.5 c 128,-1,7
 571 -317 571 -317 614 -318 c 0,8,9
 646 -319 646 -319 674 -309 c 128,-1,10
 702 -299 702 -299 723 -285 c 1,11,-1
 746 -369 l 1,12,13
 717 -388 717 -388 679.5 -400.5 c 128,-1,14
 642 -413 642 -413 591 -413 c 0,15,16
 554 -413 554 -413 522.5 -402 c 128,-1,17
 491 -391 491 -391 467.5 -369 c 128,-1,18
 444 -347 444 -347 431 -316 c 128,-1,19
 418 -285 418 -285 418 -244 c 0,20,21
 418 -202 418 -202 437.5 -162 c 128,-1,22
 457 -122 457 -122 488.5 -86 c 128,-1,23
 520 -50 520 -50 561 -19 c 128,-1,24
 602 12 602 12 645 37 c 1,25,-1
 711 0 l 1,0,1
EndSplineSet
EndChar
StartChar: tilde
Encoding: 732 732 162
Width: 1229
Flags: W
LayerCount: 2
Back
Fore
SplineSet
802 1481 m 1,0,1
 800 1440 800 1440 786.5 1403 c 128,-1,2
 773 1366 773 1366 748.5 1338 c 128,-1,3
 724 1310 724 1310 690 1293.5 c 128,-1,4
 656 1277 656 1277 613 1277 c 0,5,6
 566 1277 566 1277 532.5 1294 c 128,-1,7
 499 1311 499 1311 469 1332 c 128,-1,8
 439 1353 439 1353 408 1370 c 128,-1,9
 377 1387 377 1387 336 1387 c 0,10,11
 285 1386 285 1386 257 1352 c 128,-1,12
 229 1318 229 1318 226 1268 c 1,13,-1
 147 1281 l 1,14,15
 148 1321 148 1321 161.5 1358 c 128,-1,16
 175 1395 175 1395 199.5 1423 c 128,-1,17
 224 1451 224 1451 258.5 1467.5 c 128,-1,18
 293 1484 293 1484 336 1484 c 0,19,20
 378 1484 378 1484 411.5 1466.5 c 128,-1,21
 445 1449 445 1449 476.5 1428.5 c 128,-1,22
 508 1408 508 1408 540.5 1391 c 128,-1,23
 573 1374 573 1374 613 1374 c 0,24,25
 638 1374 638 1374 658 1384 c 128,-1,26
 678 1394 678 1394 692 1410.5 c 128,-1,27
 706 1427 706 1427 713.5 1449 c 128,-1,28
 721 1471 721 1471 723 1496 c 1,29,-1
 802 1481 l 1,0,1
EndSplineSet
EndChar
StartChar: uni02F3
Encoding: 755 755 164
Width: 1229
Flags: W
LayerCount: 2
Back
Fore
SplineSet
460 -226 m 0,0,1
 460 -198 460 -198 471.5 -173.5 c 128,-1,2
 483 -149 483 -149 502 -131 c 128,-1,3
 521 -113 521 -113 546 -102.5 c 128,-1,4
 571 -92 571 -92 599 -92 c 0,5,6
 626 -92 626 -92 651 -102.5 c 128,-1,7
 676 -113 676 -113 694.5 -131 c 128,-1,8
 713 -149 713 -149 724 -173.5 c 128,-1,9
 735 -198 735 -198 735 -226 c 256,10,11
 735 -254 735 -254 724 -278 c 128,-1,12
 713 -302 713 -302 694.5 -319 c 128,-1,13
 676 -336 676 -336 651 -346 c 128,-1,14
 626 -356 626 -356 599 -356 c 256,15,16
 572 -356 572 -356 546.5 -346.5 c 128,-1,17
 521 -337 521 -337 502 -319.5 c 128,-1,18
 483 -302 483 -302 471.5 -278.5 c 128,-1,19
 460 -255 460 -255 460 -226 c 0,0,1
532 -226 m 1,20,21
 536 -252 536 -252 553 -270 c 128,-1,22
 570 -288 570 -288 599 -288 c 0,23,24
 625 -288 625 -288 644 -270 c 128,-1,25
 663 -252 663 -252 664 -226 c 0,26,27
 664 -198 664 -198 644.5 -179.5 c 128,-1,28
 625 -161 625 -161 599 -161 c 0,29,30
 570 -160 570 -160 552.5 -179 c 128,-1,31
 535 -198 535 -198 532 -226 c 1,20,21
EndSplineSet
EndChar
StartChar: gravecomb
Encoding: 768 768 165
Width: 553
Flags: W
LayerCount: 2
Back
Fore
SplineSet
-556 1228 m 1,0,-1
 -655 1228 l 1,1,-1
 -840 1546 l 1,2,-1
 -710 1546 l 1,3,-1
 -556 1228 l 1,0,-1
EndSplineSet
EndChar
StartChar: acutecomb
Encoding: 769 769 166
Width: 553
Flags: W
LayerCount: 2
Back
Fore
SplineSet
-543 1547 m 1,0,-1
 -422 1547 l 1,1,-1
 -600 1229 l 1,2,-1
 -689 1229 l 1,3,-1
 -543 1547 l 1,0,-1
EndSplineSet
EndChar
StartChar: hook
Encoding: 777 777 168
Width: 553
Flags: W
LayerCount: 2
Back
Fore
SplineSet
-651 1234 m 1,0,-1
 -652 1359 l 1,1,2
 -621 1362 -621 1362 -591 1366.5 c 128,-1,3
 -561 1371 -561 1371 -537.5 1380.5 c 128,-1,4
 -514 1390 -514 1390 -499.5 1407.5 c 128,-1,5
 -485 1425 -485 1425 -485 1453 c 0,6,7
 -485 1483 -485 1483 -505.5 1501.5 c 128,-1,8
 -526 1520 -526 1520 -556 1530.5 c 128,-1,9
 -586 1541 -586 1541 -621 1544.5 c 128,-1,10
 -656 1548 -656 1548 -686 1548 c 1,11,-1
 -679 1625 l 1,12,13
 -625 1624 -625 1624 -572 1614.5 c 128,-1,14
 -519 1605 -519 1605 -477.5 1584.5 c 128,-1,15
 -436 1564 -436 1564 -410.5 1531.5 c 128,-1,16
 -385 1499 -385 1499 -385 1452 c 0,17,18
 -385 1412 -385 1412 -400.5 1384 c 128,-1,19
 -416 1356 -416 1356 -441 1337.5 c 128,-1,20
 -466 1319 -466 1319 -497.5 1309.5 c 128,-1,21
 -529 1300 -529 1300 -561 1296 c 1,22,-1
 -561 1234 l 1,23,-1
 -651 1234 l 1,0,-1
EndSplineSet
EndChar
StartChar: uni030F
Encoding: 783 783 169
Width: 553
Flags: W
LayerCount: 2
Back
Fore
SplineSet
-740 1252 m 1,0,-1
 -861 1252 l 1,1,-1
 -1163 1518 l 1,2,-1
 -1010 1518 l 1,3,-1
 -740 1252 l 1,0,-1
-497 1252 m 1,4,-1
 -606 1252 l 1,5,-1
 -856 1518 l 1,6,-1
 -714 1518 l 1,7,-1
 -497 1252 l 1,4,-1
EndSplineSet
EndChar
StartChar: dotbelow
Encoding: 803 803 170
Width: 553
Flags: W
LayerCount: 2
Back
Fore
SplineSet
-770 -226 m 0,0,1
 -771 -191 -771 -191 -747.5 -167 c 128,-1,2
 -724 -143 -724 -143 -685 -143 c 256,3,4
 -646 -143 -646 -143 -622 -167 c 128,-1,5
 -598 -191 -598 -191 -598 -226 c 0,6,7
 -598 -260 -598 -260 -622 -284 c 128,-1,8
 -646 -308 -646 -308 -685 -308 c 256,9,10
 -724 -308 -724 -308 -747 -284 c 128,-1,11
 -770 -260 -770 -260 -770 -226 c 0,0,1
EndSplineSet
EndChar
StartChar: tonos
Encoding: 900 900 171
Width: 1229
Flags: W
LayerCount: 2
Back
Fore
SplineSet
663 1617 m 1,0,-1
 794 1617 l 1,1,-1
 651 1288 l 1,2,-1
 578 1288 l 1,3,-1
 663 1617 l 1,0,-1
EndSplineSet
EndChar
StartChar: dieresistonos
Encoding: 901 901 172
Width: 1229
Flags: W
LayerCount: 2
Back
Fore
SplineSet
638 1691 m 1,0,-1
 779 1691 l 1,1,-1
 699 1439 l 1,2,-1
 603 1439 l 1,3,-1
 638 1691 l 1,0,-1
334 1391 m 0,4,5
 334 1425 334 1425 356 1449.5 c 128,-1,6
 378 1474 378 1474 417 1474 c 256,7,8
 456 1474 456 1474 479 1449.5 c 128,-1,9
 502 1425 502 1425 502 1391 c 0,10,11
 502 1358 502 1358 479 1333.5 c 128,-1,12
 456 1309 456 1309 417 1309 c 0,13,14
 379 1309 379 1309 356.5 1333.5 c 128,-1,15
 334 1358 334 1358 334 1391 c 0,4,5
796 1391 m 0,16,17
 796 1425 796 1425 818 1449.5 c 128,-1,18
 840 1474 840 1474 879 1474 c 256,19,20
 918 1474 918 1474 941 1449.5 c 128,-1,21
 964 1425 964 1425 964 1391 c 0,22,23
 964 1358 964 1358 941 1333.5 c 128,-1,24
 918 1309 918 1309 879 1309 c 0,25,26
 841 1309 841 1309 818.5 1333.5 c 128,-1,27
 796 1358 796 1358 796 1391 c 0,16,17
EndSplineSet
EndChar
StartChar: Gamma
Encoding: 915 915 174
Width: 1229
Flags: W
LayerCount: 2
Back
Fore
SplineSet
1064 1354 m 1,0,-1
 310 1354 l 1,1,-1
 310 0 l 1,2,-1
 190 0 l 1,3,-1
 190 1456 l 1,4,-1
 1064 1456 l 1,5,-1
 1064 1354 l 1,0,-1
EndSplineSet
EndChar
StartChar: Delta
Encoding: 916 916 175
AltUni2: 002206.ffffffff.0
Width: 1229
Flags: W
LayerCount: 2
Back
Fore
SplineSet
693 1456 m 1,0,-1
 1195 0 l 1,1,-1
 62 0 l 1,2,-1
 583 1456 l 1,3,-1
 693 1456 l 1,0,-1
219 101 m 1,4,-1
 1038 101 l 1,5,-1
 637 1298 l 1,6,-1
 219 101 l 1,4,-1
EndSplineSet
EndChar
StartChar: Theta
Encoding: 920 920 176
Width: 1229
Flags: W
LayerCount: 2
Back
Fore
SplineSet
850 676 m 1,0,-1
 362 676 l 1,1,-1
 362 777 l 1,2,-1
 850 777 l 1,3,-1
 850 676 l 1,0,-1
1103 631 m 2,4,5
 1102 557 1102 557 1090 479.5 c 128,-1,6
 1078 402 1078 402 1052.5 329.5 c 128,-1,7
 1027 257 1027 257 988 193.5 c 128,-1,8
 949 130 949 130 895.5 82.5 c 128,-1,9
 842 35 842 35 772 7.5 c 128,-1,10
 702 -20 702 -20 615 -20 c 0,11,12
 529 -20 529 -20 459 7.5 c 128,-1,13
 389 35 389 35 334.5 82.5 c 128,-1,14
 280 130 280 130 240.5 194 c 128,-1,15
 201 258 201 258 175.5 330.5 c 128,-1,16
 150 403 150 403 137.5 480 c 128,-1,17
 125 557 125 557 124 631 c 2,18,-1
 124 823 l 2,19,20
 125 897 125 897 137.5 974.5 c 128,-1,21
 150 1052 150 1052 175 1124.5 c 128,-1,22
 200 1197 200 1197 239.5 1261 c 128,-1,23
 279 1325 279 1325 333 1373 c 128,-1,24
 387 1421 387 1421 456.5 1448.5 c 128,-1,25
 526 1476 526 1476 613 1476 c 256,26,27
 700 1476 700 1476 770 1448.5 c 128,-1,28
 840 1421 840 1421 894.5 1373.5 c 128,-1,29
 949 1326 949 1326 988 1262 c 128,-1,30
 1027 1198 1027 1198 1052.5 1125.5 c 128,-1,31
 1078 1053 1078 1053 1090 975.5 c 128,-1,32
 1102 898 1102 898 1103 823 c 2,33,-1
 1103 631 l 2,4,5
985 825 m 2,34,35
 984 883 984 883 976 946 c 128,-1,36
 968 1009 968 1009 950 1069 c 128,-1,37
 932 1129 932 1129 903.5 1183.5 c 128,-1,38
 875 1238 875 1238 834 1279 c 128,-1,39
 793 1320 793 1320 738 1344 c 128,-1,40
 683 1368 683 1368 613 1368 c 256,41,42
 543 1368 543 1368 488.5 1343.5 c 128,-1,43
 434 1319 434 1319 393 1278 c 128,-1,44
 352 1237 352 1237 323.5 1182.5 c 128,-1,45
 295 1128 295 1128 277 1068 c 128,-1,46
 259 1008 259 1008 251 945 c 128,-1,47
 243 882 243 882 242 825 c 2,48,-1
 242 631 l 2,49,50
 243 573 243 573 251.5 510.5 c 128,-1,51
 260 448 260 448 278 387.5 c 128,-1,52
 296 327 296 327 324.5 272.5 c 128,-1,53
 353 218 353 218 394 177 c 128,-1,54
 435 136 435 136 490 111.5 c 128,-1,55
 545 87 545 87 615 87 c 0,56,57
 686 87 686 87 740.5 111.5 c 128,-1,58
 795 136 795 136 836 177 c 128,-1,59
 877 218 877 218 905.5 272.5 c 128,-1,60
 934 327 934 327 951.5 387.5 c 128,-1,61
 969 448 969 448 976.5 510.5 c 128,-1,62
 984 573 984 573 985 631 c 2,63,-1
 985 825 l 2,34,35
EndSplineSet
EndChar
StartChar: Lambda
Encoding: 923 923 177
Width: 1229
Flags: W
LayerCount: 2
Back
Fore
SplineSet
620 1282 m 1,0,-1
 201 0 l 1,1,-1
 78 0 l 1,2,-1
 565 1456 l 1,3,-1
 676 1456 l 1,4,-1
 1164 0 l 1,5,-1
 1041 0 l 1,6,-1
 620 1282 l 1,0,-1
EndSplineSet
EndChar
StartChar: Xi
Encoding: 926 926 178
Width: 1229
Flags: W
LayerCount: 2
Back
Fore
SplineSet
153 101 m 1,0,-1
 1071 101 l 1,1,-1
 1071 0 l 1,2,-1
 153 0 l 1,3,-1
 153 101 l 1,0,-1
249 784 m 1,4,-1
 965 784 l 1,5,-1
 965 682 l 1,6,-1
 249 682 l 1,7,-1
 249 784 l 1,4,-1
164 1456 m 1,8,-1
 1044 1456 l 1,9,-1
 1044 1354 l 1,10,-1
 164 1354 l 1,11,-1
 164 1456 l 1,8,-1
EndSplineSet
EndChar
StartChar: Pi
Encoding: 928 928 179
Width: 1229
Flags: W
LayerCount: 2
Back
Fore
SplineSet
1054 0 m 1,0,-1
 936 0 l 1,1,-1
 936 1354 l 1,2,-1
 292 1354 l 1,3,-1
 292 0 l 1,4,-1
 174 0 l 1,5,-1
 174 1456 l 1,6,-1
 1054 1456 l 1,7,-1
 1054 0 l 1,0,-1
EndSplineSet
EndChar
StartChar: Sigma
Encoding: 931 931 180
Width: 1229
Flags: W
LayerCount: 2
Back
Fore
SplineSet
761 743 m 1,0,-1
 271 102 l 1,1,-1
 1128 102 l 1,2,-1
 1128 0 l 1,3,-1
 121 0 l 1,4,-1
 121 93 l 1,5,-1
 637 759 l 1,6,-1
 121 1363 l 1,7,-1
 121 1456 l 1,8,-1
 1073 1456 l 1,9,-1
 1073 1354 l 1,10,-1
 278 1354 l 1,11,-1
 761 779 l 1,12,-1
 761 743 l 1,0,-1
EndSplineSet
EndChar
StartChar: Phi
Encoding: 934 934 181
Width: 1229
Flags: W
LayerCount: 2
Back
Fore
SplineSet
673 1258 m 1,0,1
 776 1253 776 1253 863.5 1211.5 c 128,-1,2
 951 1170 951 1170 1015 1100.5 c 128,-1,3
 1079 1031 1079 1031 1114.5 936.5 c 128,-1,4
 1150 842 1150 842 1150 732 c 0,5,6
 1150 621 1150 621 1114.5 526.5 c 128,-1,7
 1079 432 1079 432 1015 361.5 c 128,-1,8
 951 291 951 291 863.5 249 c 128,-1,9
 776 207 776 207 673 202 c 1,10,-1
 673 0 l 1,11,-1
 555 0 l 1,12,-1
 555 202 l 1,13,14
 451 207 451 207 363.5 248.5 c 128,-1,15
 276 290 276 290 213 360 c 128,-1,16
 150 430 150 430 114.5 524.5 c 128,-1,17
 79 619 79 619 79 730 c 0,18,19
 79 840 79 840 114.5 934.5 c 128,-1,20
 150 1029 150 1029 213 1099.5 c 128,-1,21
 276 1170 276 1170 363.5 1211.5 c 128,-1,22
 451 1253 451 1253 555 1258 c 1,23,-1
 555 1456 l 1,24,-1
 673 1456 l 1,25,-1
 673 1258 l 1,0,1
1031 732 m 0,26,27
 1031 821 1031 821 1006 897 c 128,-1,28
 981 973 981 973 934.5 1029 c 128,-1,29
 888 1085 888 1085 821.5 1118 c 128,-1,30
 755 1151 755 1151 673 1156 c 1,31,-1
 673 303 l 1,32,33
 755 307 755 307 821.5 341 c 128,-1,34
 888 375 888 375 934.5 432 c 128,-1,35
 981 489 981 489 1006 565.5 c 128,-1,36
 1031 642 1031 642 1031 732 c 0,26,27
198 730 m 0,37,38
 198 640 198 640 223 564 c 128,-1,39
 248 488 248 488 294 431.5 c 128,-1,40
 340 375 340 375 406 341.5 c 128,-1,41
 472 308 472 308 555 304 c 1,42,-1
 555 1156 l 1,43,44
 472 1151 472 1151 406 1117.5 c 128,-1,45
 340 1084 340 1084 294 1027.5 c 128,-1,46
 248 971 248 971 223 895 c 128,-1,47
 198 819 198 819 198 730 c 0,37,38
EndSplineSet
EndChar
StartChar: Psi
Encoding: 936 936 182
Width: 1229
Flags: W
LayerCount: 2
Back
Fore
SplineSet
679 474 m 1,0,1
 754 483 754 483 813 517.5 c 128,-1,2
 872 552 872 552 913 606.5 c 128,-1,3
 954 661 954 661 976.5 734.5 c 128,-1,4
 999 808 999 808 999 895 c 2,5,-1
 1000 1456 l 1,6,-1
 1118 1456 l 1,7,-1
 1119 895 l 2,8,9
 1118 783 1118 783 1087 690.5 c 128,-1,10
 1056 598 1056 598 999 530 c 128,-1,11
 942 462 942 462 861 421 c 128,-1,12
 780 380 780 380 679 371 c 1,13,-1
 679 0 l 1,14,-1
 560 0 l 1,15,-1
 560 371 l 1,16,17
 459 380 459 380 378.5 421.5 c 128,-1,18
 298 463 298 463 241.5 531 c 128,-1,19
 185 599 185 599 154.5 691 c 128,-1,20
 124 783 124 783 123 895 c 2,21,-1
 123 1456 l 1,22,-1
 242 1456 l 1,23,-1
 243 895 l 2,24,25
 243 808 243 808 265 735 c 128,-1,26
 287 662 287 662 328 607.5 c 128,-1,27
 369 553 369 553 427.5 518.5 c 128,-1,28
 486 484 486 484 560 475 c 1,29,-1
 560 1456 l 1,30,-1
 679 1456 l 1,31,-1
 679 474 l 1,0,1
EndSplineSet
EndChar
StartChar: Omega
Encoding: 937 937 183
AltUni2: 002126.ffffffff.0
Width: 1229
Flags: W
LayerCount: 2
Back
Fore
SplineSet
694 134 m 1,0,1
 771 166 771 166 827 224 c 128,-1,2
 883 282 883 282 919.5 360.5 c 128,-1,3
 956 439 956 439 974 536.5 c 128,-1,4
 992 634 992 634 992 745 c 2,5,-1
 992 846 l 2,6,7
 992 952 992 952 968 1048 c 128,-1,8
 944 1144 944 1144 896.5 1216.5 c 128,-1,9
 849 1289 849 1289 778 1331.5 c 128,-1,10
 707 1374 707 1374 611 1374 c 0,11,12
 516 1374 516 1374 445.5 1331 c 128,-1,13
 375 1288 375 1288 328 1215.5 c 128,-1,14
 281 1143 281 1143 257 1047.5 c 128,-1,15
 233 952 233 952 233 846 c 2,16,-1
 233 745 l 2,17,18
 233 633 233 633 251.5 535.5 c 128,-1,19
 270 438 270 438 307.5 359.5 c 128,-1,20
 345 281 345 281 402 223.5 c 128,-1,21
 459 166 459 166 537 134 c 1,22,-1
 537 0 l 1,23,-1
 108 0 l 1,24,-1
 108 101 l 1,25,-1
 413 101 l 1,26,27
 339 149 339 149 283 220 c 128,-1,28
 227 291 227 291 189.5 376 c 128,-1,29
 152 461 152 461 132.5 555.5 c 128,-1,30
 113 650 113 650 113 745 c 2,31,-1
 113 844 l 2,32,33
 113 968 113 968 145.5 1082 c 128,-1,34
 178 1196 178 1196 241 1283.5 c 128,-1,35
 304 1371 304 1371 396.5 1423.5 c 128,-1,36
 489 1476 489 1476 611 1476 c 256,37,38
 733 1476 733 1476 826 1423.5 c 128,-1,39
 919 1371 919 1371 982.5 1283.5 c 128,-1,40
 1046 1196 1046 1196 1078.5 1082 c 128,-1,41
 1111 968 1111 968 1111 844 c 2,42,-1
 1111 745 l 2,43,44
 1111 650 1111 650 1092 555.5 c 128,-1,45
 1073 461 1073 461 1035.5 376 c 128,-1,46
 998 291 998 291 942.5 220 c 128,-1,47
 887 149 887 149 814 101 c 1,48,-1
 1122 101 l 1,49,-1
 1122 0 l 1,50,-1
 694 0 l 1,51,-1
 694 134 l 1,0,1
EndSplineSet
EndChar
StartChar: alpha
Encoding: 945 945 184
Width: 1229
Flags: W
LayerCount: 2
Back
Fore
SplineSet
983 1082 m 1,0,-1
 983 265 l 2,1,2
 983 231 983 231 988 198.5 c 128,-1,3
 993 166 993 166 1004 141.5 c 128,-1,4
 1015 117 1015 117 1034.5 102 c 128,-1,5
 1054 87 1054 87 1084 87 c 0,6,7
 1100 87 1100 87 1114.5 89.5 c 128,-1,8
 1129 92 1129 92 1142 95 c 1,9,-1
 1159 2 l 1,10,11
 1135 -11 1135 -11 1111.5 -16 c 128,-1,12
 1088 -21 1088 -21 1062 -21 c 0,13,14
 1019 -21 1019 -21 987 -8 c 128,-1,15
 955 5 955 5 932 28.5 c 128,-1,16
 909 52 909 52 894 85.5 c 128,-1,17
 879 119 879 119 872 160 c 1,18,19
 816 75 816 75 731.5 27 c 128,-1,20
 647 -21 647 -21 536 -21 c 0,21,22
 432 -21 432 -21 356.5 23.5 c 128,-1,23
 281 68 281 68 231.5 142 c 128,-1,24
 182 216 182 216 158 312 c 128,-1,25
 134 408 134 408 134 511 c 2,26,-1
 134 532 l 2,27,28
 134 605 134 605 144.5 675.5 c 128,-1,29
 155 746 155 746 176.5 809.5 c 128,-1,30
 198 873 198 873 230.5 926.5 c 128,-1,31
 263 980 263 980 308 1019 c 128,-1,32
 353 1058 353 1058 410 1080 c 128,-1,33
 467 1102 467 1102 538 1102 c 0,34,35
 650 1102 650 1102 733.5 1051.5 c 128,-1,36
 817 1001 817 1001 871 913 c 1,37,-1
 903 1082 l 1,38,-1
 983 1082 l 1,0,-1
255 511 m 2,39,40
 255 432 255 432 270.5 355 c 128,-1,41
 286 278 286 278 321.5 217 c 128,-1,42
 357 156 357 156 415 118 c 128,-1,43
 473 80 473 80 558 80 c 0,44,45
 613 80 613 80 660 96 c 128,-1,46
 707 112 707 112 745.5 140.5 c 128,-1,47
 784 169 784 169 814 207.5 c 128,-1,48
 844 246 844 246 864 292 c 1,49,-1
 864 772 l 1,50,51
 844 819 844 819 815 860.5 c 128,-1,52
 786 902 786 902 747.5 932.5 c 128,-1,53
 709 963 709 963 662 981.5 c 128,-1,54
 615 1000 615 1000 560 1000 c 0,55,56
 474 1000 474 1000 415.5 958 c 128,-1,57
 357 916 357 916 321.5 849 c 128,-1,58
 286 782 286 782 270.5 698.5 c 128,-1,59
 255 615 255 615 255 532 c 2,60,-1
 255 511 l 2,39,40
EndSplineSet
EndChar
StartChar: beta
Encoding: 946 946 185
Width: 1229
Flags: W
LayerCount: 2
Back
Fore
SplineSet
608 1476 m 0,0,1
 698 1476 698 1476 773 1448 c 128,-1,2
 848 1420 848 1420 902.5 1369.5 c 128,-1,3
 957 1319 957 1319 987.5 1248.5 c 128,-1,4
 1018 1178 1018 1178 1018 1093 c 0,5,6
 1018 1040 1018 1040 1003.5 993 c 128,-1,7
 989 946 989 946 962.5 906.5 c 128,-1,8
 936 867 936 867 898 835.5 c 128,-1,9
 860 804 860 804 814 782 c 1,10,11
 879 763 879 763 932.5 729 c 128,-1,12
 986 695 986 695 1024 647 c 128,-1,13
 1062 599 1062 599 1083 538 c 128,-1,14
 1104 477 1104 477 1104 404 c 0,15,16
 1104 303 1104 303 1069.5 224 c 128,-1,17
 1035 145 1035 145 974 90.5 c 128,-1,18
 913 36 913 36 831 7.5 c 128,-1,19
 749 -21 749 -21 655 -21 c 0,20,21
 608 -21 608 -21 560.5 -13 c 128,-1,22
 513 -5 513 -5 468.5 11 c 128,-1,23
 424 27 424 27 384 51.5 c 128,-1,24
 344 76 344 76 312 109 c 1,25,-1
 312 -399 l 1,26,-1
 192 -399 l 1,27,-1
 192 1062 l 2,28,29
 193 1144 193 1144 224.5 1219 c 128,-1,30
 256 1294 256 1294 311.5 1351 c 128,-1,31
 367 1408 367 1408 443 1442 c 128,-1,32
 519 1476 519 1476 608 1476 c 0,0,1
604 823 m 2,33,34
 744 825 744 825 821.5 895.5 c 128,-1,35
 899 966 899 966 898 1097 c 0,36,37
 898 1156 898 1156 876.5 1206.5 c 128,-1,38
 855 1257 855 1257 817 1294.5 c 128,-1,39
 779 1332 779 1332 725.5 1353 c 128,-1,40
 672 1374 672 1374 608 1374 c 0,41,42
 542 1374 542 1374 488 1348.5 c 128,-1,43
 434 1323 434 1323 395 1280.5 c 128,-1,44
 356 1238 356 1238 334 1181.5 c 128,-1,45
 312 1125 312 1125 312 1062 c 2,46,-1
 312 241 l 1,47,48
 335 203 335 203 370.5 173 c 128,-1,49
 406 143 406 143 449.5 122.5 c 128,-1,50
 493 102 493 102 542.5 91 c 128,-1,51
 592 80 592 80 645 80 c 0,52,53
 719 80 719 80 781.5 102 c 128,-1,54
 844 124 844 124 889 165 c 128,-1,55
 934 206 934 206 959 265.5 c 128,-1,56
 984 325 984 325 984 400 c 0,57,58
 984 472 984 472 959.5 530.5 c 128,-1,59
 935 589 935 589 891 631 c 128,-1,60
 847 673 847 673 786.5 696.5 c 128,-1,61
 726 720 726 720 654 721 c 2,62,-1
 511 721 l 1,63,-1
 511 823 l 1,64,-1
 604 823 l 2,33,34
EndSplineSet
EndChar
StartChar: gamma
Encoding: 947 947 186
Width: 1229
Flags: W
LayerCount: 2
Back
Fore
SplineSet
1033 1082 m 1,0,-1
 1159 1082 l 1,1,-1
 686 27 l 1,2,-1
 686 -415 l 1,3,-1
 564 -415 l 1,4,-1
 564 26 l 1,5,-1
 90 1082 l 1,6,-1
 216 1082 l 1,7,-1
 580 262 l 1,8,-1
 626 120 l 1,9,-1
 673 262 l 1,10,-1
 1033 1082 l 1,0,-1
EndSplineSet
EndChar
StartChar: delta
Encoding: 948 948 187
Width: 1229
Flags: W
LayerCount: 2
Back
Fore
SplineSet
264 1289 m 0,0,1
 264 1358 264 1358 296 1409.5 c 128,-1,2
 328 1461 328 1461 380 1495 c 128,-1,3
 432 1529 432 1529 499 1546 c 128,-1,4
 566 1563 566 1563 637 1563 c 0,5,6
 719 1564 719 1564 798.5 1543 c 128,-1,7
 878 1522 878 1522 953 1482 c 1,8,-1
 924 1394 l 1,9,10
 864 1420 864 1420 790.5 1441 c 128,-1,11
 717 1462 717 1462 636 1461 c 0,12,13
 592 1461 592 1461 547.5 1451.5 c 128,-1,14
 503 1442 503 1442 467 1421.5 c 128,-1,15
 431 1401 431 1401 408 1368.5 c 128,-1,16
 385 1336 385 1336 385 1291 c 0,17,18
 384 1247 384 1247 407 1214 c 128,-1,19
 430 1181 430 1181 469 1155 c 128,-1,20
 508 1129 508 1129 560 1109.5 c 128,-1,21
 612 1090 612 1090 670 1073 c 0,22,23
 772 1044 772 1044 854.5 994.5 c 128,-1,24
 937 945 937 945 996 877 c 128,-1,25
 1055 809 1055 809 1087.5 723.5 c 128,-1,26
 1120 638 1120 638 1121 536 c 2,27,-1
 1121 504 l 2,28,29
 1120 394 1120 394 1085.5 298.5 c 128,-1,30
 1051 203 1051 203 987 132.5 c 128,-1,31
 923 62 923 62 831.5 21 c 128,-1,32
 740 -20 740 -20 625 -20 c 256,33,34
 510 -20 510 -20 418 21 c 128,-1,35
 326 62 326 62 261.5 132.5 c 128,-1,36
 197 203 197 203 162 298.5 c 128,-1,37
 127 394 127 394 126 504 c 2,38,-1
 126 536 l 2,39,40
 127 623 127 623 154 702 c 128,-1,41
 181 781 181 781 229 844 c 128,-1,42
 277 907 277 907 344 950.5 c 128,-1,43
 411 994 411 994 492 1009 c 1,44,-1
 494 1020 l 1,45,46
 449 1038 449 1038 407.5 1063.5 c 128,-1,47
 366 1089 366 1089 334 1122.5 c 128,-1,48
 302 1156 302 1156 283 1197.5 c 128,-1,49
 264 1239 264 1239 264 1289 c 0,0,1
246 504 m 2,50,51
 247 418 247 418 272.5 341 c 128,-1,52
 298 264 298 264 346.5 206.5 c 128,-1,53
 395 149 395 149 465 115 c 128,-1,54
 535 81 535 81 625 81 c 256,55,56
 715 81 715 81 784.5 115 c 128,-1,57
 854 149 854 149 902 207 c 128,-1,58
 950 265 950 265 975 341.5 c 128,-1,59
 1000 418 1000 418 1001 504 c 2,60,-1
 1001 536 l 2,61,62
 1000 608 1000 608 972.5 679 c 128,-1,63
 945 750 945 750 896 808 c 128,-1,64
 847 866 847 866 781 905.5 c 128,-1,65
 715 945 715 945 637 954 c 1,66,67
 548 958 548 958 476.5 925 c 128,-1,68
 405 892 405 892 354 833.5 c 128,-1,69
 303 775 303 775 275 697.5 c 128,-1,70
 247 620 247 620 246 536 c 2,71,-1
 246 504 l 2,50,51
EndSplineSet
EndChar
StartChar: epsilon
Encoding: 949 949 188
Width: 1229
Flags: W
LayerCount: 2
Back
Fore
SplineSet
629 502 m 2,0,1
 563 502 563 502 499 493.5 c 128,-1,2
 435 485 435 485 385 462 c 128,-1,3
 335 439 335 439 304.5 399 c 128,-1,4
 274 359 274 359 274 295 c 0,5,6
 274 238 274 238 305 197 c 128,-1,7
 336 156 336 156 386.5 130.5 c 128,-1,8
 437 105 437 105 501.5 93 c 128,-1,9
 566 81 566 81 633 81 c 0,10,11
 697 81 697 81 760 95.5 c 128,-1,12
 823 110 823 110 873 138.5 c 128,-1,13
 923 167 923 167 955 210 c 128,-1,14
 987 253 987 253 988 310 c 1,15,-1
 1109 310 l 1,16,17
 1105 222 1105 222 1061.5 159.5 c 128,-1,18
 1018 97 1018 97 951 57 c 128,-1,19
 884 17 884 17 800.5 -1.5 c 128,-1,20
 717 -20 717 -20 633 -20 c 0,21,22
 543 -20 543 -20 457.5 -2 c 128,-1,23
 372 16 372 16 304.5 54.5 c 128,-1,24
 237 93 237 93 195.5 153 c 128,-1,25
 154 213 154 213 154 297 c 0,26,27
 154 351 154 351 172.5 393.5 c 128,-1,28
 191 436 191 436 224 467.5 c 128,-1,29
 257 499 257 499 302 520.5 c 128,-1,30
 347 542 347 542 401 555 c 1,31,32
 353 570 353 570 311.5 592 c 128,-1,33
 270 614 270 614 239.5 643.5 c 128,-1,34
 209 673 209 673 191.5 710.5 c 128,-1,35
 174 748 174 748 174 794 c 0,36,37
 174 877 174 877 212 935.5 c 128,-1,38
 250 994 250 994 314 1030.5 c 128,-1,39
 378 1067 378 1067 460.5 1084 c 128,-1,40
 543 1101 543 1101 633 1101 c 0,41,42
 717 1101 717 1101 797 1082 c 128,-1,43
 877 1063 877 1063 941 1024 c 128,-1,44
 1005 985 1005 985 1045 926.5 c 128,-1,45
 1085 868 1085 868 1090 790 c 1,46,-1
 969 790 l 1,47,48
 967 844 967 844 936.5 883.5 c 128,-1,49
 906 923 906 923 858 949 c 128,-1,50
 810 975 810 975 750.5 987.5 c 128,-1,51
 691 1000 691 1000 633 1000 c 0,52,53
 567 1000 567 1000 506 988.5 c 128,-1,54
 445 977 445 977 398.5 952 c 128,-1,55
 352 927 352 927 324 888.5 c 128,-1,56
 296 850 296 850 296 796 c 0,57,58
 296 740 296 740 324 702.5 c 128,-1,59
 352 665 352 665 398 643 c 128,-1,60
 444 621 444 621 504 611.5 c 128,-1,61
 564 602 564 602 629 602 c 2,62,-1
 843 602 l 1,63,-1
 843 502 l 1,64,-1
 629 502 l 2,0,1
EndSplineSet
EndChar
StartChar: zeta
Encoding: 950 950 189
Width: 1229
Flags: W
LayerCount: 2
Back
Fore
SplineSet
1068 1456 m 1,0,-1
 1068 1378 l 1,1,-1
 617 874 l 2,2,3
 560 815 560 815 510.5 757 c 128,-1,4
 461 699 461 699 424 637.5 c 128,-1,5
 387 576 387 576 366 509.5 c 128,-1,6
 345 443 345 443 345 368 c 0,7,8
 346 308 346 308 372 266.5 c 128,-1,9
 398 225 398 225 439 197 c 128,-1,10
 480 169 480 169 530.5 152.5 c 128,-1,11
 581 136 581 136 631 125 c 2,12,-1
 791 89 l 2,13,14
 837 78 837 78 881 66 c 128,-1,15
 925 54 925 54 960 32 c 128,-1,16
 995 10 995 10 1016.5 -24 c 128,-1,17
 1038 -58 1038 -58 1038 -112 c 0,18,19
 1038 -152 1038 -152 1022.5 -192.5 c 128,-1,20
 1007 -233 1007 -233 982 -269.5 c 128,-1,21
 957 -306 957 -306 926 -336.5 c 128,-1,22
 895 -367 895 -367 863 -387 c 1,23,-1
 795 -330 l 1,24,25
 822 -309 822 -309 845.5 -285 c 128,-1,26
 869 -261 869 -261 886 -235.5 c 128,-1,27
 903 -210 903 -210 912.5 -182.5 c 128,-1,28
 922 -155 922 -155 922 -126 c 0,29,30
 922 -99 922 -99 907.5 -80 c 128,-1,31
 893 -61 893 -61 869.5 -47 c 128,-1,32
 846 -33 846 -33 815.5 -23.5 c 128,-1,33
 785 -14 785 -14 752 -7 c 2,34,-1
 611 22 l 2,35,36
 534 38 534 38 464.5 63 c 128,-1,37
 395 88 395 88 342 128 c 128,-1,38
 289 168 289 168 258 226 c 128,-1,39
 227 284 227 284 226 366 c 0,40,41
 226 434 226 434 247.5 504 c 128,-1,42
 269 574 269 574 309.5 645.5 c 128,-1,43
 350 717 350 717 407.5 789 c 128,-1,44
 465 861 465 861 535 932 c 1,45,-1
 914 1354 l 1,46,-1
 119 1354 l 1,47,-1
 119 1456 l 1,48,-1
 1068 1456 l 1,0,-1
EndSplineSet
EndChar
StartChar: eta
Encoding: 951 951 190
Width: 1229
Flags: W
LayerCount: 2
Back
Fore
SplineSet
297 1082 m 1,0,-1
 304 885 l 1,1,2
 357 983 357 983 447 1042 c 128,-1,3
 537 1101 537 1101 668 1102 c 0,4,5
 855 1102 855 1102 949 994 c 128,-1,6
 1043 886 1043 886 1045 681 c 2,7,-1
 1045 -415 l 1,8,-1
 925 -415 l 1,9,-1
 925 680 l 2,10,11
 925 755 925 755 908 814 c 128,-1,12
 891 873 891 873 856 914.5 c 128,-1,13
 821 956 821 956 767.5 978 c 128,-1,14
 714 1000 714 1000 641 1000 c 0,15,16
 573 1000 573 1000 519.5 982 c 128,-1,17
 466 964 466 964 424.5 933 c 128,-1,18
 383 902 383 902 353.5 858.5 c 128,-1,19
 324 815 324 815 306 764 c 1,20,-1
 306 0 l 1,21,-1
 186 0 l 1,22,-1
 186 1082 l 1,23,-1
 297 1082 l 1,0,-1
EndSplineSet
EndChar
